<?xml version="1.0" encoding="utf-8"?>
<!-- Generator: Adobe Illustrator 24.1.1, SVG Export Plug-In . SVG Version: 6.00 Build 0)  -->
<svg version="1.1" id="Layer_1" xmlns="http://www.w3.org/2000/svg" xmlns:xlink="http://www.w3.org/1999/xlink" x="0px" y="0px"
	 viewBox="0 0 612 612" style="enable-background:new 0 0 612 612;" xml:space="preserve">
<style type="text/css">
	.st0{fill:#66B496;}
</style>
<g>
	<path class="st0" d="M94.36,335.41c0,0,0.5,0.12,0.66,0c0.16-0.1,0.61-0.5,0.61-0.5s0.44,0.66,0.5,0.84
		c0.04,0.17-0.56,0.62-0.56,0.62s-0.84,0.55-0.55,0.72c0.28,0.17,0.83-0.11,1.04-0.16c0.23-0.06,0.78-0.5,0.94-0.55
		c0.17-0.05,0.54-0.68,0.54-0.68l0.28-0.61l0.27-0.68c0,0,0.33-0.55,0.49-0.38l0.94,0.21c0.34-0.44,0.84-0.11,0.84-0.11
		s0.05,0.4-0.23,0.74c-0.27,0.33-1.87,1.52-1.76,1.74c0.12,0.22,0.12,0.17,0,0.79c-0.11,0.61-0.87,0.67-1.2,1.05
		c-0.34,0.39-0.44-0.17-0.34,0.39c0.1,0.56-0.61,0.96-0.17,1.07c0.45,0.11,0.99,0.29,1.16,0.11c0.16-0.18,0.72-0.68,0.89-0.79
		c0.16-0.1,0.72-0.35,0.87-0.27c0.67,0.34,1.23,0.05,1.38-0.33c0.18-0.4,0.61-0.95,0.71-0.68c0.11,0.28,1.17,1.13,1.17,1.29
		c0,0.17-0.49,0.97-0.44,1.35c0.06,0.39-0.55,1.17-0.28,1.24c0.28,0.04,1.16,0.61,1.21,0.77c0.05,0.17,0.61,0.57,0.34,0.84
		c-0.28,0.29-0.61,0.66-0.61,0.66s0.83-0.16,0.83,0.18c0,0.35-0.4,1.06-0.72,1.35c-0.33,0.27-0.88,1.05-0.88,1.05
		s-0.22,0.62-0.34,0.9c-0.1,0.29-1.21,0.79-1.15,1.23c0.05,0.45,0.15,1.12,0.43,1.41c0.28,0.27,0.43,0.67,0.54,0.95
		c0.12,0.29,2.32-0.17,2.48,0.06c0.18,0.23,1.11,0.06,1.38,0.06c0.28,0,0.62-0.52,0.62-0.52l0.55,0.18c0,0,0.77,0.11,0.94,0.16
		c0.16,0.06,0.88-0.11,0.88-0.11c0.6-0.39,0.89-0.44,0.94-0.61c0.06-0.16-0.61-0.39,0.44-0.61c1.05-0.22,2.04-0.05,2.04-0.05
		s0.33,0.34,0.33,0.66c0,0.34-0.22,0.78-0.55,1.07c-0.33,0.27-0.73,0.27-1.05,0.83c-0.33,0.56-0.37,1.18-0.23,1.4
		c0.18,0.21,0.89,0.16,1.05,0.39c0.16,0.24,1.32,0.94,1.27,1.11c-0.06,0.17-0.12,0.95-0.06,1.18c0.06,0.22,0.55,0.28,0.87,0.44
		c0.33,0.17,1.11,0.29,1.11,0.29s0.61,0.09,0.06,0.88c-0.56,0.79-0.89,0.91-0.84,1.13c0.07,0.22,0.18,0.66,0.22,0.9
		c0.06,0.23,0.4,0.06,0.13,1c-0.27,0.95,0,0.95,0.09,1.39c0.12,0.46-0.16,1.45-0.32,1.73c-0.17,0.28-0.77,0.51-0.77,0.51
		s-0.77-0.55-1.21-0.39c-0.45,0.16-1.16,0.16-1.66,0.22c-0.49,0.05-0.88-0.06-1.1,0.22c-0.22,0.27-0.56,0.27-0.99,0.33
		c-0.44,0.07,0,0.07-0.44,0.07c-0.43,0-0.1-0.23-0.66,0.38c-0.55,0.61-0.67,0.67-0.73,0.89c-0.05,0.24-0.22,0.57-0.32,0.84
		c-0.12,0.29,0,0.51,0.27,0.84c0.28,0.35,0.83,1.01,1.05,1.24c0.23,0.23,0.93,0.34,0.89,0.73c-0.06,0.4,0.1,1.39-0.06,1.56
		c-0.16,0.17-0.77,0.46-1.05,0.61c-0.27,0.17-0.77,0.4-0.72,0.79c0.05,0.4,0.39,0.67-0.06,1.17c-0.44,0.52-1.48,0.84-1.92,1.13
		c-0.45,0.28-0.67-0.29-1.05,0.11c-0.39,0.4-0.66,0.51-1,0.9c-0.33,0.39-1.21,0.5-1.21,0.5s-0.77,1.92-0.72,2.14
		c0.06,0.21,1.17,0.61,1.32,0.67c0.17,0.04,1-0.28,1.16-0.22c0.16,0.05,0.88-0.16,1.05-0.16c0.16,0,1.1-0.29,1.1-0.29
		s1.49,0.79,1.77,1c0.27,0.22,2.43,0.95,2.59,0.95c0.16,0,0.27-0.5,0.61-0.16c0.32,0.34,1.05,1,1.05,1s0.33-0.22,0.71-0.11
		c0.39,0.11,1.48-0.12,1.48-0.12s1.28-0.78,1.33-0.95c0.05-0.17,0.77-0.5,0.94-0.57c0.16-0.05,0.16-0.16,0.54-0.16
		c0.39,0,0.95-0.56,1.11-0.56c0,0-0.5,2.08-0.77,2.3c-0.28,0.22-1.17,0.05-1.27,0.46c-0.12,0.38-0.12,0.77-0.72,1.11
		c-0.59,0.33-1.32,0.67-1.59,0.67c-0.28,0-0.62-0.67-0.89-0.22c-0.27,0.44-1.11,0.39-1.11,0.39s0.17-0.67-0.32-0.67
		c-0.49,0-0.61-0.45-1-0.18c-0.39,0.29-0.99,0.18-1.27,0.39c-0.26,0.22-2.19,1.73-2.19,1.73s-0.4,0.07-0.73,0.4
		c-0.32,0.33-0.55,0.78-0.93,1.23c-0.4,0.43-0.67,0.67-0.99,1.11c-0.34,0.45-0.89,0.17-1.82,1.25c-0.94,1.05-1.72,1.72-1.72,2
		c0,0.27-0.85,0.49-0.99,0.67c-0.71,1.01-0.6,1.12-0.49,1.5c0.1,0.4,0.93,0.51,1.21,0.56c0.27,0.06,0.61-0.22,0.78-0.22
		c0.17,0-0.06,0.22,1.04-1.01c1.11-1.24,1.95-1.74,1.95-1.74c0.72,0.05,0.99,0,1.21,0.12c0.22,0.11,0.66-0.45,0.93-0.45
		c0.28,0,0.39-0.67,1.17,0.17c0.77,0.84,1.15,0.44,1.42,0.72c0.28,0.29,0.39,0.23,0.84,0.41c0.44,0.16,1.92-0.8,1.92-0.8l0.66-1.06
		l0.67-1.22c0,0,0.32-0.35,0.67-0.39c0.33-0.06,1.64-0.12,1.92-0.06c0.27,0.06,1.16,0.06,1.48,0.11c0.34,0.06,2.37-0.22,2.65-0.22
		c0.28,0,1.87-0.34,1.87-0.34l1.05-0.95c0,0,1.72,0.28,1.78,0.51c0.04,0.22,0.99,0.71,0.99,0.71l2.86-0.27c0,0,0.44-0.67,0.99-0.78
		c0.55-0.1,4.7,0.74,4.86,0.74c0.17,0,1.66-0.11,2.05-0.23c0.38-0.11,1.31-0.78,1.54-0.73c0.22,0.05,4.47-1.46,4.47-1.46l1.81-1.45
		l0.4-1.01c0,0-0.73-0.88-0.99-0.78c-0.28,0.1-1.05-0.23-1.88,0.06c-0.82,0.27-1.48,0.17-2.15-0.33c-0.66-0.52-1-0.68-0.22-1.07
		c0.77-0.39,2.1-1.23,2.49-1.46c0.39-0.23,0.82-0.62,1.26-0.96c0.45-0.33,1.54-1.34,1.83-1.56c0.28-0.23,1.31-1.58,1.37-1.8
		c0.06-0.22,0.28-1.51,0.28-1.51l0.65-0.73l0.61-1.12c0,0-0.49-1.45-0.88-1.78c-0.39-0.34-0.55-1.4-1.11-1.52
		c-0.55-0.1-1.33-0.78-2.15-0.67c-0.83,0.11-0.93-0.22-1.54-0.17c-0.61,0.06-0.56-0.17-1.33,0.35c-0.77,0.49-1.48,0.72-1.82,0.95
		c-0.33,0.23-2.04-1.02-2.2-0.95c-0.18,0.04-0.22-0.51,0-0.8c0.22-0.27,0.55-0.66,0.71-0.77c0.16-0.11,0.43-0.67,0.39-1
		c-0.06-0.33-0.28-1.07-0.49-1.63c-0.23-0.56-1.33-1.23-1.33-1.23l-0.45-1.34c0,0-0.71-0.9-0.88-0.9c-0.17,0-0.5-1.12-0.55-1.45
		c-0.06-0.35,0.27-1.62,0-1.7c-0.28-0.05-1.17-1.28-1.17-1.28s-0.16-0.5-0.22-0.67c-0.04-0.17,0.12-1.06-0.22-1.17
		c-0.33-0.12,0.28-0.45-1.1-0.68c-1.38-0.21-0.93-0.84-1.66-0.9c-0.72-0.05-2.64-0.95-2.64-0.95s-0.22-1.3-0.66-1.51
		c-0.44-0.22-0.83-1.92-0.89-2.08c-0.04-0.17,0.06-1.18-0.27-1.29c-0.33-0.11-0.61-1.22-1.05-1.34c-0.44-0.11-0.55-0.88-0.73-1.17
		c-0.15-0.27-0.1-1.06-0.33-1.12c-0.22-0.05-1.21-1.62-1.21-1.62l-0.65-0.34l-0.67-0.21c0,0-0.1-0.84-0.61-0.66
		c-0.5,0.16-0.95-0.13-0.95-0.13s-0.1-0.38-0.49-0.11c-0.39,0.28-1.26-0.21-1.26-0.21s0.11-0.52-0.22-0.45
		c-0.34,0.04-2.04,0.77-2.22,0.83c-0.14,0.06,0.18-0.9,0.28-1.24c0.12-0.33,0.28-0.56,0.89-0.83c0.6-0.28,1.27-0.72,1.27-0.72
		s0.44-0.73,0.27-0.96c-0.16-0.22-0.16-0.73-0.11-0.96c0.04-0.22,0.93-0.89,0.93-0.89s0.73-0.45,0.89-0.78
		c0.16-0.34,1.26-1.85,1.26-1.85l0.1-1.45l1.06-0.88c0,0,0.55-0.97,0.71-1.02c0.17-0.06,0.55-0.5,0.61-1.4
		c0.06-0.9,0.06-1.3,0.06-1.3s0.15-0.5,0.09-0.83c-0.05-0.34,0.18-2.3-1.14-1.8c-1.33,0.5-1.7,0.45-2.1,0.45
		c-0.39,0-0.89-0.32-1.04-0.22c-0.17,0.11,1.16-0.78-1.23-0.11c-2.37,0.67-4.24,0.32-4.24,0.32s-0.72-0.55-1.06-0.32
		c-0.33,0.21-1.27,0.84-1.27,0.84s-0.49,0.56-0.81,0.73c-0.33,0.16-0.85-0.12-0.85-0.12c0-0.34-0.15-1.01-0.33-1.6
		c-0.17-0.58-0.33-1.09-0.33-1.09c1.03-1.05,1.01-0.24,1.44-0.67c0.7-0.71,0.13-0.93,0.79-1.58c0.39-0.41,1.73-0.7,2.24-1.23
		c0.62-0.62,0.39-1.45,0.39-1.45l-0.22-1.57l-2.87-0.68c0,0-2.64,0.45-3.31,0.89c-0.65,0.46-1.98-0.66-1.98-0.66l-2.66-0.46
		c-0.22,2.25-1.32,4.05-1.32,4.05l-1.32-0.46l0.44,3.58c0,0-2.64-0.44-2.64,0.23c0,0.67-1.11,1.35-0.67,2.24
		c0.44,0.9,0.23,2.01,0.23,2.01s1.32,1.34,1.54,2.02c0.23,0.67-1.98,3.57-1.98,3.57l-1.77,0.9c0,0-1.54,1.79-0.89,2.02L94.36,335.41
		z"/>
	<path class="st0" d="M69.38,378.96c0.58,0.16,0.95,0.67,1.69,0.82c0.74,0.16,1.24,0.75,1.83,0.75c0.58,0,1.18-0.08,2.72-0.52
		c1.54-0.46,1.1-0.31,3.3-1.12c2.21-0.82,1.76-0.68,2.43-1.28c0.66-0.59,1.03-0.97,1.69-1.49c0.66-0.52,1.17-1.11,1.63-1.7
		c0.43-0.61,1.24-0.38,1.76-0.46c0.51-0.07,1.03,0.15,1.54,0.15c0.51,0,2.13-0.07,2.56-0.22c0.45-0.15,1.11-0.15,1.11-0.15
		s2.72-7.24,2.65-9.62c-0.08-2.38,0-1.79,0-2.32c0-0.53-1.1-1.64-1.55-1.93c-0.44-0.31-1.62-0.46-1.84-0.68
		c-0.23-0.23-1.77-1.28-1.99-1.42c-0.21-0.15-0.07-0.45,0.07-0.82c0.15-0.38,0.96,0.53,1.47,0.74c0.52,0.22,1.41,0.75,1.63,0.67
		c0.22-0.08,1.47-0.29,2.64-0.74c1.18-0.46,1.33-0.75,1.85-1.05c0.52-0.3,1.54-1.35,1.92-1.72c0.36-0.37-0.15-0.89-0.09-1.27
		c0.09-0.38-0.58-1.19-0.72-1.57c-0.17-0.38-1.63-2.31-2.43-3.06c-0.82-0.74-1.25-0.98-1.25-0.98s-0.88-0.68-1.11-0.88
		c-0.22-0.24-1.76-0.09-1.76-0.09l-1.77,0.37l-3.09,2.17c0,0-0.15,1.49-0.23,1.72c-0.07,0.22-1.54,1.42-1.76,1.56
		c-0.22,0.16-1.77,1.72-1.77,1.72v1.19l2.5,1.2c0,0-2.21-0.45-2.79-0.68c-0.59-0.22-0.74-0.45-0.74-1.05c0-0.6-0.66-0.89-0.66-0.89
		l-0.88,0.52l-1.77,1.72l-0.87-0.37c0,0-1.19,0.07-1.48,0.15c-0.28,0.07-1.31,0.68-1.68,0.68c-0.38,0-1.54-0.54-2.13-0.83
		c-0.59-0.3-1.33,0-1.47-0.23c-0.16-0.22-1.55-0.22-1.84-0.15c-0.29,0.08-0.29,0.3-0.45,0.9c-0.14,0.59,0.07,1.64,0.3,1.71
		c0.22,0.08,1.11,0.9,1.32,0.97c0.23,0.08,1.4,0.52,1.12,1.26c-0.31,0.75-0.82,1.28-1.41,1.8c-0.59,0.52-0.59,0.89-0.44,1.41
		c0.14,0.52,0.58,0.37,1.1,0.31c0.51-0.08,1.33,0.06,1.98,0c0.67-0.08,1.61,0.67,2.21,0.67c0.6,0,0.37,0.97,0.29,1.19
		c-0.07,0.22-0.96,0.68-1.1,0.9c-0.15,0.22-0.8,1.26-0.58,1.65c0.21,0.36,1.1,0.89,1.1,0.89l-1.47,2.02c0,0-1.54,0.82-1.77,0.97
		c-0.22,0.15-1.11,0.82-1.54,1.11c-0.44,0.3-1.33,1.34-1.54,1.56c-0.22,0.22-0.08,1.2,0.15,1.65
		C68.2,377.25,68.78,378.81,69.38,378.96z"/>
	<path class="st0" d="M70.88,263.65c0.11-0.44,1.58-1.17,1.58-1.17s1.45,0.05,2.06,0.05c0.59,0,0.59,0.29,0.98,0.07
		c0.39-0.24,0.78-0.29,1.55-0.46c0.77-0.16,0.92-0.5,1.2-1c0.28-0.51,0.4-0.17,0.94-0.34c0.41-0.13,0.84-0.79,1.77-1.83
		c0.93-1.08,0.66,0.1,0.72-0.14c0.05-0.21,0.66,0.35,1.77-0.33c1.11-0.68,0.82-0.5,1.21-1.06c0.38-0.56,0.88-0.33,1.1-0.43
		c0.22-0.12,1.54,0.16,2.21,0.04c0.66-0.11,1.05,0.24,1.05,0.24s0.61-0.68,1.16-1.01c0.55-0.35,0.61-0.35,0.89-0.57
		c0.27-0.22,0.38-0.95,0.38-0.95c0-0.17,0.38-0.44,0.49-1.18c0.11-0.73,0.22-0.1,0.89-0.73c0.65-0.62,1.04-0.22,1.04-0.22
		s0.67-0.34,0.95-0.84c0.28-0.5,0-0.39,0.32-1.3c0.34-0.88,1.1-0.22,1.38-0.43c0.28-0.22,0.55-0.06,0.55-0.28
		c0-0.23-0.1-2.8-0.1-2.98c0-0.16-0.66-0.73-0.49-1.11c0.16-0.4,0.87-0.63,0.87-0.63c0-0.17-1.6-1.56-1.6-1.56s-1.5-0.11-1.6-0.38
		c-0.11-0.29-1.28,0.27-1.44,0.16c-0.17-0.12-0.99,0.57-1.71,0.16c-0.37-0.18,0.71-1.34,0.71-1.56c0-0.23-1.99-0.43-2.48-0.56
		c-0.5-0.12-0.38-0.39-0.28-0.72c0.11-0.34,0.28-0.45,0.34-0.67c0.05-0.23,0.61-1.18,0.61-1.18s0,0-0.61-0.67
		c-0.27-0.29-0.89-0.17-1.05-0.39c-0.16-0.22-0.16-0.67-0.16-0.9c0-0.22,0.05-0.5,0.39-0.89c0.33-0.4,0.93-1.06,0.6-1.34
		c-0.33-0.29-1.1-0.17-1.33-0.17c-0.22,0-1.15,0.84-1.15,0.84s-0.22,0.67-0.49,0.95c-0.29,0.29-0.51,0.29-0.84,0.45
		c-0.32,0.16-0.7,0.38-1.04-0.06c-0.34-0.45-0.99-0.57-0.99-0.57s-0.28-0.73-0.4-1.23c-0.1-0.5-0.71-0.28-0.94-0.73
		c-0.21-0.44-0.83-0.84-1.48-1.24c-0.67-0.38-1.22,0.45-1.66,0.22c-0.43-0.22-0.93,0.85-0.66,1.3c0.28,0.44,0.38,1.12,0.38,1.12
		s-0.32,1.12-0.54,1.23c-0.22,0.1-0.61,0.79-0.7,0.55c-0.13-0.22-1.06-0.28-1.73-0.71c-0.66-0.46-0.71,0.16-1.32-0.29
		c-0.61-0.45-0.61,0.17-1.76,0.9c0,0-0.11,0.61-0.33,1.28c-0.22,0.67-0.5,0.74-0.5,0.74s-1.05-0.51-1.22-1.01
		c-0.17-0.5-1.16-0.23-1.71-0.4c-0.55-0.17-1.32-0.34-1.6-0.22c-0.28,0.12-0.28,0.62-0.44,0.79c-0.16,0.16,0.16,0.89,0.16,1.23
		c0,0.33,0.77,0.39,0.93,0.33c0.18-0.05,0.33,1.11,0.33,1.11c-0.29-0.45-1.16,0.75-1.46,0c-0.29-0.74-0.74-1.35-0.74-2.1
		c0-0.74-1.33-0.59-1.47-1.64c-0.15-1.04-1.92,0-1.92,0l-1.32,0.45c-0.88,0.3-1.92,0.76-1.92,0.76s0.14,1.34,0,1.93
		c-0.15,0.6-0.89,0.46-2.35-1.04c-0.53-0.54-2.21-0.45-3.24-1.04c-1.03-0.6,0,0-1.16,1.79c0,0,0.58,1.93,0.58,2.53
		c0,0.61-1.33,1.35-1.33,1.35s0,0-0.14-1.05c-0.14-1.05-0.89,0.89-2.5,0.59c-1.62-0.29,0,0-0.74,1.2l-0.29,2.98l-1.34-0.74
		c0,0,0-1.8,0-2.24c0-0.46-0.88-1.49-1.32-2.23c-0.44-0.75-1.91,0-2.06-0.46c-0.15-0.44,2.2-2.39,2.2-2.39s-0.14-1.94-0.29-2.84
		c-0.13-0.89-1.76-0.3-3.22-1.49c0,0-1.47-0.59-1.93-1.04c-0.43-0.45-1.62-0.15-2.21-0.74c-0.58-0.6-1.76-0.15-2.93-0.15
		c-1.18,0-0.89,1.2-0.89,1.2s0.73-0.15,1.32-0.3c0.59-0.15,1.03,1.04,0.59,2.37l1.63,1.66c0,0-1.04,0.59-1.63,0.59
		c-0.59,0-1.02-0.15-2.65-1.49c-0.51-0.42-1.62,0.29-1.62,0.29c0.15-0.45,0.45,1.19,0.45,1.19l-1.63,0.75l0.43,1.5
		c0,0,0,0.89-1.47,1.05l-2.06,0.89c-0.44,0.16-0.44,0.9-0.29,2.54c0.15,1.64,0,0,0.43-0.16c0.45-0.15,0.89,0.59,2.22,0.3
		c0,0,2.36,0.44,3.38-1.21c0,0,1.03,0,2.5-0.29l1.61,0.6l1.33-1.34c0,0,2.35,0.61,2.79,0.3c0.44-0.3-0.15,0.6-0.29,1.2
		c-0.15,0.61-0.58,1.79-0.58,1.79l-1.48,0.89l2.96,1.2c0,0-0.78,0.61-1.67,0c-0.88-0.62-0.39,0-0.55-0.05
		c-0.17-0.07-0.55,0.61-0.71,0.61c-0.18,0-0.71,0.23-1.16,0.39c-0.44,0.16-2.1,0.28-2.92,0.16c-0.84-0.1-1.23,0.23-1.55,0.27
		c-0.33,0.07-2.21,0.29-2.75,0.29c-0.56,0-0.94,0.66-1.11,0.84c-0.16,0.18,0,1.23,0.55,1.12c0.56-0.1,0.78,0.4,1.05,0.11
		c0.27-0.28,1.1-0.05,1.32-0.11c0.23-0.06,2.22-0.33,2.49-0.55c0.27-0.22,0.6,0.55,1.1,0.5c0.49-0.05,0.55-0.11,0.99-0.39
		c0.45-0.28,0.67,0.16,1.32-0.05c0.67-0.23,0.11,0.22,0.33,0.56c0.22,0.34,0.34,1.17,0.44,1.74c0.12,0.56,0.66,0.66,0.83,0.73
		c0.18,0.04,2.81-0.73,2.81-0.73s0,0.44-0.33,0.61c-0.34,0.16-0.28,0.44-0.66,1c-0.38,0.57,0.06,0.61,0.22,0.57
		c0.17-0.05,0.99,1.02,0.99,1.4c0,0.39-0.71,0.67-1.1,0.94c-0.38,0.29-1.1,0.51-1.65,0.85c-0.54,0.33-2.43,0.46-3.03,0.73
		c-0.61,0.28-0.49,0.5-0.61,1.23c-0.1,0.73,0.77,0.63,1.66,0.85c0.87,0.22,1.44,0.56,2.21,0.22c0.77-0.34,2.6-0.29,3.37-0.34
		c0.77-0.05,1.05,0.17,1.54,0c0.49-0.18,0.83-0.5,1.77-1.39c0.94-0.9,0.27,0.39,0.66,0.73c0.39,0.33,0.49,0.48,0.77,0.56
		c0.28,0.05,0.93,0.6,1.16,0.83c0.22,0.24,1.43,0.27,1.88,0.34c0.44,0.05,0.05,0.4,0.11,0.94c0.06,0.56,0.62,0.5,1.39,0.69
		c0.77,0.16,0.77,0.22,1.14,0.38c0.4,0.17,1.01,0.39,1.5,0.85c0.49,0.44,1.98,0.56,1.98,0.56s1.43,0.33,2.87,0.05
		c1.43-0.27,1.43,0.23,2.15,0.28c0.71,0.05,1.21,0.05,1.66-0.39c0.45-0.46,0.61-0.73,0.94-1.12c0.34-0.39,1.21,0.11,1.21,0.11
		s0.38,0.91,0.99,0.39c0.6-0.5,0.83-0.39,1.27-0.56c0.43-0.17,0.39-0.89,0.77-1.85C69.74,263.54,70.76,264.1,70.88,263.65z"/>
	<path class="st0" d="M470.54,173.34c0.29,1.5,0.29,1.34,1.33,1.79c1.02,0.45,2.34,0.45,2.34,0.45c2.07-0.45,3.34-1.53,3.83-0.6
		c1.02,1.94,0.44,2.55,0.44,2.55s-2.29-0.28-2.05,0.13c0.88,1.66,0.72,0.91,1.91,1.8c1.17,0.9,1.46,2.23,2.35,0.6
		c0.88-1.65,1.02-1.75,0.58-2.53c-0.74-1.36-2.93-2.69-0.58-1.95c2.36,0.75,2.21,0.75,2.95,1.18c0.73,0.46,0.58,1.21,0.73,1.64
		c0.14,0.44,1.17-0.14,2.06,0.31c0.89,0.44,1.33,1.34,0.44,1.48c-0.88,0.15-3.09,0.74-3.23,1.2c-0.15,0.44-0.74,1.04,0.15,1.49
		c0.88,0.44,1.61,0.59,2.49,0.44c0.88-0.15,0.74-1.49,2.21,0c1.46,1.5,3.22,2.09,3.68,2.24c0.44,0.15,1.6,0.17,1.91,0.3
		c1.76,0.75,2.18-0.16,2.8-0.16c1.9,0,2.77,0.06,3.22,0.16c1.48,0.3,2.07,0.15,2.52,0c0.43-0.16,2.19-0.45,2.19-0.45
		s0.89,0.9,1.48,0.9c0.58,0,0.29-0.45,1.61-0.45c1.32,0,3.73,0.6,2.75-1.57c-0.44-0.98-4.76-0.51-4.76-2.54
		c0-2.04-0.76-1.78-2.26-3.3c-1.51-1.54,0.25-0.27-1.51-1.54c-1.75-1.28-2.76-2.05-3.26-2.8c-0.5-0.76-2-2.04-1.76-3.57
		c0.26-1.51-0.24-3.57,0-4.33c0.26-0.76-0.75-1.02-0.24-2.79c0.5-1.8-0.5-1.8,0.76-2.55c1.24-0.77,1.24-2.3,2.25-1.53
		c0,0,0.79-1.25,1.51-2.06c2.51-2.78,2.63-3.27,3.52-3.81c2.5-1.54,2.49-1.94,3.01-2.55c1.75-2.03,1.26-1.52,1.75-2.03
		c2.51-1.53,4.02-3.06,4.02-3.06c1.01-2.04-0.49-2.3,1.01-3.57l1.51-1.27c0.41-0.96,0.56-1.11,0.41-1.71
		c-0.14-0.6-0.43-2.09-0.43-2.09l1.9-0.46c0,0,0.31,1.5,1.33,0.9c1.03-0.59,0.59-1.04,0.88-1.94c0.31-0.89,0.31-1.79,0.74-1.64
		c0.45,0.14,2.36,0.75,2.36,0.75c1.47-0.16,2.94-0.9,2.94-0.9c0.58-1.18,0.44-1.43,1.18-1.49c1.61-0.16,2-0.31,2.19-0.9
		c0.6-1.79,2.21-2.83,2.21-2.83s1.04-0.31,1.63-0.76c0.58-0.44,1.18-0.88,1.61-1.03c0,0,1.18,0.44,2.07-0.15
		c0.88-0.6,1.49-1.31,2.05-1.5c3.53-1.2,3.24-1.48,4.86-1.95c1.61-0.44,1.03-0.44,3.08-0.88c2.07-0.45,12.65-2.83,12.65-2.83
		s1.92-0.75,2.36-0.9c0.43-0.15,2.79-1.2,3.37-1.34c0.58-0.16,1.18-0.29,2.5-0.75c1.32-0.45,3.09-0.91,4.26-1.35
		c1.18-0.45,1.47-0.89,2.36-0.89c0.89,0,1.33-0.59,2.21-0.59c0.87,0,1.91-0.44,2.65-0.61c0.72-0.14,0.88-0.75,1.76-1.18
		c0.88-0.44,1.03-0.9,1.61-1.51c0.59-0.58,1.18,0.61,1.48-1.63c0.28-2.25,0.88-2.83,0.28-3.14c-0.59-0.29-1.17-1.2-1.77-1.64
		c-0.58-0.46,2.36-0.3-2.05-0.6c-4.41-0.29-3.68-0.29-5.73-0.29c-2.05,0-3.83,0-4.72,0.6c-0.87,0.59-1.16,0.46-3.22,1.79
		c-2.07,1.34-1.62,0.46-2.07,1.34c-0.44,0.9-0.29,1.05-0.87,1.49c-0.6,0.46-1.03,0.31-1.47,0.46c-0.44,0.15-1.18-0.75-2.36,0.15
		c-1.17,0.9-1.17,0.59-2.2,1.19c-1.04,0.61-1.48,0.46-2.51,0.9c-1.04,0.46-0.88-0.29-1.77,0.3c-0.89,0.6-3.23,1.04-3.23,1.04
		s-0.88-0.44-1.47,0c-0.59,0.45-1.18,0.45-2.07,0.91c-0.89,0.44-2.34,0.44-2.79,0.44c-0.43,0-0.6-0.16-1.33-0.16
		c-0.73,0-0.88,0.31-1.91,0c-1.03-0.29-3.09-0.29-3.68-0.45c-0.6-0.14-1.18-0.88-1.9-0.59c-0.75,0.3-2.34,0.37-2.65,1.04
		c-1.04,2.24,0.13,1.79-1.04,2.24c-1.18,0.45-2.05,0.45-2.05,0.45s-0.15-1.34-1.32-0.6c-1.18,0.75-0.15,0-1.18,0.75
		c-1.76,1.35-2.3,1.2-3.08,1.2c-2.06,0-2.8-0.15-2.8-0.15l-1.92,0.15c-1.61,1.34-0.89,2.39-1.47,2.54
		c-0.58,0.16-2.05,0.59-2.05,0.59s-2.05,0.3-2.65,1.2c-0.59,0.89-1.03,0.74-1.91,1.64c-0.88,0.89-0.29,0.75-1.02,1.79
		c-0.75,1.05-0.59-2.24-2.66-1.04c-2.06,1.19-2.06,0.29-2.78,1.49c-0.75,1.2-0.88,1.65-1.47,2.24c-0.6,0.6-1.19-0.16-2.22-0.16
		c-1.02,0-2.34-0.74-2.05,0.45c0.29,1.2-0.19,1.24,0.29,1.79c1.03,1.2,0.29,0.78,0.29,1.94c0,2.25,1.03,1.64,0,2.25
		c-1.03,0.59-2.2-0.16-2.93,1.19c-0.74,1.34-1.04-0.3-0.74,1.34c0.28,1.65,0.58,0.16,0.28,1.65c-0.28,1.49-1.76,0-1.16,1.64
		c0.58,1.63-2.8,1.93-2.8,1.93s-0.74,0.46-1.32,1.2c-0.59,0.75-0.74,0.75-1.32,1.64c-0.59,0.88-3.23,1.64-3.23,1.64
		c-0.74,1.49-1.76,2.39-0.89,2.39c0.89,0,1.04-1.5,1.77-0.61c0.73,0.9,0.3,0.3,0.73,1.64c0.44,1.35,0.44,0.15,0.44,1.35
		c-2.06,1.79-2.94,2.09-3.68,2.09c-0.74,0-2.21-0.6-2.64,0.15c0,0-1.04,1.78-0.89,2.69c0.14,0.89-2.36,1.63-2.8,1.79
		c-0.43,0.16-1.47-1.49-1.61,0.29c-0.15,1.79-1.61,1.35-0.15,1.79c1.48,0.45,1.77,0.3,2.51,0.61c0.73,0.31,1.32,1.05,0.73,1.79
		c-0.59,0.75-1.33,0.63-1.9,1.64c-1.04,1.79,0,2.69-1.18,2.84c-1.18,0.15,0.3-0.61-1.18,0.15c-1.47,0.74-2.05,0.3-2.05,0.3
		s-1.51-0.54-1.92,0c-1.18,1.49-2.36,2.23-2.06,3.42C470.1,172.15,470.24,171.85,470.54,173.34z"/>
	<path class="st0" d="M452.03,199.24c-0.89,0.32-2.66,2.4-2.96,3.3c-0.31,0.9-2.22,1.96-1.19,3.15c1.04,1.2,2.22,2.1,2.66,2.1
		c0.44,0,0.89,0.75,2.36,0.16c1.48-0.6,2.09-1.79,2.52-1.21c0.44,0.61,2.08,1.05,2.66,0.16c0.59-0.91,1.03-0.74,1.63-1.35
		c0.58-0.59,0.77-0.68,1.33-1.05c1.63-1.06,1.77-1.06,1.92-2.11C463.11,201.35,455.87,197.9,452.03,199.24z"/>
	<path class="st0" d="M371.41,507.58c1.33-1.39,2.4-2.42,2.54-4.45c0.05-0.89-0.75-1.3-0.01-1.91c0.1-0.08,0.33-0.13,0.64-0.15
		c0.92-0.06,2.5,0.1,2.91,0.16c2.25,0.29,3.08,0.2,5.09-0.4c1.8-0.53,3.66-0.39,5.59,0.16c2.41,0.69,3.19,0.9,5.72,0.42
		c2.29-0.45,3.61-1.24,5.71-2.14c1.69-0.74,4.3-1.31,6.18-1.66c0.07-0.01,0.13,0.02,0.2,0.01c0.85-0.13,1.67-0.02,2.48,0.15
		c0.92,0.19,1.85,0.38,2.8,0.4c0.29,0.01,0.58,0.03,0.88-0.01c0.04,0,0.08,0,0.12-0.01c2.27-0.4,3.63-1.66,5.94-1.24
		c0.14,0.02,0.25,0,0.4,0.03c0.26,0.07,0.57,0.11,0.85,0.17c1.6,0.34,3.37,0.59,4.91,1.04c0.86,0.25,1.87,0.4,2.83,0.48
		c-0.01-0.02-0.02-0.04-0.03-0.06c-0.17-0.39-0.45-0.8-0.68-1.2c-0.75-1.28-1.64-2.59-2.06-3.85c-0.57-1.77-0.86-4.28-1.1-6.58
		c-0.21-1.87-1.26-4.93-0.81-6.26c0.71-2.1,1.94-2.31,3.32-1.7c2.28,1,4.96,4.3,6.3,4.99c1.38,0.71,2.55,1.01,3.59,1.05
		c0.47,0.01,0.85-0.19,1.28-0.28c0.49-0.11,1.01-0.14,1.46-0.35c-0.12-1.08-0.59-1.46-1.11-2.66c-0.3-0.7-0.27-1.08-0.34-1.43
		c0,0-0.01-0.02-0.01-0.03c-0.04-0.16-0.09-0.32-0.23-0.5c-0.14-0.2-0.36-0.42-0.72-0.71c-0.66-0.53-1.8-0.88-2.46-1.34l0.01-0.01
		l-0.01,0c1-0.69,1.1-1.1,0.87-1.49c-0.05-0.09-0.15-0.18-0.23-0.27c-0.27-0.3-0.64-0.62-0.89-1.09c-0.54-0.98-0.88-2.58-1.26-3.66
		c-0.3-0.81-0.47-1.32-0.7-1.8c-0.01-0.02-0.04-0.05-0.05-0.08c-0.22-0.45-0.49-0.88-1.01-1.53c-0.53-0.68-0.76-1.1-1.23-1.61
		c-0.04-0.04-0.06-0.08-0.1-0.13c-0.3-0.3-0.63-0.39-0.93-0.53l0,0c-0.04-0.02-0.08-0.05-0.11-0.06c0.23-0.13,0.48-0.22,0.77-0.29
		c0.03,0.13,0.06,0.14,0.09,0.24c0.08,0.3,0.15,0.59,0.27,0.7c0.15,0.15,0.37,0.21,0.76,0.35c0-0.27,0-0.57,0.06-0.83
		c1.98-0.43,2.94-0.51,4.58-0.15c0.19,0.04,0.31,0.01,0.52,0.07c0.12,0.03,0.29,0.06,0.43,0.09c0.47,0.1,0.94,0.22,1.41,0.37
		c0.21,0.06,0.45,0.11,0.6,0.19c0.39,0.23,0.31,0.68,0.35,1.02c0.05,0.33,0.22,0.56,1.08,0.35c0-0.03-0.01-0.08-0.01-0.11
		c0.06-0.86-0.4-2.35-1.1-3.07c-0.24-0.24-0.52-0.39-0.81-0.39c0,0,0-0.01,0-0.02c-0.11-0.37-0.11-1.11,0-1.49
		c0.67,0.03,1.25-0.33,1.92-0.29c-0.47-0.2-0.96-0.4-1.45-0.6c0.49,0.2,0.98,0.39,1.45,0.59v0c0.53,0.22,1.04,0.44,1.45,0.65
		c1.69,0.92,4.74,3.47,6.82,3.2c0.83-0.11,3.43-1.83,4.99-3.21c-1.17-2.09-2.35-3.73-4.05-6.07c-0.92-1.26-1.96-2.69-2.48-4.14
		c-0.69-1.92-0.26-3.23-0.58-5.32c-0.51-3.21-4.68-4.58-5.19-6.86c1.29-0.61,2.15-3.33,2.89-4.62c0.8-1.37,1.23-4.39,2.43-5.23
		c1.12-0.8,3.95-0.21,5.3-0.88c1.45-0.7,3.51-2.35,4.61-3.59c-0.4-0.31-1.02-0.76-1.65-1.26c-0.13-0.1-0.24-0.21-0.37-0.31
		c-0.15-0.13-0.29-0.25-0.43-0.38c-0.15-0.14-0.27-0.28-0.4-0.41c-0.1-0.11-0.21-0.21-0.29-0.32c-0.12-0.15-0.19-0.3-0.27-0.45
		c-0.05-0.09-0.11-0.18-0.14-0.27c-0.05-0.16-0.03-0.3-0.02-0.44c0.01-0.06-0.02-0.14,0.01-0.2c0.06-0.15,0.23-0.28,0.41-0.4
		c0.06-0.04,0.07-0.09,0.14-0.12c0.29-0.15,0.69-0.27,1.23-0.36c0.02-1.41-0.85-2.11-1.73-3.24c-0.58-0.74-0.98-1.65-1.35-2.53
		c-0.32-0.75-0.61-1.47-0.98-1.94c-1.36-1.71-3.99-1.84-6.13-1.22c-0.35-0.89-0.57-2.21-1.16-2.97c-0.11-0.15-0.28-0.28-0.45-0.42
		c-0.1-0.09-0.19-0.17-0.3-0.26c-0.8-0.57-1.85-1.08-2.04-1.62c-0.19-0.56-0.18-1.02-0.04-1.44c0.4-1.26,1.87-2.14,1.88-4.02
		c0-1.21-0.9-1.98-0.9-2.99c-0.01-2.32,1.29-2.94,2.33-4.78c0.72-1.31-0.18-1.78,1.21-2.68c0.97-0.61,2.52-0.39,3.53,0.06
		c1.19,0.54,2.31,2.92,3.52,3.91c0.73,0.59,1.49,0.67,2.31-0.45c1.51-2.03-1.15-5.16,0.93-7.35c1.72-1.77,5.17-2.29,7.13-3.87
		c2.06-1.66,4.12-3.22,5.88-4.78c0.01-0.01,0.03-0.02,0.04-0.03c0.09-0.07,0.18-0.16,0.28-0.23c-0.3-0.12-0.62-0.18-0.93-0.13l0,0
		l-0.01,0c-0.01-0.47-0.33-0.9-0.84-1.3c-1.54-1.19-4.72-2.07-5.87-2.86c-0.55-0.37-0.92-0.48-1.5-0.76
		c-0.27-0.13-0.39-0.48-0.58-0.75c-0.08-0.11-0.13-0.25-0.28-0.28c-0.46-0.12-0.9,0.42-1.11,0.37c-1.19-0.28-2.09-0.3-2.76-1.01
		c-0.01-0.01-0.01-0.02-0.01-0.02c-0.22-0.24-0.41-0.53-0.58-0.93c-0.49,0.13-1.96,0.7-2.35,0.15c-0.62-0.89,0.96-1.5,0.8-2.6
		c-0.53-0.28-1.38-0.94-2.05-1.71c-0.1-0.12-0.15-0.24-0.25-0.36c-0.21-0.28-0.44-0.56-0.57-0.84c-0.19-0.4-0.26-0.8-0.18-1.15
		c0.44-1.83,3.47-0.87,3.34-3.55c1.47-0.56,2.72-0.72,4.16-1.2c0.89-0.29,1.53-0.44,2.15-0.36c0.62,0.08,1.21,0.4,2,1.06
		c0.89-1.07,4.07-0.85,4.04-3.12c0-0.35-0.15-0.63-0.36-0.88c-0.13-0.16-0.3-0.29-0.46-0.43c-0.63-0.55-1.36-1.05-1.17-2.01
		c0.36-0.19,0.6-0.24,0.8-0.21c0.35,0.05,0.51,0.38,0.76,0.67c0.16,0.18,0.34,0.35,0.63,0.41c1,0.23,2.23-0.13,3.08-0.03
		c0.99-1.84,1.74-0.8,3.1-0.86c1.48-0.05,2.22-0.66,3.71,0.02c0.01,0.27,0.09,0.57,0.09,0.84c0.88-0.03,1.67-0.22,2.56-0.17v0
		l0.01,0c0.08,0.2,0.15,0.4,0.21,0.6c0,0.01,0.01,0.02,0.01,0.03c0.78,0.55,1.63,0.89,2.49,1.17c0.34,0.1,0.66,0.26,0.98,0.39
		c0.68,0.29,1.32,0.66,1.8,1.36c0.02,0.02,0.05,0.02,0.06,0.05c0.1-0.17,0.64-0.39,0.8-0.33c-0.19-2.95,2.67-7.42-1.31-9.33l0.01,0
		l0,0c0.14,0.04,0.46,0.04,0.73,0.05c0.58,0.02,1.28,0.05,1.9,0.35c0.13-2.69,2.75-2.53,3.19-4.41c0.01-0.03-0.02-0.07-0.01-0.1
		c0.14-1.1-1.3-2.52-1.25-2.7c0.01-0.03,0.08-0.13,0.1-0.18c0.05-0.1,0.08-0.18,0.16-0.33l0,0l-0.01,0
		c-0.09-0.07-0.2-0.15-0.28-0.26c-1.46,1.63-2.94,0.94-4.6,0.86c-0.1-0.01-0.19-0.03-0.29-0.03c0.42-1.23,4.35,0.12,2.13-3.28
		c-0.77,0.51-1.77,0.98-2.74,0.61c-0.01-0.01-0.03,0-0.04,0c0.12-0.66,1.29-2.9,0.43-3.53c-0.95-0.66-1.58,2.1-1.97,2.66
		c-0.2,0.3-0.5,0.56-0.87,0.8c-0.04,0.02-0.1,0.04-0.14,0.07c-0.34,0.21-0.72,0.4-1.15,0.55c-0.95,0.35-2.03,0.58-2.96,0.66
		c-0.62,0.06-1.18,0.06-1.59-0.01c-0.8-0.14-1.34-0.42-1.86-0.74c-0.35-0.21-0.68-0.44-1.1-0.66c-0.43-0.23-0.93-0.38-1.44-0.53
		c-0.02-0.01-0.04-0.02-0.05-0.02c-0.48-0.15-0.97-0.32-1.38-0.6c-2.02-1.37-1.95-3.73-5.05-2.86l0-0.01l0,0
		c0.74-0.68,0.47-2.3-0.35-2.84l-0.01-0.01c-0.52-0.33-1.28,0.24-1.48,0.1c-0.59-0.35-0.68-0.78-1.34-1.29
		c-1.65-1.27-4.03-1.94-6.4-1.33c-1.12,0.3-1.91,1.11-3.08,1.34c-1.16,0.22-2,0.13-3.05,0.49c-0.47,0.17-0.36,0.9-1.15,1.02l-0.01,0
		l-0.01,0c-0.42,0.09-1.33-0.51-1.77-0.61c-1-0.27-1.89-0.54-3.03-0.49c0.05-1.87-1.59-4.03,0.23-5.29c1.68-1.17,2.82,0.31,4.2-1.78
		c0.39-0.59,0.61-1.01,0.68-1.31c0.22-0.89-0.85-0.71-2.45-1.03c-1.82-0.36-3.33-0.67-5.11-0.82c-0.22-0.02-0.41-0.06-0.65-0.07
		c-1.88-3.82,5.71-5.98,7.09-8.9c0.2-0.42,0.27-0.85,0.16-1.3c-0.23-1.05-1.4-1.84-1.82-2.92c-0.29-0.75-0.69-2.67-0.8-3.41
		c-0.18-1.3,0.26-2.22-0.68-3.19c-0.59-0.62-2.49-0.76-3.29-1.1l0.01-0.01l-0.01-0.01c1.07-1.33,2.32-1.98,2.83-3.77
		c0.61-2.15,0.23-3.08,2.27-4.43c1.94-1.27,2.76-1.21,4.57-0.27c1.21,0.62,3.01,1.05,4.16,1.84c0.11,1.59-0.01,2.78,0.92,4.14
		c-0.22-0.04-0.38-0.09-0.58-0.11c-0.03,0-0.06-0.01-0.09-0.02c-0.24,1.41-1.17,3.21-1.04,4.78c0.05,0.52,0.21,1.02,0.56,1.46
		c0.81,1.06,3.45,2.75,4.95,3.05c0.2,0.04,0.45,0.14,0.6,0.12c0.25,0.56,0.56,1.13,0.99,1.52c0.42,0.39,0.96,0.6,1.64,0.42
		c0.18-4.01,1.16-4.06,4.45-5.35c1.15-0.44,2.35-1.24,3.52-1.56c1.53-0.4,2.48,0.28,3.95,0.18c0.15-1.61,2.12-1.08,2.27-2.85
		c0.86-0.17,1.81-0.07,2.62-0.24c-0.23-0.13-0.42-0.29-0.63-0.43c-0.21-0.14-0.43-0.27-0.62-0.42c-0.3-0.24-0.53-0.5-0.77-0.77
		c-0.17-0.19-0.36-0.36-0.49-0.57c-0.18-0.27-0.27-0.57-0.38-0.87c-0.09-0.24-0.22-0.46-0.26-0.71c-0.06-0.36,0.02-0.76,0.08-1.16
		c0.03-0.21-0.02-0.4,0.04-0.62c1.76-0.8,5.66-2.83,8.02-2.41c0.79,0.14,1.4,0.55,1.72,1.37c0.54,0.13,1.2,0.15,1.85,0.18
		c2.91,0.11,6.6-0.65,8.66-1.11c3.01-0.67,5.94-3.23,8.82-3.93c6.4-1.57,16.3,2.61,19.74-4.56c1.5-3.11,0.93-6.71,0.47-9.76
		c-0.59-3.89-0.3-6.07,0.99-9.85c1.18-3.44,0.26-6.11,0.98-9.39c0.09-0.43,1.8-4.09,1.96-4.17c0.43-0.24,0.84-0.3,1.22-0.27
		c1.16,0.09,2.11,1.03,2.86,0.86c3.17-0.74,4.34-3.89,6.66-6.3c3.01-3.15,5.21-2.63,8.74-4.09c-0.19-3.76,10.41-11.26,14.13-10.73
		c0.2-3,2.94-4.56,4.96-6.2c-0.1-1.5-0.48-1.47,1.2-2.31c0.02,0.05,0.09-1.29,0-1.21c-1.56-0.48-2.92-1.14-4.6-1.35
		c-0.2-0.02-0.35-0.11-0.56-0.12c-0.85-2.21,0.23-4.13,0.35-6.09c0.04-0.66-0.03-1.31-0.31-1.99c-1.26-3-3.13-1.88-6.23-2.66l0-0.01
		h-0.01c-0.07-1.57,0.6-2.85,2.1-3.59c-0.7-1.46-0.33-2.59,0.71-3.15l0.01,0.01l0-0.01c-0.26-0.24-0.92-0.86-1.11-1.12
		c-0.22-0.34-1.77-0.12-2.21-0.46c-0.44-0.32-2.42-0.88-2.75-1.22c-0.32-0.34-1.87,0.11-2.21-0.23c-0.31-0.33-1.99-0.79-2.42-1.12
		c-0.44-0.34-1.45,0.46-1.77,0c-0.33-0.44-8.82-1.22-9.48-1.22c-0.67,0-3.2,0.1-3.2,0.1l-5.18-2.46c0,0-1.21-1.01-1.54-1.46
		c-0.34-0.44-1.99-2.35-2.22-2.8c-0.21-0.44-2.97-0.44-3.41-0.67c-0.44-0.23-1.21,0.33-1.54,0.23c-0.34-0.12-1.33,1.13-1.45,1.55
		c-0.1,0.47,0.12,2.14,0.12,2.7c0,0.55,0.12,0.9,0.12,0.9s0.66,0.66,1.32,0.55c0.66-0.11,0.77,0.67,1.76,1.01
		c0.98,0.34,1.65,1.01,2.55,0.89c0.88-0.1,1.1,1.23,1.42,1.36c0.34,0.11,1.21,1.34,2.21,1.45c1,0.12,0.88,1.56,1.32,1.34
		c0.44-0.22,0.24,0.67,0.34,1.23c0.11,0.55,0.45,1.34,1.1,1.56c0.67,0.24,1.54,1.69,1.54,2.58c0,0-0.43,0.45-0.55,1.01
		c-0.1,0.56-0.88,1.35-0.88,1.35s-2.33,1.11-2.77,0.77c-0.43-0.33-0.98,1.24-0.98,1.24l0.1,1.13l-0.99,1.11l-0.77,0.9
		c0,0-2.1-0.34-2.32-0.79c-0.23-0.44-0.76-1-0.76-1s0.11-1.9,0.43-2.91c0.33-1.01-0.76-2.01-0.76-2.01s0,0-2.32-0.79
		c-0.38-0.13-1.66,0.45-2.77,0.33c-1.1-0.11-1.21,0.55-1.21,0.55s-2.21,1.24-2.53,1.68c-0.33,0.45-1.77,1.24-1.77,1.24l-2.53,1.34
		l-3.21-1.01l-3.19,0.34h-1.32l-2.51,0.5c0,0-5.95,2.49-6.27,2.6c-0.3,0.11-4.01,0.74-4.62,0.43c-0.61-0.32-2.67,0.11-3.49-0.32
		c-0.83-0.41,1.13-0.62,1.54-0.74c0.41-0.1,1.55-1.15,1.74-2.19c0.21-1.04-0.09-2.18-0.09-2.18l2.78-2.82c0-0.52-4.32,0.3-4.32,0.3
		s-1.75,1.04-2.07,1.16c-0.3,0.1-2.35,1.14-2.78,1.14c-0.41,0-1.02,1.98-1.02,1.98s-1.65,2.09-2.37,2.4
		c-0.72,0.32-0.41-1.25-0.72-1.66c-0.31-0.43-1.55,0-1.74-0.75c-0.22-0.73-1.45,0.42-1.45,0.42s-2.46,1.14-2.87,1.26
		c-0.42,0.09-2.78,0-2.78,0s-1.95,0.72-2.26,1.04c-0.31,0.31-2.27,1.78-2.67,2.19c-0.41,0.42-3.91,2.4-4.22,2.4
		c-0.31,0,1.24,0.31,1.24,0.31s-7.41,2.51-9.26,2.82c-1.85,0.31-1.65,0.94-1.95,1.35c-0.31,0.42-0.52,3.76-0.62,3.55
		c-0.11-0.2-1.33,0.94-1.76,1.46c-0.41,0.53-1.01,0.83-1.01,0.83l-7.01,1.7c0,0-2.15,0.4-2.57,0.09c-0.41-0.31-2.27-2.72-2.36-3.65
		c-0.11-0.94-0.62-0.31-2.06-0.52c-1.45-0.22-1.75-1.05-2.17-1.47c-0.4-0.41,0.52-0.93,0.72-1.87c0.21-0.94,0.93-0.74,1.24-1.36
		c0.3-0.63,0.92-0.73,1.95-1.47c1.03-0.71,1.85,0,1.85,0l3.3-0.41c0,0,2.05-0.11,2.56-0.53c0.52-0.42-0.61-0.21-0.51-1.45
		c0.09-1.26-3.29-3.56-3.5-4.16c-0.2-0.64-2.36-1.37-2.67-1.78c-0.31-0.43-1.65,0-2.47-0.43c-0.82-0.41-2.27,0.32-2.78,0
		c-0.51-0.32-2.15-0.1-3.39-0.21c-1.23-0.1-2.26,0.1-3.09,0.42c-0.83,0.31-3.7-0.62-3.7-0.62s0.42,1.46,1.34,1.35
		c0.92-0.1,1.64,0.73,1.95,0.73c0.31,0,1.23,1.36,1.54,1.87c0.31,0.54,0.21,0.96,0.11,1.25c-0.11,0.33,0,1.06,0.1,1.58
		c0.1,0.52,0,1.04,0.21,1.36c0.2,0.32-0.31,1.25-0.21,1.98c0.1,0.73-1.11,2.61-1.75,3.44c-0.62,0.83-0.93,1.87-0.82,2.19
		c0.09,0.31,1.13,0.54,1.95,0.73c0.82,0.21,1.03,0.42,1.43,0.83c0.41,0.41,0.73,1.57,0.83,2.2c0.09,0.62-0.53,2.19-0.83,3.13
		c-0.31,0.94-0.31,0.73-0.61,1.25c-0.31,0.52-0.21,1.78-0.51,2.82c-0.31,1.04-0.42,2.93-0.63,2.09c-0.2-0.84-0.5-0.32-1.03-0.73
		c-0.52-0.42-0.82-0.95-1.12-1.79c-0.31-0.83-1.35-0.41-1.65-1.03c-0.31-0.62-1.65-0.32-2.48-0.62c-0.82-0.33-2.37-0.42-3.09-0.85
		c-0.71-0.41-2.35,0.11-2.35,0.11s-4.12,4.08-4.94,4.48c-0.83,0.43-1.54,0.73-3.07,1.26c-1.55,0.52-1.65,1.04-1.96,1.25
		c-0.31,0.21-2.79,1.78-3.09,1.88c-0.3,0.11-2.87,1.68-2.57,4.18c0.31,2.51,1.54,1.26,2.27,1.67c0.71,0.42,2.46,4.48,2.46,4.48
		s-1.02,0.43-3.09,0.63c-2.05,0.21-1.64,0.32-2.67,0.11c-1.02-0.21-1.96,0.21-2.35-0.21c-0.42-0.41-2.27-0.62-2.78-0.73
		c-0.51-0.09-2.56,0.52-2.88,0.32c-0.31-0.21-2.06-0.21-2.37-0.53c-0.31-0.31-2.36-2.5-2.68-3.12c-0.3-0.62-3.18-1.99-3.18-1.99
		s-1.65,0.94-1.95,1.15c-0.31,0.21-1.74,1.77-2.06,1.98c-0.31,0.21,0,1.25,0.41,1.67c0.42,0.43,0.82,1.57,1.02,2.19
		c0.21,0.62,1.34,1.88,1.75,2.41c0.42,0.52,2.36,0.61,2.98,0.52c0.62-0.12,2.88,1.25,3.09,1.56c0.2,0.3-0.3,0.73-0.72,1.04
		c-0.42,0.31-1.24,1.14-1.84,1.56c-0.63,0.42-1.24,0.22-1.86,0.22c-0.62,0-1.75,0.41-2.78,0c-1.03-0.43-1.34-0.84-1.44-1.25
		c-0.11-0.42-2.16-0.74-2.67-1.26c-0.52-0.53-1.24-1.05-2.57-1.78c-1.34-0.73-0.71-0.09-1.86-0.41c-1.13-0.32-2.67-0.42-3.29-0.52
		c-0.61-0.11-1.02-0.42-0.92-1.25c0.1-0.83,0.62-1.05,0.62-1.46c0-0.41-0.42-2.08-0.81-2.82c-0.42-0.73-1.15-1.98-1.56-2.5
		c-0.4-0.52-0.62-1.99,0.11-3.24c0,0,1.12-1.67,1.33-2.5c0.21-0.84,0.32-1.47,0.21-2.51c-0.09-1.04-0.81-0.83-2.16-1.37
		c-1.34-0.51-0.51-0.3-1.23-0.82c-0.72-0.51-1.25-0.31-2.58-0.95c-1.34-0.62-1.23-0.21-1.86-1.24c-0.61-1.06-0.81-1.25-1.43-1.89
		c-0.61-0.63-0.72-0.73-1.04-1.25c-0.3-0.53-0.92-0.32-1.74-0.63c-0.83-0.32-1.55-1.46-1.86-1.78c-0.3-0.3-1.23-2.28-1.23-2.28
		l-1.85-1.26c0,0,0.51,0,1.85-0.11c1.34-0.11,0.72,0.42,1.43,0.63c0.72,0.21,0.63,1.03,1.45,1.56c0.83,0.52,0.72,0.61,1.86,1.57
		c1.13,0.94,1.53,0.52,2.47,0.73c0.93,0.22,1.24,0.22,1.64,0.42c0.41,0.2,1.44,0.32,2.06,0.52c0.62,0.21,2.27,0.63,3.08,0.63
		c0.83,0,2.16,1.45,2.98,2c0.83,0.5,1.96,0.2,3.8,1.01c1.86,0.84,4.23,0.13,4.53,0.22c0.31,0.1,2.68,0.1,4.11,0.74
		c1.45,0.62,2.48,0.62,3.6,1.04c1.12,0.43,7.09,0.51,7.6,0.1c0.52-0.42,1.96-0.21,3.91-0.73c1.95-0.52,1.85-0.41,1.85-0.41
		l1.13-0.21c0,0,2.37-1.05,3.29-1.46c0.94-0.41,2.37-1.37,3.39-2.72c1.04-1.36,1.25-1.46,2.07-2.4c0.82-0.93,1.03-1.57,1.03-2.49
		c0-0.95-0.22-1.36-0.51-2.3c-0.31-0.95-0.93-1.16-1.13-2.29c-0.21-1.15-0.71-0.95-1.54-1.89c-0.82-0.94-1.65-0.94-2.67-2.51
		c-1.03-1.56-1.74-1.04-2.48-2.1c-0.71-1.03-0.93-0.61-1.95-0.82c-1.03-0.21-1.65-0.31-2.36-0.43c-0.72-0.09-2.37-1.03-2.67-1.14
		c-0.31-0.11-2.98-1.88-4.42-3.33c-1.44-1.47-2.57-0.21-3.08-1.05c-0.52-0.83-1.34-1.05-1.95-2.09c-0.62-1.05-2.88-0.52-3.4-0.94
		c-0.51-0.42-1.43-0.94-1.96-1.05c-0.5-0.09-2.36-0.52-2.67-0.84c-0.31-0.3-1.12-1.04-1.33-1.66c-0.19-0.63-1.74-0.63-2.16-0.83
		c-0.4-0.22-2.27,0.3-2.57,0.41c-0.31,0.11-3.72,0.32-4.02-0.21c-0.31-0.52-1.03-0.52-1.23-0.93c-0.21-0.42-2.07-0.74-2.07-0.74
		l-1.34,0.21c0,0-1.33,0.82-1.64,0.74c-0.31-0.12-1.64,0.41-1.86,0c-0.2-0.44-0.3-1.46-0.4-1.78c-0.11-0.32-1.75,1.04-2.06,0.95
		c-0.31-0.12-1.55,0.19-1.96-0.43c-0.42-0.62-1.95-0.42-2.36-1.46c-0.42-1.04,0.82-0.83,1.12-0.83c0.31,0,2.78-0.62,2.37-1.25
		c-0.4-0.62-0.72-1.14-0.92-1.47c-0.22-0.31-4.53-0.64-4.53-0.64s-1.24,1.05-1.34,0.52c-0.1-0.52-1.85-0.31-1.85-0.31l-1.44,1.56
		c0,0-1,0.34-1.55,0.36c-0.13,0.01-0.25,0-0.29-0.03c-0.33-0.22-2.69-0.62-2.69-0.62s-0.93,0.62-2.57,0.92
		c-1.65,0.32-1.45-0.52-1.45-0.52s-1.84-0.52-2.14-0.73c-0.31-0.2-2.67-2.08-2.67-2.08c-0.1-0.42,1.13-0.83,1.54-1.15
		c0.4-0.31,1.34,0.83,2.05,0.94c0.71,0.11,1.86-0.62,3.7-2.09c1.84-1.46,1.65-0.95,2.89-1.88c1.22-0.95,0.1-1.04,0.1-1.04
		s0-2.1-0.21-2.83c-0.21-0.73-2.89-0.09-3.19-0.83c-0.32-0.73-2.58-0.73-3.19-1.47c-0.62-0.74-2.27,0.32-2.78,0
		c-0.51-0.3-3.18-0.41-3.49-0.62c-0.31-0.2-1.24,0.43-1.44,0.43c-0.21,0-2.17,4.27-2.48,4.78c-0.3,0.54-1.02,0.32-1.02,0.32
		s-0.72-1.78-0.72-2.61c0-0.83,0.31-1.36,0.72-1.98c0.41-0.62,1.22-0.83,1.85-1.15c0.62-0.31,0.5-0.53,0.11-1.47
		c-0.42-0.93-1.15-0.62-2.17-1.04c-1.03-0.42-2.77,0.31-3.49,0.62c-0.72,0.33-1.64,0.41-1.64,1.68c0,0.44-0.73,3.44-0.73,3.44
		s-1.44,1.35-1.75,1.26c-0.31-0.11-1.64,0.82-2.15,0.51c-0.51-0.31-0.42-0.62-0.11-1.15c0.32-0.51,0.2-3.85-0.31-4.16
		c-0.51-0.32-1.03,0.73-1.33,1.35c-0.31,0.63-1.55,2.08-1.75,2.73c-0.21,0.61-2.67,2.7-3.18,2.81c-0.53,0.09-2.27,1.46-3.71,0.73
		c-0.37-0.2-0.3-0.42,0.62-1.77c0.93-1.36,2.07-3.03,3.5-3.97c1.44-0.93,1.74-3.44,1.74-3.44s-2.05,1.46-3.29,1.25
		c-1.22-0.2-2.97,0.54-2.97,0.54s-0.62,1.24-0.52,1.96c0.1,0.74-2.16,1.69-2.67,1.99c-0.52,0.32-1.55,0.42-2.05,0.32
		c-0.52-0.1-1.03,1.25-1.33,1.78c-0.32,0.51-2.58,0.93-2.58,0.93s-1.65,0.84-2.04,1.04c-0.43,0.21-0.74,0.63-1.04,0.53
		c-0.32-0.09-2.38,1.16-3.19,0.94c-0.83-0.21-1.86-0.83-2.27-1.35c-0.4-0.53-1.95,0.1-2.35-0.11c-0.41-0.2,0,0,0.21,0.84
		c0.19,0.84,0.71,1.25,0.82,1.35c0.1,0.11-1.55,1.35-2.06,1.35c-0.52,0-1.45,0.22-1.54-0.3c-0.1-0.53-2.06-0.53-2.58-0.42
		c-0.51,0.11,0,0.84-0.1,1.57c-0.09,0.74-5.03,2.81-5.03,2.81s-1.44,0.64-2.77,0.64c-0.34,0-1.04-0.84-1.14-1.56
		c-0.09-0.73-1.74-1.25-1.85-1.58c-0.11-0.31-1.65,0.74-1.96,1.05c-0.31,0.31-0.31,1.26-0.31,1.26s0.1,2.3,0.1,2.19
		c0-0.11-1.95,1.14-2.37,1.14c-0.4,0-1.63,0.62-1.95,0.52c-0.31-0.11-1.34-0.32-1.34-1.67c0-1.36-1.85-1.46-2.06-2.1
		c-0.2-0.62-2.57,1.88-2.78,2.61c-0.2,0.73,0.52,2.3,1.02,2.72c0.53,0.42,0.94,1.25,0.53,1.36c-0.4,0.09-1.43,0.62-1.64,0.3
		c-0.21-0.3-2.67-0.63-2.67-0.21c0,0.37,0.52,1.02,0.66,1.07c-0.09,0.18-0.35,0.91-0.35,0.91l-1.15,1.26c0,0-1.75,0.62-1.95,0.09
		c-0.2-0.52-0.81-1.25-0.92-1.77c-0.1-0.53-1.24,0.84-1.96,1.25c-0.71,0.43-1.23,0-0.92-0.84c0.31-0.83,0.51-3.65-0.2-3.65
		c-0.73,0-2.16,1.46-2.37,1.98c-0.2,0.53-0.93,2.29-1.13,2.83c-0.21,0.51-1.85,2.08-2.48,2.6c-0.61,0.52-1.42,2.81-1.42,2.81
		c0.61-0.52,1.02-0.62,2.05-0.82c1.02-0.22,0.61,1.03,1.33,0.82c0.72-0.19,1.13,0.32,2.16-0.62c1.03-0.94,0.93,0,1.75-0.52
		c0.82-0.52,0.82,0.21,2.16,0.1c1.34-0.1,0.61,1.14,0.93,1.98c0.31,0.85-1.04,1.99-1.04,1.99s-1.53,0.4-1.53-0.53
		c0-0.93-0.83-1.14-1.24-1.36c-0.41-0.22-1.65,1.57-1.65,1.57s-1.34,0.21-1.44-0.42c-0.1-0.63-1.44,1.24-1.75,1.13
		c-0.32-0.09-0.32,0.44-0.2,1.37c0.09,0.94-0.52,1.15-0.72,1.15c-0.21,0-1.24,1.04-1.64,0.84c-0.41-0.21-1.44,1.14-1.44,2.3
		c0,1.13,0.2,0.93,0.51,1.13c0.31,0.22-1.75,2.3-2.26,2.41c-0.52,0.11-1.65,1.67-2.06,2.08c-0.41,0.43-0.41,1.16-0.41,1.16
		s-5.04,4.7-4.85,6.05c0.21,1.35,0.12,1.35,0.51,1.46c0.42,0.1-1.33,0.94-2.47,0.83c-1.12-0.1-1.53-0.1-2.26-0.1
		c-0.71,0-1.01,1.26-1.23,2.41c-0.09,0.52,2.57,0.63,1.96,1.05c-0.62,0.41-0.83,0.62-1.24,1.04c-0.42,0.42-0.72,0.82-0.72,1.46
		c0,0.63-0.1,1.88-0.1,1.88l-0.62,1.68l-1.54,0.93c0,0-1.03,0.42-1.44,0.21c-0.4-0.21-0.19,1.05-0.19,1.05s-0.63,1.88-0.72,2.52
		c-0.12,0.61-0.83,1.34-0.83,1.34s-0.82,0.94-1.13,1.15c-0.3,0.21-1.43,0.83-1.74,0.3c-0.31-0.52-0.92-0.09-1.23-0.2
		c-0.31-0.1-1.35,1.15-1.35,1.15s-1.02,1.57-1.11,1.89c-0.11,0.31-2.37,1.97-2.79,2.08c-0.41,0.09-1.75,1.04-2.05,1.04
		c-0.31,0-1.02,1.78-1.14,2.51c-0.09,0.72-1.23,1.98-1.23,1.98l-1.85,1.67c0,0-1.45,0.84-1.56,0.42c-0.09-0.42,0.32-1.25,0.73-2.08
		c0.41-0.83-1.12-0.2-1.54-0.73c-0.41-0.54-1.13,0.62-1.54,1.35c-0.42,0.74-0.21,1.77-0.62,2.62c-0.41,0.83-0.82,1.35-1.03,1.97
		c-0.2,0.63-2.97,0.31-3.7,0.41c-0.72,0.1-1.84,0.22-2.37,0.1c-0.52-0.1-1.23,0.52-1.53,1.16c-0.32,0.61-0.32,1.57-0.32,1.57
		s-0.82,1.05-1.13,1.14c-0.31,0.11-1.65,0.11-2.17-0.2c-0.52-0.31-0.92,0.41-1.13,0.73c-0.21,0.31-0.3,0.93-0.3,0.93l-2.16,1.77
		c0,0-2.27,1.36-3.09,1.89c-0.82,0.51-1.84,1.04-2.14,1.14c-0.32,0.1-0.94,1.36-1.03,1.89c-0.1,0.52-0.62,1.56-0.72,2.18
		c-0.1,0.64-0.62,2.61-0.32,3.15c0.32,0.51,1.04,1.25,1.45,1.14c0.41-0.09,0.31,1.25,0.31,1.68c0,0.42-0.52,1.45-0.92,2.29
		c-0.41,0.83-0.83,2.92-1.24,3.86c-0.41,0.95,0.72,2.2,1.24,2.4c0.52,0.22,2.67,0.32,2.67,0.32s1.24,1.05,1.44,1.88
		c0.35,1.41-0.62,0.73-1.34,2.41c-0.71,1.67-0.6,2.08-1.33,3.02c-0.71,0.94-0.83,2.3-0.2,2.52c0.61,0.2,0.5,0.3,1.02-0.12
		c0.5-0.41,1.12-0.41,2.15-1.14c1.03-0.73,1.55-0.09,1.85,0.32c0.31,0.41-0.2,1.67-0.52,2.19c-0.3,0.52-1.64,1.78-2.46,2.6
		c-0.82,0.83-0.32,1.05-0.32,2.31c0,1.25,1.34,1.46,2.48,1.66c1.12,0.2,1.43,0.74,2.05,1.36c0.62,0.62,1.43,0.73,3.08,1.46
		c1.65,0.72,3.09,1.05,4.73,1.25c1.65,0.21,6.38-2.4,6.38-2.4s1.65-1.25,1.95-1.57c0.32-0.3,0.93-0.82,2.58-1.87
		c1.64-1.05,1.33-0.73,1.95-1.46c0.62-0.74,1.02-0.64,1.86-0.95c0.81-0.3,1.54-0.83,2.76-1.13c1.24-0.32,1.75-2.1,1.65-2.63
		c-0.11-0.52,0.83-5,1.54-4.88c0.72,0.07-0.09,1.55-0.2,2.59c-0.1,1.05,0.41,1.14,0.82,1.99c0.4,0.83,1.45,0.72,2.26,1.04
		c0.81,0.31,0.81,0.83,1.23,2.08c0.07,0.18,0.1,0.35,0.12,0.5c0.09,0.78-0.45,0.89-0.62,1.69c-0.2,0.94,0.21,1.46,0.31,2.61
		c0.1,1.14,1.24,1.04,1.95,1.44c0.73,0.42,1.75,0.95,1.96,1.48c0.21,0.52-0.31,2.51,0.3,3.96c0.62,1.45,0.42,3.03,0.72,4.28
		c0.31,1.25,1.34,1.37,2.58,2.09c1.22,0.74,1.22,2.09,1.84,3.13c0.63,1.05,1.24,1.05,1.24,1.88c0,0.84-0.1,1.04-0.3,1.88
		c-0.21,0.84-1.24,1.67-1.66,2.2c-0.39,0.52,0.21,1.46,0.53,2.08c0.31,0.63,1.14,1.25,1.33,1.67c0.21,0.42,0.62,1.15,0.62,1.47
		c0,0.31,1.03,1.98,1.34,2.4c0.3,0.41,2.67-0.62,2.67-0.62s3.6,0,3.9,0c0.3,0,1.34-0.53,1.54-1.99c0.21-1.45-0.3-1.88-0.3-2.51
		c0-0.63,2.27-0.3,2.88-1.45c0.63-1.14,1.02-0.11,1.54-0.43c0.51-0.31,1.34,0.11,1.86,0c0.52-0.09,2.37,0.43,2.68,0.32
		c0.3-0.11,1.43,0.11,1.75-0.84c0.31-0.94,0.82-0.94,1.03-1.87c0.21-0.94,1.75-1.16,1.75-1.16c-0.11,0.31,0.2,2.93,0.2,2.93
		s1.34-1.45,1.65-3.04c0.3-1.56,0.92-1.35,1.13-2.08c0.2-0.73,0.83-5.01,0.83-5.01c-0.31,0.11-0.31,0.53-0.73,0.95
		c-0.42,0.41-0.83,1.57-1.13,1.77c-0.31,0.21-1.13,1.05-1.13,1.05c0-0.53,0,0,0.19-0.85c0.22-0.84,0.22-0.62,0.43-1.25
		c0.21-0.63,0.31-0.42,0.31-1.15c0-0.73,0-1.25,0.2-1.89c0.19-0.62,0.19-0.93,0.19-1.25c0-0.31,0.11-1.26,0.21-1.76
		c0.1-0.53,0.3-0.84,0.3-1.78c0-0.94-0.09-1.86-0.2-3.65c-0.1-1.77,0.2-0.42,0.62-1.67c0.41-1.24,0.73-1.15,1.14-1.98
		c0.41-0.85,1.24-0.33,1.24-0.33s1.12-0.31,1.95-0.72c0.81-0.42,1.94-0.21,1.94-0.21s0.84-0.83,1.14-1.15
		c0.3-0.3,0.51-0.21,1.13-0.42c0.6-0.21,1.44-0.62,1.74-1.05c0.31-0.42,1.45-1.25,1.55-1.56c0.11-0.31,0.51-0.83,0.31-1.47
		c-0.19-0.62-0.31-0.52-0.41-0.93c-0.12-0.41,0.31-0.63,0.41-1.25c0.1-0.62,1.03-0.52,1.75-1.35c0.71-0.82,0.4-0.52,0.5-1.68
		c0.1-1.14,0,0-0.72-1.65c-0.19-0.44-0.62-1.05-0.92-1.67c-0.3-0.64-1.03-0.11-1.54-0.41c-0.51-0.32-0.62-0.63-2.99-2.72
		c-2.37-2.1-1.44-0.22-2.15-1.05c-0.72-0.84-1.15-0.32-1.96-0.73c-0.82-0.42-1.03-0.2-1.34-0.42c-0.3-0.2,0,0,0.31-1.45
		c0.31-1.47,0.1-1.57-0.11-2.91c-0.2-1.37-0.6-1.99-0.5-2.94c0.09-0.93,0.3-1.05,0.4-1.56c0.1-0.52,0.83,0,1.24-0.73
		c0.4-0.73,0-0.83-0.21-1.88c-0.2-1.04-0.1-0.52,0.31-1.23c0.41-0.73,0.51-0.33,0.92-1.47c0.41-1.14,0,0-0.3-1.87
		c-0.08-0.52-0.93-0.31-0.72-1.46c0.21-1.15,0.4-0.53,1.02-0.64c0.62-0.09,1.12,0.54,1.65,0.2c0.52-0.29,1.03-0.62,1.24-1.34
		c0.2-0.73-0.41-1.04-0.32-1.35c0.11-0.31,0-1.16-0.4-2.19c-0.41-1.05,0.72,0.11,1.13,0.11c0.41,0,1.03,0.52,1.55,0.3
		c0.52-0.2,1.85-1.77,2.36-2.4c0.51-0.62,2.06-0.62,2.89-1.14c0.83-0.54,1.55-1.05,3.19-1.99c1.64-0.94,1.44-0.42,2.16-1.04
		c0.71-0.63,0.92-0.84,1.54-1.25c0.62-0.42,1.43,0.2,2.27-0.42c0.83-0.64,0.83-0.52,1.43-1.25c0.62-0.73,1.03-1.16,2.05-2.19
		c1.03-1.06,1.34-1.26,2.16-2.09c0.83-0.85,0.21-0.63,0.51-1.15c0.32-0.53,0.72-1.05,0.83-1.89c0.11-0.83-0.61-0.21-1.33-1.36
		c-0.72-1.15-1.02-1.05-0.93-2.09c0.1-1.04,0.51-0.83,1.44-2.18c0.94-1.36,0.53-0.52,1.13-1.77c0.62-1.25,0.93-1.25,1.55-1.57
		c0.62-0.33,0.81-0.21,1.74-1.05c0.93-0.83,1.24-0.83,1.75-1.46c0.51-0.63,0.51-1.05,1.33-1.77c0.83-0.74,0.83-0.11,1.34-0.42
		c0.51-0.32,1.33,0.31,1.84,0.22c0.52-0.12,0.93,0.3,1.65,0c0.72-0.32,0.52,0.21,1.24,0c0.71-0.22,0.51,0.72,1.75,0.41
		c1.22-0.31,1.02,1.57,1.64,1.25c0.35-0.18,0.54-0.33,0.85-0.55c0.23-0.17,0.52-0.38,1-0.7c1.13-0.73,1.43,0.53,2.26,0.73
		c0.82,0.22,1.53,0.63,2.47,1.16c0.94,0.52,0.21,1.78,0.62,2.08c0.41,0.31,0.93,2.51,1.03,2.3c0.11-0.21-0.21,3.03-0.1,3.33
		c0.1,0.31-1.95-1.04-1.95-1.04s-1.55,0.73-1.44,0.32c0.09-0.44-0.62,2.29-0.72,2.6c-0.11,0.3-1.54,1.04-2.58,1.66
		c-1.02,0.63-0.81,0.95-1.13,1.36c-0.31,0.43-1.24,1.78-1.24,1.78s-2.16,1.77-2.46,2.08c-0.31,0.32-0.72,0.63-1.85,1.68
		c-1.15,1.05-1.96,0.93-1.96,0.93s-2.46,1.06-2.46,1.68c0,0.63-0.11,1.15-0.11,1.67c0,0.53-1.66,1.26-2.37,1.56
		c-0.71,0.33-2.57,0.74-3.19,0.53c-0.61-0.21-0.93,0.63-1.23,1.14c-0.32,0.52-1.13,1.67-1.95,2.51c-0.83,0.83-0.53,1.04-0.72,1.57
		c-0.21,0.52-0.83,1.87-0.63,3.13c0.21,1.25,0.93,2.71,1.24,3.13c0.31,0.42,1.64,2.92,2.47,3.03c0.82,0.09,0.63,2.92,0.63,2.92
		s-2.68,6.87-1.45,8.97c1.24,2.08,0.72,0.73,1.13,1.35c0.41,0.63,1.64,0.84,2.27,1.15c0.61,0.31,2.14,0.2,2.97,0.2
		c0.83,0,1.34,0.75,2.37,0.95c1.02,0.2,0.92,1.04,1.64,2.39c0.71,1.36,1.24,0.53,1.65,1.15c0.4,0.63,3.38,1.15,4.21,0.54
		c0.82-0.62,1.34-0.43,2.06-0.84c0.72-0.42,0.41,0.22,1.23-0.63c0.83-0.83,0.62-0.31,1.34-0.41c0.72-0.11,1.43,0.1,2.78-0.84
		c1.33-0.94,1.33-1.25,1.85-1.66c0.51-0.43,1.43,0,2.67-0.11c1.23-0.1,1.34,0.22,1.85-0.2c0.51-0.42,1.03-0.33,3.28-1.47
		c2.27-1.14,1.45,0.31,2.07,0.31c0.61,0,1.85,0.54,4,0.83c0,0,1.23-0.3,2.78-1.14c0.75-0.39,0.93-0.48,1.12-0.5
		c0.17-0.02,0.35,0.04,1.15-0.13c1.54-0.3,1.13,0.42,1.75,0.85c0.61,0.41,0.4,0.83,1.03,1.76c0.62,0.94,1.03,1.05,1.85,1.36
		c0.82,0.32,2.05,0.52,2.47,0.32c0.41-0.22,2.26,0.1,2.88-0.22c0.62-0.31,2.05,1.46,1.64,1.37c-0.41-0.12-1.74,0.51-2.47,0.41
		c-0.72-0.1-1.54,0.52-2.05,0.11c-0.51-0.42-1.34,0.41-1.75,0.22c-0.42-0.22-2.48,1.24-2.89,1.14c-0.41-0.11-1.75,1.05-2.05,0.94
		c-0.31-0.12-1.74,1.56-1.74,1.56s-0.04,0.03-0.08,0.06c-0.29,0.24-1.31,1.05-1.58,0.89c-0.31-0.22-1.64,0.62-1.95,0
		c-0.31-0.64-1.95,0.52-2.36-0.43c-0.42-0.93-2.26-0.21-2.67-0.62c-0.42-0.41-1.65,0.42-2.57-0.21c-0.93-0.62-1.45-0.2-1.75-0.42
		c-0.31-0.21-2.17,0.42-2.56,0.21c-0.43-0.21-1.03,0.62-1.35,0.73c-0.3,0.09-1.23,0.51-1.64,0c-0.41-0.53-3.7,0.94-3.7,0.94
		s-2.78,0.41-3.59,0.3c-0.83-0.11-0.93,0.95-1.65,1.99c-0.72,1.04-1.75,0.94-2.99,1.98c-1.23,1.04,0.31,1.57,0.51,2.29
		c0.21,0.73,0.21,1.45,0.83,2.41c0.62,0.93,0.2,0.84,1.13,2.19c0.92,1.36,1.63,1.36,2.16,1.04c0.51-0.31,0.92-0.21,1.74,2.72
		c0.11,0.34,0.16,0.6,0.21,0.84c0.33,1.84-0.72,1.03-0.82,1.77c-0.1,0.82,0.1,2.8,0.1,2.8l-1.75,2.1c0,0-1.53,1.24-1.74,0.84
		c-0.2-0.42-3.8-0.94-3.8-1.77c0-0.84-1.65-0.41-1.74-1.68c-0.11-1.25-0.51-0.52-0.94-0.73c-0.4-0.21-2.05,0-2.26-0.94
		c-0.2-0.93-1.24-0.62-1.64-0.93c-0.41-0.34-1.02,0.31-1.54,0.51c-0.53,0.2-1.96,1.46-2.48,1.98c-0.51,0.53-0.62,1.26-1.24,1.57
		c-0.61,0.31,0.11,1.56-0.52,2.09c-0.6,0.51-0.3,0.94-0.71,0.94c-0.4,0-0.61,0.62-1.43,1.25c-0.83,0.61-0.21,1.56,0.61,2.49
		c0.83,0.93-0.51,0.83-0.82,0.83c-0.32,0-0.32,1.36-0.32,1.36l1.03,0.93c0,0,0,1.18-0.07,1.49c0,0.04,0,0.07-0.03,0.08
		c-0.09,0.11-0.92,2.3-1.23,2.61c-0.31,0.3,0.83,0.83,1.23,1.88c0.21,0.5,0.21,1.19,0.03,1.75c-0.2,0.59-0.57,1.06-1.15,1.06
		c-1.13,0-0.81,1.26-1.13,2.61c-0.31,1.36-1.23,2.19-2.26,1.88c-1.03-0.31-0.92,0.42-2.26,0.11c-1.35-0.32-1.85,1.87-2.78,2.82
		c-0.26,0.26-0.61,0.48-1,0.67c-1,0.48-2.33,0.66-3.53,0.28c-1.64-0.53-2.15-0.53-2.15-0.53l-1.24-2.61c0,0-2.16-1.05-2.48-1.26
		c-0.3-0.21-1.95,0.52-3.19,0.63c-1.23,0.11-2.16,0.51-2.16,0.51s-2.87,1.05-4.22,1.57c-1.33,0.52-3.8,2.4-4.64,2.5
		c-0.81,0.1-1.54,0.31-1.54,0.31s-1.64-0.1-2.87,0.31c-1.24,0.43-1.03,0.52-1.95,1.16c-0.94,0.63-2.17,1.34-3.29,1.56
		c-0.33,0.06-0.54,0.13-0.69,0.2c-0.37,0.13-0.4,0.13-0.74-0.61c-0.52-1.05-1.65-0.94-2.16-1.14c-0.52-0.21-5.45-3.55-6.18-4.28
		c-0.71-0.73-1.74,0.62-2.36,0.41c-0.62-0.21-1.13,0.52-2.37,1.26c-1.23,0.73-2.05,1.56-3.29,2.2c-1.22,0.62-1.33,0.93-2.26,0.93
		c-0.92,0-1.33,0.11-1.64-0.31c-0.31-0.42,0.72-1.78,0.81-2.3c0.11-0.52-0.51-0.52-1.43-0.31c-0.93,0.2-1.34,0.52-3.29-0.73
		c-0.39-0.25-2.67-1.36-2.46-2.19c0.2-0.84,0.3-0.84,0.4-1.36c0.11-0.52-0.4-1.24-1.64-1.67c-1.22-0.41-1.13-0.2-1.74-0.74
		c-0.63-0.51-0.52-1.77-0.42-2.7c0.11-0.94,1.14-1.46,1.76-2.19c0.61-0.73,1.54-0.21,1.43-0.73c-0.1-0.52-0.21-1.35,0.1-2.09
		c0.31-0.73,2.27-0.83,2.57-1.04c0.31-0.21,2.47-0.94,2.99-0.94c0.51,0,0.71-1.35,0.51-1.88c-0.21-0.52-1.24-0.82-1.86-1.24
		c-0.62-0.42-1.76-0.31-2.27-0.63c-0.52-0.31-0.2-2.08-0.11-2.91c0.11-0.85,1.45-1.16,2.27-1.98c0.82-0.86-0.41-2.63-0.41-3.05
		c0-0.41,0.32-1.87,0.52-2.5c0.2-0.63-0.71-1.66-0.83-2.08c-0.09-0.41-2.47,1.26-3.18,1.78c-0.73,0.52-1.86,2.09-1.96,2.6
		c-0.09,0.54-1.84,1.37-2.68,1.67c-0.81,0.32-2.15,0.42-2.77,0.22c-0.63-0.22-1.55,0.83-1.87,0.73c-0.3-0.1-1.53,1.05-2.04,1.25
		c-0.51,0.21-1.23,1.68-1.64,1.98c-0.41,0.32-0.52,2.3-0.62,3.13c-0.1,0.84,0.31,2.41,0.31,2.41s-0.2,3.86,0.1,6.15
		c0.05,0.37,1.24,0.31,1.86,0.42c0.62,0.11,1.65,1.25,2.17,1.67c0.5,0.41-0.52,0.41-2.06,1.67c-1.55,1.25,0.1,1.04,0.2,1.98
		c0.1,0.94,0.31,1.25,0.62,1.25c0.3,0,0.3,1.57,0.51,1.89c0.21,0.31,1.23,0.52,1.23,0.52l0.83,2.19c0,0,0.1,2.2,0,2.51
		c-0.09,0.3-0.93,0.52-1.45,0.52c-0.5,0-0.81,0.52-1.01,2.4c-0.2,1.88-1.03,1.26-1.34,0.83c-0.31-0.42-2.87-0.94-3.38-1.57
		c-0.52-0.62-2.06,0.11-2.78,0c-0.72-0.1-1.75,0.84-1.75,0.84s-0.53,0.46-0.98,0.76c-0.23,0.16-0.46,0.28-0.56,0.28
		c-0.3,0-2.57,0.85-2.98,0.42c-0.41-0.42-1.86,0.22-2.99-0.09c-1.13-0.33-1.84,0.83-1.84,0.83s-2.16,1.25-2.46,1.67
		c-0.32,0.42-0.72,1.25-0.94,2.29c-0.21,1.05-2.05,2.3-2.05,2.3s-1.43,1.56-1.64,2.08c-0.22,0.52-0.72,1.68-0.83,1.99
		c-0.1,0.31-1.13,1.87-1.13,1.67c0-0.2-2.27,2.61-2.57,2.82c-0.31,0.2-1.75,1.04-2.99,1.46l-1.75,1.35c0,0-2.25,1.57-2.47,1.89
		c-0.13,0.2-0.98,0.71-1.78,0.93c-0.37,0.11-0.72,0.17-0.99,0.11c-0.82-0.22-0.92,0.52-1.22,0.2c-0.31-0.31-2.17,1.57-2.99,2.19
		c-0.81,0.62-0.41,1.77-0.61,2.19c-0.21,0.42,0.52,3.02,0.52,3.02s-2.27,1.58-2.99,1.99c-0.72,0.42-1.75,0.82-2.57,0.94
		c-0.81,0.09-2.16,0.61-2.16,0.61s-0.83,0.52-0.72,1.37c0.1,0.84-0.21,1.14-0.31,2.08c-0.1,0.93-2.05,0.83-2.37,0.52
		c-0.3-0.31-3.38,0.52-4.01,0.21c-0.61-0.31-1.85-0.21-2.26-0.94c-0.41-0.73-2.16-1.14-2.98-1.46c-0.83-0.3-3.08-0.62-4.02-0.53
		c-0.92,0.12-0.2,0.85,0.31,1.37c0.52,0.52,0.52,1.15,0.84,1.77c0.3,0.63,0.51,2.41,1.42,2.61c0.93,0.21,0.52,1.78,0.83,3.05
		c0.32,1.24-0.83,0.3-1.65,0c-0.82-0.33-1.34,0.3-2.36-0.33c-1.03-0.62-2.07,0.33-3.29,0.11c-1.24-0.21-1.34-0.32-1.96-1.15
		c-0.61-0.85-1.33-0.1-1.85-0.31c-0.51-0.21-0.63-0.54-1.34-0.32c-0.71,0.21-1.22,0.73-1.65,0.95c-0.41,0.21-1.13-0.52-2.36,0
		c-1.24,0.52-1.34-0.11-1.76,0c-0.4,0.1-2.26,1.76-2.97,2.51c-0.72,0.73,0.92,2.08,0.82,3.13c-0.1,1.03,0.62,1.55,1.13,2.07
		c0.51,0.53,2.05,0.64,3.4,0.42c1.33-0.2,1.02,0.42,1.33,0.32c0.31-0.1,1.13,0.73,1.56,1.25c0.39,0.52,1.21,1.56,2.56,1.15
		c1.34-0.42,1.34,0.74,1.94,0.74c0.63,0,0.85,0.41,1.75,0.41c0.93,0,0.72,1.15,1.24,1.24c0.51,0.11,1.03,0.85,1.13,1.37
		c0.1,0.52-0.32,1.04-0.32,1.44c0,0.43,0.94,1.26,1.65,2.32c0.73,1.03,1.04,1.35,1.64,1.77c0.62,0.41,0.94,1.45,2.17,1.67
		c1.23,0.2,0.82,1.04,0.91,1.56c0.11,0.52,0.52,1.97,0.62,2.4c0.1,0.43-0.19,1.88-0.19,1.88l-0.62,2.2c0,0,0.62,3.44,0.51,4.39
		c-0.1,0.93-1.02,6.47-1.33,7.61c-0.32,1.16-0.63,0.84-1.86,2.09c-0.09,0.09-0.14,0.14-0.21,0.21c-0.96,0.97-0.61,0.6-1.95,0.42
		c-1.43-0.22-1.13,0.31-1.95,0.11c-0.83-0.21-1.54-0.21-2.35-0.33c-0.85-0.09-1.25,0.12-1.87-0.3c-0.61-0.42-1.95,0.52-3.18,0.42
		c-1.24-0.12-1.45-0.53-3.09-0.95c-1.65-0.42-1.35,0-1.35,0s-1.73,0.52-2.77,0.73c-1.03,0.21-1.95,0.31-1.95,0.31
		s-2.27-0.42-3.19-0.74c-0.92-0.31-2.16,0.22-2.27-0.21c-0.1-0.42-1.95-0.52-2.16-0.83c-0.21-0.31-4.01,0.52-4.32,0.52
		c-0.31,0-0.62,0.31-2.06,0.42c-1.44,0.09-1.23,0.42-1.75-0.11c-0.52-0.52-0.81-0.31-1.44-0.93c-0.61-0.62-1.33-0.93-2.26-1.03
		c-0.92-0.12-1.54,0.72-1.95,1.14c-0.41,0.41-0.82,1.68-1.34,2.19c-0.52,0.52-1.85,0.52-2.26,0.31c-0.41-0.21-1.75,0.62-2.78,0.82
		c-1.03,0.22-1.33,1.36-1.54,2c-0.21,0.62,0.51,1.03,0.92,1.25c0.41,0.21,0.52,0.52,1.13,1.89c0.62,1.35,0.52,0.94,0.62,1.46
		c0.08,0.46,0.02,1.29-0.13,2.25c-0.03,0.15-0.04,0.3-0.08,0.46c-0.2,1.15,0,1.56,0.21,2.61c0.2,1.04,0.62,1.56,0.82,1.89
		c0.21,0.3,0.31,2.18,0.31,2.81c0,0.61,0.2,2.19,0.3,2.71c0.11,0.53-2.67,7.62-2.88,9.08c-0.2,1.46-0.61,1.15-1.64,2.61
		c-1.03,1.46-0.61,1.26-0.61,2.19c0,0.94,0.21,0.94,0.51,1.25c0.31,0.31,0.1,1.78,0.2,2.5c0.11,0.73,1.03,0.42,2.37,0.64
		c0,0,0.52,1.34,0.82,1.76c0.31,0.42,0.42,1.46,0.52,2.2c0.1,0.73-0.4,2.5-0.93,3.12c-0.52,0.63-0.41,2.3-0.71,3.12
		c-0.32,0.85,0.71,0.95,0.71,0.95s1.03-0.21,1.76-0.63c0.71-0.42,1.32-0.2,1.95,0c0.61,0.21,2.26,0.84,2.26,0.84s0.72,0.21,1.84,0.1
		c1.13-0.1,0.72-0.1,1.34-0.83c0.31-0.39,0.7-0.39,1.11-0.35c0.37,0.01,0.76,0.08,1.14-0.08c0.83-0.3,1.13,0.22,1.56,0.43
		c0.4,0.21,2.37,0.83,2.97,1.14c0.62,0.31,0.42,2.3,0.62,2.6c0.2,0.32,2.37,2.72,2.47,3.14c0.1,0.42,2.37,1.15,2.68,1.25
		c0.31,0.11,1.43-0.83,2.05-1.48c0.61-0.62,1.23-1.55,1.54-1.55c0.31,0,2.88-0.53,3.9-1.47c0.28-0.25,1.03-0.3,1.64-0.1
		c0.62,0.21,1.34,0.1,1.95,0c0.62-0.09,2.26-0.52,2.89-0.52c0.61,0,1.54,0.73,1.54,0.73s1.34-0.41,1.65-0.73
		c0.3-0.3,2.88,0.33,2.88,0.33l1.33-0.74l1.54-0.83c0,0,1.95-1.99,2.37-2.62c0.41-0.62,1.65-1.35,1.65-1.35s2.78-0.82,3.08-1.56
		c0.32-0.73,0.62-0.42,0.92-1.04c0.31-0.63,1.03-0.83,1.55-1.69c0.52-0.81,0.72-1.14,1.24-2.06c0.51-0.95,0.92-0.74,1.33-1.05
		c0.42-0.32,2.17-1.03,2.37-1.36c0.21-0.31,0.61-0.72,0.3-1.77c-0.3-1.05-1.13-1.05-1.74-1.57c-0.63-0.52-0.93-0.92-1.14-2.29
		c-0.21-1.36,0.32-1.57,0.32-2.5c0-0.95,0.61-1.06,0.91-1.89c0.32-0.84,2.17-4.59,2.07-4.91c-0.11-0.32,1.03-1.25,1.03-1.57
		c0-0.3,2.05-1.36,2.37-1.65c0.3-0.32,2.04-0.84,2.04-0.84s1.96-1.36,2.37-1.67c0.4-0.32,1.84-0.21,2.46-0.54
		c0.61-0.3,2.37-0.71,2.37-0.71s1.43-1.05,2.98-2.83c1.54-1.77,1.75,0.1,2.37-0.42c0.61-0.5,1.13-0.93,1.74-1.98
		c0.62-1.04,0.32-0.94,0.1-1.57c-0.13-0.38-0.44-1.24-0.77-2.18c-0.2-0.59-0.4-1.21-0.56-1.79c-0.42-1.46,0-1.14,0.41-2.08
		c0.4-0.95,2.26-2.61,2.57-3.14c0.31-0.52,2.46-1.16,3.5-1.57c1.03-0.42,1.54,0.53,2.36,0.53c0.83,0,2.37,0.1,3.61,0.21
		c1.22,0.11,1.42,1.24,1.84,1.66c0.42,0.42,1.95,0.31,2.47,0.31c0.51,0,3.6,1.04,4.21,0.95c0.62-0.12,2.99-1.99,4.64-3.66
		c1.65-1.66,1.43-0.21,1.74-0.84c0.32-0.62,0.93-1.04,2.48-2.4c0.04-0.02,0.05-0.04,0.08-0.07c1.45-1.21,1.26,0.48,1.77,0.17
		c0.51-0.31,0.51,0,1.02-0.63c0.51-0.62,1.03-1.35,1.75-1.88c0.72-0.52,1.24,0.43,2.26-0.2c1.03-0.62,1.24,0.11,1.95-0.11
		c0.72-0.22,1.23,0.84,1.85,1.15c0.61,0.31,1.95-0.31,2.47-0.2c0.51,0.1,2.78,0.93,3.29,1.14c0.51,0.21,0.83,1.58,0.83,2.61
		c0,1.05,1.02,2.51,1.12,3.13c0.1,0.62,1.24,2.3,1.65,2.72c0.41,0.41,1.24,1.65,2.67,2.81c1.43,1.14,1.13,0.83,1.43,0.93
		c0.31,0.11,1.65,1.67,2.58,2.4c0.92,0.73,2.96,2.5,3.59,2.62c0.62,0.11,0.82,2.19,0.82,2.19s3.41,1.67,4.62,1.46
		c1.24-0.21,4.12,1.45,4.53,1.67c0.4,0.19,0.61,1.67,1.54,3.12c0.94,1.47,2.16,0.52,2.89,0.52c0.71,0,0.92,0.53,1.74,1.05
		c0.83,0.52,0.72,1.67,1.24,2.51c0.52,0.83,1.65,1.35,2.48,1.35c0.81,0,1.54,0.41,2.04,0.51c0.53,0.11,1.25,2.3,1.55,2.82
		c0.31,0.52,0.92,2.51,1.33,3.24c0.41,0.73,0.72,2.5,0.72,2.5s-3.07,6.27-3.07,6.58c0,0.32,2.47-0.41,2.47-0.41s1.34-1.26,1.64-1.78
		c0.31-0.52,1.75-1.87,2.16-2.62c0.41-0.73,1.55-2.18,2.17-3.02c0.61-0.83,0.73-0.41,0.92-0.83c0.21-0.42,0.51-0.83,0.72-2.09
		c0.2-1.25-1.13-0.52-1.64-1.14c-0.51-0.63-1.54-0.73-1.96-1.15c-0.4-0.41-0.4-0.73-0.2-1.57c0.2-0.82,0.62-1.15,0.52-1.88
		c-0.11-0.72,0.62-0.72,1.34-1.77c0.71-1.05,0.91,0.3,1.54,0c0.61-0.31,1.95,0.11,1.95,0.11s1.23,1.04,2.37,1.78
		c1.12,0.73,1.85,1.24,2.36,1.55c0.51,0.32,1.13,0.84,1.64,0.32c0.5-0.52,0.11-0.73,0.11-1.55c0-0.85-0.63-0.95-0.94-1.47
		c-0.3-0.52-0.71-0.73-1.02-0.95c-0.31-0.21-4.84-3.44-5.14-3.75c-0.31-0.31-1.34-0.53-1.75-0.95c-0.41-0.41-1.84-0.73-3.29-1.76
		c-1.44-1.05-2.77-1.05-3.49-1.46c-0.72-0.43-0.2-1.37,0.1-1.99c0.3-0.63,0.73-0.83,0.82-1.25c0.11-0.41-1.84-0.73-1.84-0.73
		s-3.2,0.22-4.32-0.41c-1.12-0.64-1.75-0.11-1.75-0.11s-1.03,0.21-1.33-0.31c-0.32-0.52-0.42-0.32-1.24-1.57
		c-0.82-1.25-1.96-1.36-1.96-1.98c0-0.63-2.56-4.07-2.66-5.11c-0.11-1.05-0.41-0.64-0.51-1.68c-0.12-1.05-0.62-1.05-1.96-2.2
		c-1.33-1.15-1.95-0.94-2.98-2.08c-1.02-1.15-1.13-0.62-1.64-1.36c-0.51-0.72,0,0-0.62-0.72c-0.62-0.73-1.54-1.68-2.05-2.08
		c-0.52-0.43-0.82-1.25-0.71-1.89c0.09-0.63,0.52-0.94,0.71-1.25c0.2-0.31,0.52-0.31,0.52-0.94c0-0.62-1.13-1.25-1.23-2.4
		c-0.11-1.16,0.61-2.19,0.61-2.19s1.96-0.11,2.26-0.2c0.31-0.12,0.62-0.33,1.45-1.47c0.82-1.16,2.15-0.52,2.88-0.93
		c0.71-0.43,1.85,0.51,1.85,0.51s-0.2,1.05-0.52,1.98c-0.1,0.29-0.05,0.56,0.05,0.82c0.21,0.58,0.74,1.07,0.88,1.38
		c0.21,0.41,0.92,1.76,0.92,1.76s0.41,0.41,0.63,0.73c0.21,0.31,0.92-0.52,1.02-0.95c0.09-0.42,1.43-0.73,2.78-1.24
		c0.58-0.23,1.34,0.83,1.34,0.83s0,0,0.31,0.32c0.3,0.31-0.1,1.67-0.1,1.98c0,0.31,0.92,0.52,1.54,0.62
		c0.61,0.11,1.33,1.37,1.76,1.67c0.41,0.33,0.41,1.04,0.19,1.36c-0.19,0.32-0.1,0.73,0.1,1.57c0.21,0.83,0.41,0.62,0.72,1.24
		c0.31,0.63,0.82,0.94,1.24,1.15c0.4,0.21,0.61,0.52,1.64,1.46c1.02,0.94,1.34,0.73,1.34,0.73s1.43,0.21,2.46,0
		c1.02-0.21,1.24,0.63,1.64,0.83c0.29,0.16,0.39,0.79,0.88,1.52c0.19,0.29,0.42,0.6,0.77,0.89c0.42,0.35,0.92,0.84,1.33,0.72
		c0.42-0.1,1.14,0.74,2.48,0.64c1.33-0.11,1.03,0.83,1.33,0.93c0.31,0.1,1.75,1.15,1.75,1.15c0.26,0,1.68,1.49,2.37,2.07
		c0.13,0.1,0.25,0.19,0.3,0.22c0.41,0.22-0.1-0.3,0.52-0.41c0.62-0.1,1.22,1.14,2.46,2.19c1.24,1.04,0.4,0.73,0.83,1.36
		c0.41,0.61,0.71,0.94,0.71,0.94s0.8,0.29,1.73,1.95c0.07,0.14,0.16,0.28,0.23,0.43c1.03,2.09,0.41,0.96,0.41,1.48
		c0,0.52,0,1.05-0.2,1.87c-0.21,0.84-0.51,1.99-0.62,2.51c-0.1,0.52,0,2.29,0,2.8c0,0.53,0,2.41,0,2.41s0.92,0.94,1.44,1.04
		c0.51,0.11,1.22,1.36,1.22,1.36l-0.2,1.77c0,0-0.21,0.93-0.11,1.25c0.11,0.32,1.24,0.43,1.24,0.43s0.82,0,1.13-0.11
		c0.14-0.06,0.35,0.14,0.58,0.36c0.27,0.26,0.57,0.56,0.85,0.56c0.52,0,2.05,2.09,2.05,2.09s0.41,0.94,1.24,1.14
		c0.81,0.23,1.02,1.36,1.33,1.46c0.32,0.1,1.13,0.83,2.06,1.05c0.92,0.21,1.34,1.26,1.34,1.26s0,1.14-0.41,1.76
		c-0.41,0.62-0.71,1.36-0.92,1.68c-0.2,0.32-0.62,1.46-0.72,1.97c-0.1,0.53,2.98,2.3,2.98,2.3v1.46c0,0,0,1.67,0,1.98
		c0,0.31,1.03,1.04,1.34,1.04c0.31,0,1.12-0.09,1.12-0.09s0.63,0.72,0.51,1.03c-0.09,0.31,2.68,0.74,2.89,0.22
		c0.2-0.52,0.92,0.52,1.45,0.73c0.5,0.2,1.74,0.93,2.25,0.73c0.51-0.21,0.61-0.32,1.03-1.26c0.42-0.94-0.52-0.61-1.13-1.44
		c-0.62-0.84-0.62-0.75-0.93-1.26c-0.3-0.52-1.65-3.03-1.13-3.23c0.53-0.21,1.24,1.77,1.24,1.77s3.8-1.25,4.31-1.77
		c0.52-0.54-0.82,0.09-1.64-0.63c-0.83-0.73-1.24-0.63-2.26-1.67c-1.03-1.05-1.35-0.83-2.27-1.56c-0.92-0.75,0.1-0.42,0.22-1.16
		c0.1-0.74,0.51-0.32,1.24-1.15c0.71-0.83,1.42,0.53,1.42,0.53l1.75,1.67l3.29,1.88c0,0,0.94-0.32,1.13-0.62
		c0.21-0.32-0.3-0.94-0.61-1.56c-0.31-0.62-1.24-1.57-1.75-2.3c-0.52-0.73,0.82-0.31,1.34-0.1c0.52,0.2,0.61,0.31,0.92,0.41
		c0.32,0.11,0.83,0,0.93-0.52c0.11-0.52-0.11-0.93-0.52-1.57c-0.42-0.62-0.82-0.31-1.23-0.73c-0.41-0.41-1.44-0.62-1.75-1.03
		c-0.3-0.43-1.03-0.85-2.57-3.77c-0.31-0.82,0,0-0.11-0.94c-0.09-0.93-0.2-0.41-2.36-2.4c-2.16-1.98-1.95-3.03-1.64-4.18
		c0.3-1.14,1.02-3.23,1.02-3.23s1.44,2.71,1.85,2.82c0.41,0.1,1.13,1.05,1.45,1.45c0.31,0.43,1.54,0.33,2.67,0.73
		c0,0,0.63-0.83,1.14-1.67c0.51-0.82,1.33,0.75,1.33,0.75s1.24-0.43,1.65-0.85c0.41-0.41,0,0-0.31-0.62
		c-0.31-0.62-0.92-0.31-1.64-1.04c-0.72-0.74-0.94-0.64-0.83-2.61c0.1-1.99,0.61,0.72,1.13,0.32c0.51-0.42,0.42,0.21,0.94-0.53
		c0.51-0.73,0.81,0.42,1.23,0.42c0.41,0,0.92,1.56,1.64,2.41c0.72,0.83,0-2.51,1.13-2.61c0,0,0.82,0,1.65-0.62
		c0.82-0.63,1.65-0.21,2.06-0.21c0.4,0,1.24,0.62,1.54,0.62s1.96,0.64,2.57,1.16c0.63,0.51,1.45,0.51,1.45,0.51s1.12-0.11,1.44-0.22
		c0.31-0.1,2.46,0.22,2.77,0.52c0.31,0.31,1.34-0.09,1.75-0.62c0.42-0.53,0.52,0.2,1.03-0.42c0.51-0.63,0.81-0.41,1.13-0.84
		c0.31-0.42,0.61-0.21,0.92-0.73c0.32-0.52,1.13-0.52,2.37-1.05c0.4-0.17,1.75,0.21,2.57,0.42c0.83,0.21,2.57,0.11,3.19,0.11
		c0.61,0,1.23-0.32,2.69-0.95c1.42-0.61,0,0-0.21-1.12c-0.21-1.17,0,0-0.31-0.64c-0.31-0.63-0.71,0-1.65-0.31
		c-0.92-0.32-0.82,0.21-1.54-0.22c-0.72-0.4-1.33-0.31-2.57-1.05c-1.24-0.73-1.24-0.41-1.54-0.73c-0.31-0.32,0,0,0.21-1.24
		c0.16-1.04-0.22-1.37-0.54-1.92c-0.07-0.12-0.14-0.23-0.19-0.39c-0.31-0.83-1.45-0.73-2.06-2.38c-0.61-1.68-0.3-0.43-0.3-2.42
		c0-1.97,0.61-1.88,1.02-2.81c0.42-0.95,0.92-1.14,1.75-2c0.83-0.82,1.86-0.3,2.57-1.03c0.73-0.73,1.03-1.57,1.24-2.4
		c0.01-0.07,0.04-0.16,0.05-0.24c0.18-1.01,0.27-3.32,0.36-4.57c0.05-0.55,0.52,0,1.03-0.83c0.51-0.82,0.1-0.52,0.42-1.04
		c0.31-0.5,0.71-0.83,1.03-1.77c0.3-0.95,0.81-0.52,1.11-0.73c0.32-0.21,1.03,0.32,1.34,0.21c0.31-0.11,1.45-0.74,1.87-1.15
		c0.4-0.41,1.02-1.57,0.92-2.19c-0.09-0.56-0.2-0.46-0.73-1.44c-0.07-0.1-0.13-0.2-0.19-0.32c-0.55-1.02,0.51-1.26,0.61-2.2
		c0.11-0.93,2.16-0.51,2.16-0.51s1.85-1.67,2.97-2.92c0,0,0.83-0.84,1.13-1.57c0.31-0.73,0.53-0.62,0.93-1.35
		c0.41-0.73,0.82-0.84,1.03-1.14c0.2-0.32,1.54-0.32,2.25-0.74c0.73-0.41,1.55-0.31,2.48-0.52c0.92-0.21,0,1.16-0.11,1.46
		c-0.1,0.3-1.13,1.14-1.54,1.56c-0.41,0.42,0.93,1.16,1.44,1.05c0.51-0.11,0.72,0.11,0.72,0.11s1.33,0.52,1.86,0.84
		c0.5,0.31,2.25,1.15,2.66,1.34c0.42,0.22,0.72,0.63,1.24,0.22c0.51-0.42,2.46-1.25,2.97-1.56c0.51-0.32,0.94,0.31,1.24,0.61
		c0.31,0.32,0,0.95,0,0.95s-0.72,0.42-1.75,0.72c-1.02,0.32-1.64,0.84-2.06,0.95c-0.4,0.1-2.47,1.77-2.47,1.77s0.51,1.26,1.13,1.67
		c0.62,0.42,2.15,0.96,2.78,0.85c0.61-0.11,1.64,1.35,1.64,1.35l0.11,2.81c0,0-1.54,0.21-1.24,0.42c0.31,0.21,0.93,1.25,1.24,1.25
		c0.31,0,0.92,1.25,2.57,0.74c1.65-0.52,1.54,0,1.95-0.52c0.41-0.52,1.03-0.22,1.86-1.26c0.82-1.04,0.51-0.73,0.92-1.04
		c0.41-0.32,1.65,0.62,1.85,0.31c0.21-0.31,0.92-0.63,1.54-1.05c0.62-0.41,0.92-1.14,1.55-1.98c0.61-0.84,0.81,0,1.42,0.52
		c0.63,0.52,1.66,0.63,2.37,0.31c0.72-0.31,1.86-0.41,2.78-0.52c0.92-0.11,2.07-0.53,2.46-1.05c0.42-0.53-0.31-0.41-0.4-0.83
		c-0.11-0.43-0.83-0.52-1.24-1.14c-0.42-0.64-0.51-0.21-1.13-0.21c-0.62,0-1.13,0.11-2.06,0.62c-0.92,0.52-0.72-0.2-1.24-0.41
		c-0.5-0.21-0.82-0.11-1.12-0.42c-0.31-0.3-2.05,0-3.08,0c-1.03,0-1.13-1.04-1.24-1.57c-0.09-0.52-1.33-1.98-1.33-1.98
		s-0.83-1.98-0.31-1.56c0.52,0.41,3.08-0.63,3.4-0.95c0.31-0.3,3.6-2.81,4.32-3.22c0.72-0.42,1.12-0.11,1.64-0.22
		c0.52-0.11,3.2-1.04,3.61-1.35c0.4-0.32,0.4,0.2,1.02,0.09c0.62-0.09,3.7-1.87,3.7-1.87s1.02-0.32,1.75-0.94
		c0.72-0.62,1.34,0.21,1.34,0.21s0.84-0.02,1.32-0.14c0.09-0.02,0.17-0.04,0.22-0.08c0.3-0.21,1.24,0.11,1.75-0.31
		c0.51-0.42,2.99-0.42,3.7-0.84c0.71-0.41,0.52,0.94,0.71,0.94c0.21,0,0.11,0.63-0.3,0.94c-0.41,0.31-2.36,1.25-2.66,1.16
		c-0.33-0.1-2.99,1.36-3.61,1.46c-0.62,0.09-0.82,1.05-0.82,1.05l2.47,2.69c0,0-0.31,0.53-0.73,0.95c-0.41,0.42-0.52,1.04-1.54,1.77
		c-0.35,0.26-0.31,0.62-0.62,1.04c-0.31,0.41-0.61,1.15-1.33,1.89c-0.72,0.73-0.62,0.83-1.34,0.83c-0.71,0-1.13,0.42-2.36,0.32
		c-1.24-0.11-1.24,0.82-0.51,2.7c0.1,0.29,1.03,0.94,2.26,1.88c0,0,1.23,1.15,1.74,1.68c0.51,0.52,1.96,0.85,2.58,0.52
		c0.61-0.31,1.43,0.95,1.43,0.95s1.65,1.02,2.16,0.92c0.51-0.1,0.82,0.73,1.23,0.94c0.41,0.21,1.75,1.26,2.58,1.57
		c0.82,0.31,1.95,1.77,1.84,2.2c-0.07,0.27,1.03,1.55,1.89,2.49c0.38,0.42,0.73,0.78,0.89,0.94c0.51,0.52,1.13,0.73,1.75,0.73
		c0.61,0,1.12,0.95,1.54,1.14c0.41,0.21,0.82,0.32,2.06,0.21c1.22-0.11,0.81,0.84,0.81,0.84s1.24,0.83,1.54,0.93
		c0.31,0.1,1.15,1.15,1.54,1.26c0.42,0.11,0.31,0.84,0.52,1.37c0.21,0.52,0.31,1.15,0.31,1.15l0.2,0.93c0,0,0.42,0.53,0.83,0.85
		c0.41,0.3,0.83,0.82,1.03,1.57c0.2,0.73,0.11,0.83,0.11,0.83s-0.41,1.15-0.62,1.45c-0.14,0.21-0.37,0.51-0.65,0.8
		c-0.15,0.17-0.31,0.3-0.48,0.45c-0.51,0.42-0.93,0.54-1.24,0.74c-0.31,0.21-1.85,1.14-2.57,1.46c-0.72,0.32-1.54,1.14-2.27,1.44
		c-0.71,0.31-1.23,0.63-1.75,0.22c-0.51-0.42-1.02,0.21-2.05-0.31c-1.04-0.52-1.24-0.52-1.65-0.73c-0.42-0.22-1.03,0.73-1.75,1.04
		c-0.72,0.32-0.81,0.21-2.16,0c-1.34-0.22-1.03,0.1-2.16-0.1c-1.12-0.21-0.93,0.52-1.84,0.73c-0.94,0.21-1.03-0.11-1.03-0.11
		s-7.41-0.83-8.23-1.35c-0.83-0.51-2.98-0.94-2.98-0.94s-0.83-0.62-0.94-1.35c-0.09-0.74-1.02-0.43-1.23-0.84
		c-0.2-0.41-1.23-0.32-1.74-0.32c-0.51,0-1.55-0.21-1.95-0.73c-0.42-0.52-1.75-0.32-2.05-0.93c-0.32-0.62-0.11-0.83-0.11-1.15
		c0-0.3-3.29,0-3.29,0s-1.75,0.62-2.67,0c-0.92-0.63-1.96,0-2.37-0.52c-0.41-0.53-2.57,0-3.08-0.31c-0.52-0.32-1.86,0.42-1.86,0.42
		l-2.66,0.41c0,0-7.19,4.49-7.82,5.1c-0.62,0.65-2.36,1.47-2.78,1.36c-0.41-0.11-1.33,0.53-1.74,0.21
		c-0.41-0.32-1.04,0.31-1.04,0.31s-1.84,0.2-2.47-0.53c-0.62-0.71-1.33,0.21-3.49,0.63c-2.17,0.41-0.94,0.52-1.34,0.63
		c-0.42,0.11-1.45,0.73-2.56,0.84c-0.33,0.02-1.36,0.72-1.87,1.05c-0.51,0.29-0.31,0.72-0.51,1.03c-0.2,0.31-0.92,0.84-0.92,0.84
		l-1.04,0.63c0,0-1.54,0.64-2.15,0.73c-0.61,0.1-4.64-0.52-6.9-0.95c-2.26-0.41-2.06-0.21-2.88-0.41c-0.81-0.22-0.61,0.52-1.32,0.93
		c-0.72,0.43-0.62,0.74-1.15,1.36c-0.52,0.63-0.93,1.06-1.54,1.78c-0.61,0.74-0.2,1.78,0.1,3.03c0.32,1.25,1.44-0.2,1.86-0.31
		c0.39-0.1,2.15,0.84,2.05,1.36c-0.1,0.53-1.45,1.68,0.41,3.76c1.85,2.09,0.1,0.83,1.13,2.18c0.23,0.31,0.62,1.05,0.62,1.05
		s-1.03,1.26-1.95,1.78c-0.94,0.52-1.25,0.72-1.25,0.72s0.53,0.85,1.34,0.95c0.83,0.09,1.55,0.83,2.05,1.03
		c0.52,0.22,0.62,0.95-0.2,1.26c-0.83,0.3-1.86,0.83-2.37,0.93c-0.51,0.1,1.03,1.14,1.55,1.37c0.51,0.21,0.92,0.81,0.92,0.81
		s0.62,1.47,1.04,1.68c0.4,0.21,1.44,0.63,2.66,0.63c1.24,0,0.83,0.52,1.04,1.05c0.2,0.53,0.93,1.78,1.53,1.78
		c0.28,0,0.55,0.32,0.72,0.61c0.05-0.04,0.23,0,0.43-0.51c0.3-0.84,0.41-0.2,1.02-0.42c0.6-0.2,0.92,0.32,2.78,1.35
		c0,0,1.12,1.05,2.46,1.57c1.33,0.53,0.62,0.95,1.03,1.57c0.4,0.62,2.97,0.31,4,0c1.03-0.31,1.75,0.1,2.05-0.22
		c0.32-0.3,1.76,0.73,2.06-1.55c0.31-2.3,0.12-0.51,0.72-2.3c0.07-0.2,0.12-0.34,0.15-0.44c-0.05,0.25-0.07,0.58,0.26,0.35
		c0.73-0.52,0,0,2.58-0.52c2.57-0.53,1.44,0.2,2.36,0.11c0.92-0.11,0.61,0.93,0.92,1.04c0.31,0.1,0.83,0.94,1.96,1.56
		c1.13,0.63,0.92,1.25,1.54,1.36c0.62,0.11,0.31,1.05,1.03,1.25c0.71,0.2,0.71,0.94,1.86,1.15c0,0,1.02-0.32,1.94-0.62
		c0.93-0.33,2.07-0.95,2.48-1.15c0.41-0.22,1.13,0.42,1.85,0c0.71-0.42,1.34-0.93,2.06-1.78c0.71-0.84,1.22-0.64,1.43-0.94
		c0.21-0.32,0.93-1.05,1.75-1.98c0.81-0.93,0.41,0,1.44,0.52c0,0,1.24,0.73,2.26,0.62c1.02-0.1,2.67,0.3,3.81-0.74
		c0.5-0.47,1.02,0,1.74-0.83c0.72-0.84,0.42,0.53-0.31,4.28c-0.72,3.76-0.41,1.78-0.81,2.29c-0.42,0.53-0.21,0.63-0.31,1.15
		c-0.02,0.05-0.01,0.09,0,0.14c0.21,0.09,0.38,0.17,0.57,0.25C369.21,508.96,369.98,509.08,371.41,507.58z"/>
	<path class="st0" d="M187.39,468.37c-1.7,3.52,2.91,7.19,2.66,10.83c-0.13,1.9-1.57,3.75,0,4.78c2.07,1.33,3.01-1.18,4.4-1.8
		c2.29-1.05,2.65,0.5,3.53-2.37c0.68-2.17-0.2-3.69-0.29-5.69c-0.22-4.64,0.07-5.58-3.91-6.34l0.98-1.13v-0.3
		c-0.63-0.56-1.15-1.01-1.55-1.43C191.34,465.9,188.41,466.27,187.39,468.37z"/>
	<path class="st0" d="M215.39,493.77c3.25-0.18,5.16,1.78,7.68,3.26c2.31,1.35,4.6,2.9,6.97,3.98c0.75,0.34,3.21,1.05,3.92,0.37
		c1.45-1.38-0.43-2.87-0.75-4.28c-0.7-3.15,2.42-4.58,2.09-7.73c-3.27-1.15-4.74,2.49-7.9,2.68c-2.86,0.16-5.17-1.51-8.23-1.52h1.47
		C217.97,488.47,215.56,491.07,215.39,493.77z"/>
</g>
</svg>
