<?xml version="1.0" encoding="utf-8"?>
<!-- Generator: Adobe Illustrator 24.1.1, SVG Export Plug-In . SVG Version: 6.00 Build 0)  -->
<svg version="1.1" id="Layer_1" xmlns="http://www.w3.org/2000/svg" xmlns:xlink="http://www.w3.org/1999/xlink" x="0px" y="0px"
	 viewBox="0 0 612 612" style="enable-background:new 0 0 612 612;" xml:space="preserve">
<style type="text/css">
	.st0{fill:#2EA6C0;}
</style>
<g>
	<path class="st0" d="M548.65,418.98c-0.16-0.98-0.16-2.62-0.16-3.42c0-0.82,0.33-2.12-0.34-2.12c-0.65,0-0.99-2.12-0.99-2.12
		s0-1.96-0.66-2.61c-0.66-0.64-0.18-2.94-1.15-2.6c-1,0.32-1.49-0.82-2.16-0.82c-0.65,0-1.14-0.65-1.14-0.65l-1.84,2.13
		c0,0-1.14,0.96-0.81,1.62c0.33,0.66,0.66,2.62,0.66,2.62s0.84,0.82,0,1.62c0,0-1.68,0.91-2.31,1.8c-1.15,1.62-1.22,1.89-1.8,1.94
		c-2.16,0.17-3.15-0.49-2.99,0.33c0.16,0.82,0.34,0.98,0,1.8c-0.33,0.83-0.33,0.83-0.33,0.83s0.19-0.24-0.16,0.79
		c-0.67,1.96-0.67,2.77-0.67,2.77l-0.48,1.47c-1.5-0.16-3.47,0.82-3.47,0.82c0.65,1.46,0.05,1.05-0.17,2.11
		c-0.32,1.62-1.81,0.97-1.81,0.97c-1.65,0.65-1.68,0.27-2.32,0.81c-1.64,1.49-2.3,2.29-2.3,2.29s0.67,0.98,0.34,1.64l-2.16-0.32
		l-2.13-0.48L514.8,433c0,0-2.31,0.32-2.81,0.49c0,0-1.16,0.81-1.66,1.46c0,0-1.69-1.17-2.14-0.48c-1.15,1.8-1.15,2.29-1.15,2.94
		c0,2.28-1.16,2.93-1.65,3.91c-0.5,1-0.17,0.67-0.5,1.64c-0.33,0.99-0.82,0.82-0.65,1.79c0.17,0.98,0.32,0.33,0.17,1.64
		c-0.17,1.3-0.17,1.3-0.17,2.11c0,0.01,0,0,0,0.01c0.07,0.38,0.17,0.89,0.32,1.78c0.83,4.73,0.33,6.04,0.33,6.04s0.5,0.63,0.99,1.46
		c0.5,0.81,0.67,0.98,0.84,2.12c0.16,1.14,0.16-1.13,0.16,1.14c0,2.29,0,2.94-0.66,3.75c-0.66,0.82-0.34,0.17-0.82,1.63
		c-0.5,1.47-0.98,2.12-1.49,2.77c-0.49,0.65-1.16,0-1.16,1.3c0,1.31,0.17,0.33,0,1.31c-0.15,0.98-0.15,0.98-0.15,0.98
		s-1.48-0.17-1.83,0.64c-0.32,0.82-0.79,1.18-0.99,1.79c-0.66,2.12-0.66,1.14-0.66,2.12c0.66,2.13,2.14,2.98,1.5,3.1
		c-1.65,0.33-1.99,0.98-1.82,1.47c0,0-0.17,0.98,0,1.79c0.17,0.81-1.48,0.32,0.32,1.95c1.83,1.64,2.5,2.94,2.5,3.75
		c0,0.81,0.66-2.28,0,1.47c-0.67,3.74-0.67,3.74-0.67,3.74s-0.17,0.82,0,1.62c0,0,0.5,0.17,1.16,0.98c0.65,0.83,1.15,1.96,1.15,2.46
		l1.32,2.12l2.15,0.65l1.31,1.3l1,0.83l1.49,0.31l1.65,0.97l1.32,0.49l2.31-0.64l2.81-1.47l2.64-0.97c0,0,1.15-0.66,1.32-0.18h1.98
		c1.15-1.28,1.65-2.12,1.65-2.12l1.16-1.96c0,0,0.98-1.13,1.32-1.79c0.32-0.64,0.16-1.94,0.16-1.94s0.83,0,1.16-2.13
		c0.33-2.12,0.65-3.09,0.65-3.09s1-2.29,1-2.77c0-0.5,0.5-2.78,0.5-2.78l0.48-1.96c0,0,1.48-2.77,1.32-2.6
		c-0.16,0.16,0.33-2.78,0.33-2.78s0.16-1.62,0.33-2.28c0.16-0.65,0.99-2.45,1.15-2.93c0.19-0.5,1-1.62,1.16-2.28
		c0.17-0.64,0.83-2.28,0.83-2.28s0.99-1.31,1.16-1.96c0.16-0.65,0.5-2.27,0.5-2.27s1.81-2.78,1.81-3.27c0-0.48-0.16-2.77,0-3.26
		c0.17-0.49,1.33-3.26,1.33-3.26s0.17-1.46,0.17-1.95c0-0.49,0.98-3.6,0.98-4.07c0-0.5,0.18-1.8,0-2.44
		c-0.17-0.67-0.32-3.61,0.18-4.09c0,0,1.65-2.27,2.64-1.8l0.82-3.73l-1.16-2.29c0,0-0.81-1.31-0.32-1.96c0.48-0.65,0-2.12,0.97-1.79
		c1,0.32,0.28,1.89,1,2.27c1.83,0.98,2.81,0.33,2.81,0.33s0.34-0.47,0.84-1.46c0.49-0.98,1.14-0.82,0.81-1.95
		c-0.32-1.15-1.96-5.22-1.96-5.22C549.31,421.59,548.82,419.95,548.65,418.98z"/>
	<path class="st0" d="M555.32,229.26c-0.92-0.68-0.58,0.12-1.73,0.34c-1.16,0.22-0.58,0.46-2.31,1.48c0,0-1.85,1.15-2.78,1.27
		c-0.91,0.1-1.38,0.43-2.53,0.43c-1.15,0-1.61,0.46-2.42,0.25c-0.81-0.25-2.65,1.02-2.65,1.02l-1.51,0.67c0,0-1.03,0.47-1.61,0.25
		c-0.59-0.23-4.27,0.33-4.74,0.22c-0.46-0.11-2.29,0.34-2.29,0.34l-1.05,0.34l-1.84,0.12l-1.73,1.26c0,0-1.85,1.14-2.2,0.8
		c-0.35-0.35-1.73,0.12-1.84-0.24c-0.12-0.32-2.2-0.44-2.2-0.44s-1.38,0.11-2.07,0.32c-0.69,0.23-1.51,0.47-1.51,0.47l-1.49,0.44
		c0,0-2.31,1.27-2.77,1.61c-0.47,0.34-2.09-0.34-2.09-0.34s-3.46-0.34-3.57-0.69c-0.13-0.33-3.01-1.48-3.23-1.93
		c-0.23-0.44-1.87-1.48-2.08-1.82c-0.22-0.35-0.92-2.07-0.92-2.07l-0.56-0.63l-0.71-0.84c0,0-1.97-0.21-2.78,0
		c-0.81,0.23-1.03-0.33-0.92-1.02c0.11-0.68,1.61,0,1.61,0s2.67-1.03,3.01-1.36c0.35-0.34,0.11-1.48,0.45-1.81
		c0.36-0.37-0.58-1.5-0.93-2.18c-0.35-0.68-1.03-0.68-1.03-0.68s-1.39-0.23-1.96-1.02c-0.58-0.81-1.39-0.81-1.85-1.48
		c-0.45-0.69-1.03-1.03-1.38-1.71c-0.35-0.68-0.81-1.36-0.93-2.39c-0.12-1.03-1.97-1.83-1.97-1.83l-4.15-3.99
		c0,0-2.78-1.49-3.36-2.4c-0.58-0.91-1.27-1.25-1.27-1.25s-1.37-0.23-1.6-0.57c-0.25-0.34-1.85-1.02-1.85-1.02l-1.16-0.45
		c0,0-0.92-0.13-1.15-0.69c-0.22-0.57-0.7-1.48-0.7-1.94c0-0.46-2.06-1.47-2.06-1.47s0,0-0.12-0.23c-0.12-0.23-1.73-0.45-2.08-0.58
		c-0.35-0.1-1.03-2.49-1.26-2.95c-0.24-0.45-2.66-7.42-2.78-8.78c-0.1-1.37-0.46-2.28-0.92-3.76c-0.39-1.28-1.13-1.55-1.4-1.88
		c-0.04-0.05-0.07-0.11-0.09-0.17c-0.12-0.45-1.63-1.15-1.74-1.49c-0.11-0.32-3.35-2.38-3.82-3.29c-0.44-0.91-1.95-1.83-2.29-2.05
		c-0.35-0.24-1.17-0.81-1.27-1.38c-0.12-0.57-0.57-2.51-0.57-3.3s-0.48-2.28-0.48-3.19c0-0.91-0.8-3.31-0.68-4.22
		c0.1-0.9,1.16-2.73,1.16-2.73s-2.44-5.71-2.44-6.16c0-0.45-0.57-1.03-1.14-2.29c-0.58-1.25-1.04-1.61-1.16-2.17
		c-0.12-0.56-1.51-0.67-1.97-1.01c-0.46-0.34-0.69-1.38-0.93-2.17c-0.22-0.79-1.39-0.68-1.73-1.24c-0.34-0.58-1.62-0.46-2.19-1.03
		c-0.1-0.09-0.17-0.19-0.26-0.31c-0.42-0.53-0.71-1.17-0.9-1.74c-0.23-0.68-0.45-1.94-0.45-2.5c0-0.57,1.25-1.48,1.25-1.48
		s0-1.27-0.1-1.6c-0.12-0.33-0.12-0.44-0.12-1.02c0-0.59-1.85-2.05-1.85-2.05s-1.05-1.26-1.05-1.94c0-0.7-2.07-1.94-2.07-2.62
		c0-0.68-1.49-2.05-1.73-2.51c-0.24-0.45-1.04-1.82-1.04-2.16c0-0.35-3.12-7.18-3.34-8.19c-0.24-1.03-0.35-0.92-0.59-1.49
		c-0.22-0.57-0.92-1.16-0.92-1.71c0-0.57-0.81-1.14-1.04-1.6c-0.23-0.45-0.81-1.24-1.15-2.04c-0.36-0.81-0.48-0.69-0.48-1.03
		c0-0.33-0.34-1.36-0.57-2.27c-0.24-0.91-1.38-2.51-1.62-3.19c-0.22-0.68-0.92-0.91-1.27-1.37c-0.34-0.46-2.19-1.83-2.19-1.83
		l-0.93-3.64c0,0-0.46-4.22-0.23-3.76c0.23,0.45,0.23,1.94,0.23,1.94s1.62,1.93,1.97,2.17c0.34,0.23,1.03,1.37,1.51,1.14
		c0.45-0.23,0.34,1.37,0.69,1.37c0.34,0,1.26,2.85,1.6,3.31c0.35,0.46,0.58,1.25,0.58,1.25s1.51,1.71,1.86,1.95
		c0.35,0.22,1.72,2.28,1.72,2.28l2.77-0.8c0-0.91,0.58-2.17,0.58-2.85c0-0.68,0.69-2.4,0.69-2.4l0.75-2.53c0,0-0.02,0.02-0.03,0.02
		c0.01,0,0.01-0.02,0.01-0.02l0.66-2.14l0.34,0.92c0,0-0.04,0.22-0.1,0.51c2.26-2.53,0.67-8.4-0.19-11.03
		c-0.71-2.04-2.19-3.76-2.68-5.75c-0.36-1.56-0.07-1.96-1.34-3.19c-0.28,0.29-0.62,0.58-1,0.88c-1.5,1.13-0.81,0.79-1.16,1.01
		c-0.34,0.24-6.13,0.11-8.09,0.35c-1.96,0.23-1.84,0.09-2.31-0.57c-0.46-0.7-1.38-0.33-1.84-1.26c-0.48-0.91-1.27-0.33-1.63-0.69
		c-0.35-0.33-2.19-0.46-2.3-0.8c-0.11-0.32-6.12-0.11-7.74,0.34c-1.61,0.46-1.15,0.7-1.15,0.7s-2.42,1.48-3.8,2.5
		c-1.39,1.03-2.43,1.71-3.35,1.82c-0.91,0.12-0.91,0.34-1.26,0c-0.36-0.34-1.04-0.11-1.74-0.69c-0.69-0.57-1.37-0.34-2.55-0.68
		c-1.14-0.34-2.3-0.22-2.76-0.45c-0.48-0.23-1.84-0.46-2.31-0.58c-0.47-0.11-2.42-0.22-2.42-0.22s-6-2.06-6.35-2.28
		c-0.35-0.24-5.09-0.79-5.09-0.79s-1.96,0.22-2.31,0c-0.35-0.24-1.51,0.32-3.12-0.7c-0.26-0.15-0.51-0.31-0.78-0.5
		c-0.43-0.29-0.91-0.68-1.41-1.31c-0.81-1.02-0.24-0.45-0.58-1.02c-0.35-0.57-0.7-0.35-1.73-0.57c-1.04-0.23-2.08,0.22-2.66,0.33
		c-0.58,0.12-2.31,0-2.31,0s-5.08-0.68-5.65-1.13c-0.58-0.49-0.93,0-1.05-0.7c-0.12-0.66-1.28-0.78-1.38-1.59
		c-0.12-0.79-0.93-0.92-1.74-1.71c-0.8-0.8-1.38-0.11-1.74-0.45c-0.34-0.35-1.39,0.1-2.31-0.68c-0.91-0.81-1.26-0.47-1.73-0.68
		c-0.47-0.24-2.88,0.56-4.38,0.79c-1.52,0.21-0.81,0.45-1.17,0.9c-0.34,0.46-2.76,1.6-3.46,1.26c-0.69-0.36-1.51,1-2.31,1.37
		c-0.81,0.33-1.51,1.25-2.31,1.93c-0.81,0.68-1.27,2.51-1.27,2.51s1.05,2.39,1.15,2.74c0.12,0.33,0.7,2.38,0.81,2.73
		c0.1,0.34-1.62,3.65-1.62,3.65l-3,1.36c0,0-1.95,0.92-2.65,1.03c-0.7,0.12-1.61,0.12-1.97,0.46c-0.35,0.34-1.73-1.48-2.42-2.05
		c-0.69-0.58-1.73-1.15-2.31-1.6c-0.58-0.46-1.51-0.23-2.31-1.14c-0.81-0.91-2.66-0.8-3-1.13c-0.36-0.36-2.08-0.46-2.08-0.46
		s-5.07-0.9-5.19-1.36c-0.11-0.46-1.97,0.46-3.13,0.46c-1.15,0-1.03,0.1-1.26-0.7c-0.23-0.8-1.49-0.34-2.31-0.56
		c-0.81-0.24-0.22-1.16-0.35-2.28c-0.1-1.14-1.26-1.82-1.84-3.08c-0.57-1.25-0.46-1.37-0.69-1.82c-0.23-0.46-0.7-1.04-1.27-1.25
		c-0.58-0.23-2.07,0.34-2.78,0.21c-0.68-0.11-4.72-2.96-4.72-2.96l-4.62-0.91c0,0-4.27,0.91-4.63,0.47
		c-0.34-0.47-1.61,0.23-2.53,0.23c-0.94,0-1.39-0.36-1.39-0.36s-1.15-0.57-1.73-1.23c-0.58-0.69-1.28-0.58-1.97-0.92
		c-0.46-0.23-1.13-0.55-1.75-0.91c-0.34-0.18-0.66-0.38-0.89-0.59c-0.69-0.56-1.39-1.24-1.75-1.7c-0.34-0.45-0.8-1.6-1.27-2.05
		c-0.46-0.45-1.97-0.12-1.97-0.12s-0.56,1.16-1.25,0.91c-0.69-0.22-1.27-0.33-1.97-1.24c-0.68-0.92-1.16-0.8-1.61-1.7
		c-0.46-0.93,0.22-0.46,0.8-1.04c0.58-0.57,0.93-1.03,1.15-1.59c0.24-0.58,1.87-0.92,2.09-1.27c0.23-0.33,1.39-0.9,2.09-1.59
		c0.68-0.68,1.03-1.72,1.39-2.4c0.34-0.68,0.22-0.79,0.22-1.59c0-0.79,0-1.36,0-1.71c0-0.35-2.31-3.76-2.88-4.33
		c-0.58-0.57-1.27-1.02-1.27-1.82c0-0.8,0.45-0.69,0.81-1.48c0.34-0.8,0.8-0.92,1.25-1.93c0.48-1.04,1.39-1.37,1.75-3.2
		c0,0-1.06-0.8-1.41-0.68c-0.34,0.11-2.17,2.06-3.56,2.28c-1.39,0.23,0,0-0.11-0.8c-0.12-0.79-0.36-1.92-0.46-2.72
		c-0.12-0.81-1.39-0.57-2.44-1.49c-1.03-0.92-1.38,0-1.72-0.23c-0.35-0.22-1.96,1.03-2.32,1.15c-0.34,0.1-1.38,0.91-1.38,0.91
		s-4.52,1.66-6.15,2c-0.29,0.05-0.48,0.08-0.55,0.04c-0.45-0.23-1.97,0.68-2.54,0.23c-0.58-0.45-1.39,0.11-2.19-1.25
		c-0.81-1.36-1.38,0.1-1.62-0.24c-0.24-0.32-0.93,0.57-1.27,0.24c-0.36-0.32-2.07,0.68-2.55,0.33c-0.46-0.33-1.04,0.12-1.38-0.33
		c-0.35-0.45-1.96-0.56-2.44-0.56c-0.45,0-1.38,0.66-1.83,0.79c-0.48,0.11-1.63,1.25-1.63,1.25s-3,2.06-4.61,1.83
		c-0.36-0.05-1.49-1.03-1.49-1.03L218.31,36l-6.36-0.58c0,0-2.75,0.58-3.1,0.35c-0.34-0.24-2.19,0.1-3.48,0.23
		c-1.26,0.11-0.68,0.45-1.15,0.22c-0.46-0.22-1.6,1.03-2.41,1.15c-0.81,0.12-3.02,1.26-3.58,1.26c-0.57,0-5.9,0.57-7.51,0.33
		c-1.61-0.22-2.31,1.26-2.89,1.15c-0.58-0.11-1.04,1.02-1.61,1.36c-0.59,0.34-1.39,1.03-1.97,1.25c-0.57,0.23-2.43,1.83-3,1.72
		c-0.58-0.1-0.46-0.92-0.46-0.92s-5.54,1.94-5.88,1.83c-0.34-0.12-1.03,1.03-1.51,1.26c-0.45,0.23-1.27,1.01-1.61,1.36
		c-0.35,0.35-1.51,1.73-1.51,1.73l-1.71,1.36c0,0-1.17,0.56-1.52,0.32c-0.34-0.23-1.14,0.23-2.07-0.11
		c-0.92-0.35-1.16,0.34-1.39-0.45c-0.22-0.8-1.02-0.46-1.26-0.91c-0.23-0.46-1.96,0.68-2.42,0c-0.46-0.69-0.24-0.46-0.93-1.25
		c-0.68-0.81-1.27,0.23-1.85,0.11c-0.58-0.11-1.73,0.35-1.73,0.35l-1.28,0.59c0,0-2.54,0.43-3.12,0.43c-0.58,0-2.41-0.43-2.41-0.91
		c0-0.45-2.78,0.23-3.01-0.67c-0.24-0.93-3.82-1.27-3.82-2.08c0-0.78-0.92-0.66-1.03-1.36c-0.12-0.68-1.51-0.68-1.51-1.02
		c0-0.34-0.69,0.68-1.04,0.91c-0.35,0.22-0.8,1.02-1.39,2.04c-0.56,1.03-0.1,1.03-0.35,1.83c-0.21,0.81-1.95,4.22-1.95,4.22
		s-0.45,1.01-0.7,1.48c-0.22,0.45-0.68,1.47-0.8,1.82c-0.11,0.34-0.69,1.59-1.03,1.7c-0.36,0.13-1.39,1.83-1.87,1.61
		c-0.45-0.24-1.73,1.7-1.73,1.7l-3.46,1.26c0,0-2.54,1.13-2.89,0.8c-0.34-0.35-1.63,0.9-1.96,0.9c-0.34,0-1.26,1.49-2.53,2.64
		c-1.27,1.13-1.51,1.81-2.19,2.37c-0.71,0.58-1.51,2.07-1.74,2.4c-0.23,0.34-1.5,2.28-1.85,2.74c-0.35,0.45-0.24,1.83-0.24,1.83
		s-1.84,8.67-1.95,9.46c-0.12,0.79,0,1.93,0.46,1.93c0.46,0,0.13,2.29,0.24,2.85c0.1,0.56-0.24,0.9-0.58,1.37
		c-0.34,0.46-1.16,1.94-1.51,2.27c-0.35,0.35-1.15,1.72-1.61,2.06c-0.46,0.34-0.69,0.92-1.51,1.81c-0.8,0.93-1.5,0.81-2.31,1.15
		c-0.8,0.34-1.03,1.13-1.03,1.13l-0.92,1.36c0,0-0.93,1.14-1.51,1.49c-0.58,0.35-1.39,1.14-2.19,1.7c-0.81,0.58-2.2,1.26-2.66,1.14
		c-0.45-0.1-7.5,2.63-8.08,2.75c-0.57,0.11-1.84,1.92-2.42,2.62l0.04,0.07c-0.59,0.68-1.05,3.75-1.05,3.75l-1.15,1.94
		c0,0-2.19,2.05-2.54,2.17c-0.35,0.11-2.43,1.48-2.43,1.48s-1.84,1.94-2.31,2.06c-0.46,0.12-0.58,2.62-0.58,2.62
		s-0.69,2.39-0.91,2.73c-0.24,0.34-1.39,3.07-1.39,3.07s-1.85,2.17-2.07,2.52c-0.24,0.34-1.39,1.72-1.73,2.06
		c-0.36,0.33-1.16,1.13-1.73,1.58c-0.57,0.46-1.05,1.82-1.38,2.4c-0.35,0.57-0.24,1.01-0.46,2.05c-0.26,1.03-0.48,2.28-0.81,2.98
		c-0.35,0.67-1.85,4.54-3.12,5.58c-1.27,1.03-1.96,1.82-2.33,2.5c-0.34,0.68-0.91,1.48-0.91,2.06c0,0.45-0.51,2.2-1.07,3.83
		c-0.02,0-0.04,0-0.06,0c-0.13,0.39-0.28,0.77-0.39,1.12c-0.71,1.84-0.23,2.96,0.11,3.08c0.34,0.12,0.46,0.23,1.61-0.58
		c1.16-0.79,2.66,2.97,3.12,2.97c0.46,0,2.32,4.78,2.42,5.12c0.12,0.36-0.81,1.6-1.61,2.17c-0.81,0.56-0.59,1.83-0.59,1.83
		s0.59,1.37,1.05,1.71c0.45,0.34,0.81,1.71,0.81,1.71l0.8,3.08c0,0,0.93,3.53,0.93,3.88c0,0.33-1.15,2.15-1.15,2.15
		s-1.73,1.83-1.85,4.22c-0.12,2.39-0.12,3.3-0.46,3.54c-0.14,0.08-0.28,0.43-0.39,0.81c-0.18,0.57-0.29,1.23-0.29,1.23
		s-0.46,3.3-1.27,3.87c-0.82,0.57-0.34,1.83-0.58,2.17c-0.24,0.34-2.08,2.27-2.88,2.84c-0.81,0.59-1.05,2.06-0.58,2.16
		c0.46,0.13,0.92,2.06,1.38,2.41c0.46,0.34,0.46,1.82,1.16,1.71c0.69-0.12,2.32,2.38,2.32,2.38s-0.12,2.75,0.22,2.63
		c0.35-0.11-0.34,0.46-0.92,1.14c-0.58,0.68-0.7,1.24-0.94,1.94c-0.22,0.68,0.36,1.59,0.36,1.59l0.22,2.49c0,0-0.22,1.03,0,1.26
		c0.08,0.07,0.17,0.25,0.29,0.47c0.25,0.47,0.53,1.13,0.53,1.13s1.15,0.46,1.61,0.46c0.47,0,0.12,1.02,0.47,1.48
		c0.34,0.45,1.27,0.91,1.72,0.68c0.47-0.23,0.93,0.23,1.51-0.34c0.58-0.57,1.84,0.34,2.42,0.22c0.58-0.11,1.73,1.14,1.73,1.14v1.93
		c0,0,0,1.25,0,1.61c0,0.33,0.57,1.14,0.92,1.02c0.28-0.1,0.83,0.83,1.73,1.67c0.18,0.18,0.37,0.35,0.59,0.51
		c0,0,0.68,1.59,1.27,2.05c0.58,0.44,1.37,1.71,1.97,2.05c0.58,0.35,1.74,0.91,1.74,0.91s2.86,2.63,5.65,6.6
		c0.95,1.36,1.31,2.04,1.43,2.36c0.03,0.07,0.06,0.14,0.06,0.18c0.56,0.44,1.34,1.75,1.74,2.15c0.47,0.46,1.63,3.19,1.63,3.76
		c0,0.57-0.23,2.17-0.23,2.17l0.69,1.36c0,0,1.5,0.11,2.08,0.11c0.56,0,0.46,1.14,0.8,1.26c0.36,0.11,2.33,1.25,2.66,1.37
		c0.35,0.11,1.04,2.27,2.07,2.96c0.15,0.11,0.33,0.19,0.5,0.28c1.14,0.58,2.86,1.09,2.86,1.09s3.34,1.03,4.39,2.51
		c1.02,1.47,2.41,2.62,3.1,3.17c0.7,0.6,1.84,1.62,2.19,2.28c0.35,0.69,2.08,1.15,2.08,1.15s1.85,1.14,1.96,1.6
		c0.12,0.47,1.49,1.26,1.84,1.47c0.35,0.23,2.09,1.61,2.43,1.83c0.35,0.22,2.65,0.68,3.24,1.02c0.56,0.35,3.23,1.48,3.81,1.6
		c0.57,0.12,2.76,0.35,2.76,0.35c0.12-0.07,0.23-0.12,0.33-0.17c2.65-1.25,3.88-1.7,5.1-3.02c1.28-1.38,1.28-0.35,2.09-0.81
		c0.8-0.44,2.53-0.33,4.03-1.37c1.5-1.02,2.31-0.22,4.39-1.02c2.07-0.8,3.24,0.23,4.26-0.22c1.05-0.46,5.78,0,7.51-0.35
		c1.72-0.35,2.53,0,3.36,0.22c0.3,0.09,0.8,0.19,1.4,0.32c0.93,0.19,2.15,0.38,3.55,0.61c2.31,0.33,2.19,2.37,2.77,3.06
		c0.58,0.69,1.27-0.12,1.27-0.12s2.19-1.59,3.92-2.27c1.73-0.68,2.9-1.03,4.05-2.06c1.16-1.03,1.27-1.15,1.85-1.36
		c0.57-0.23,0.92,0.22,2.76-0.23c1.85-0.46,1.85-0.12,2.77-0.46c0.79-0.3,1.57-0.67,2.28-1.19c0.13-0.1,0.26-0.2,0.38-0.28
		c0.8-0.7,1.28-1.15,2.31-1.15c1.03,0,2.77-0.8,3.94-1.38c1.06-0.51,1.35-0.56,2.35-0.81c0.1-0.03,0.19-0.07,0.29-0.1
		c1.27-0.33,1.61-0.55,1.61-0.55s4.75-0.23,6.35-1.5c1.62-1.24,1.97,0.59,1.97,0.59s0.35-0.07,0.93-0.13
		c0.61-0.07,1.51-0.17,2.52-0.22c1.97-0.12,3.48-0.69,5.33-0.12c1.84,0.56,1.61,2.04,2.78,2.28c1.15,0.23,1.49,2.17,3.22,1.81
		c1.73-0.34,1.39,2.4,2.19,2.64c0.81,0.23-0.12,2.27,0.12,3.42c0.23,1.13,0.92,2.61,2.19,3.19c1.27,0.56,1.85,1.82,2.32,1.37
		c0.46-0.45,5.75-0.34,7.15,0.12c1.39,0.46,2.55,0.22,3.36-0.1c0.8-0.35,2.53-0.92,3.46-1.38c0.93-0.45,3.24-1.36,4.39-1.7
		c1.15-0.35-0.12,0.57-0.34,1.81c-0.08,0.37-0.06,0.68,0.01,0.98c0.18,0.76,0.72,1.32,1.12,1.66c0.58,0.44,1.27,1.81,1.85,1.92
		c0.58,0.12,1.73-0.8,2.65-1.13c0.93-0.35,1.39,2.05,1.86,2.16c0.46,0.12,1.49,3.98,2.07,4.33c0.58,0.34,0,5.01,0.47,5.01
		c0.38,0-0.98,2.05-1.67,3.02c-0.13,0.17-0.24,0.32-0.3,0.4c-0.48,0.57-0.81,1.7-0.48,2.73c0.36,1.03,0.12,2.05,0.24,3.77
		c0.12,1.71-0.34,2.28-0.12,4.57c0.24,2.28-1.71,2.51-2.66,3.41c-0.92,0.91-0.92,3.53-0.8,5.01c0.11,1.49-0.13,3.77,0.11,4.56
		c0.24,0.79,1.85,4.67,2.76,4.67c0.94,0,1.63,3.31,2.2,2.97c0.59-0.35,4.74,4.9,7.63,9.12c1.18,1.7,1.91,2.82,2.47,3.53
		c0.78,1.07,1.14,1.3,1.68,1.36c0.94,0.12,2.55,3.65,4.62,5.25c0.09,0.07,0.17,0.14,0.25,0.21c1.81,1.66,1.73,4.71,1.73,5.26
		c0,0.23,0,0.76,0,1.37c0,0.88,0.03,1.91,0.11,2.4c0.12,0.79,1.26,2.6,2.19,3.87c0.92,1.26,1.74,4.12,3,5.46
		c1.26,1.38,1.26,3.2,2.65,4.45c1.39,1.27-0.44,2.62-0.8,3.64c-0.34,1.03-2.08,2.63-2.19,3.08c-0.12,0.47,1.26,3.08,2.55,5.37
		c1.26,2.28,1.83,5.57,3.1,7.29c1.27,1.7,0.24,3.3,0.36,3.87c0.1,0.59,0.34,2.04,0.44,2.85c0.13,0.8-0.8,3.31-0.8,3.31
		s-1.15,1.7-1.51,2.16c-0.34,0.46-1.73,1.14-2.75,1.7c-1.05,0.57-2.08,1.71-2.78,2.75c-0.7,1.01-1.38,2.73-1.05,3.53
		c0.34,0.8-1.25,2.49-1.6,2.6c-0.36,0.12-1.39,4.11-1.29,5.02c0.12,0.91-0.46,3.87-0.46,4.22c0,0.34-1.26,3.32-1.5,3.63
		c-0.23,0.36-0.56,1.49-0.8,2.52c-0.24,1.03-0.93,3.07-0.93,3.07v5.24c0,0-0.04,0.36-0.09,0.93c-0.17,2.13-0.48,7.32,0.43,8.75
		c1.15,1.84,0.69,2.06,1.15,2.62c0.46,0.58,1.16,1.59,2.19,1.71c1.05,0.12,1.16,1.94,1.73,2.28c0.57,0.34,1.96,2.73,2.54,2.86
		c0.58,0.11,0.93,3.51,0.93,3.51s1.16,2.86,1.62,2.74c0.45-0.1,2.06,5.01,2.06,5.01l0.82,2.4c0,0,0.81,0.35,1.15,0.93
		c0.36,0.56,0.48,1.35,1.16,1.58c0.69,0.23,0.69,1.02,2.54,2.64c1.85,1.57,1.39,2.6,1.73,3.17c0.36,0.57,0.58,2.17,0.58,2.85
		c0,0.68,0.23,2.96,0.23,2.96s-1.49,4.8-1.73,5.24c-0.23,0.47,0.24,1.48,0.8,2.17c0.59,0.67,0.7,1.83,1.28,2.16
		c0.58,0.35,0.58,2.28,1.05,2.16c0.45-0.1,0.34,3.19,0.69,4.69c0.35,1.47-0.46,2.05-0.58,2.38c-0.11,0.36-0.35,0.91,0,2.06
		c0.34,1.14,0.45,1.25,1.51,5.23c1.03,3.99,0.92,3.19,1.61,3.65c0.7,0.47,0.58,3.19,1.05,2.96c0.46-0.22,3.68,5.81,5.31,8.22
		c1.43,2.1,1.59,1.99,2.17,2.49c0.08,0.07,0.17,0.14,0.26,0.24c0.8,0.79,1.5,2.16,2.19,3.07c0.69,0.91,1.49,2.06,2.42,2.06
		c0.92,0,0.58,2.38,0.58,3.18c0,0.8,0.8,2.75,0.91,3.19c0.13,0.46,0.6,2.73,0.46,3.31c-0.12,0.58,0.93,1.94,2.09,3.2
		c1.15,1.25,1.84,1.48,2.41,2.04c0.59,0.57,0.81,2.85,1.17,3.09c0.35,0.22,1.61,1.7,1.73,2.17c0.12,0.44,0.12,4.43-0.34,5.69
		c-0.47,1.24,0,0-1.51,1.24c-1.5,1.27-1.61,0.8-1.61,0.8l0.36,1.49c0,0,0.68,2.16,1.38,1.82c0.69-0.35,1.61,3.2,1.84,3.77
		c0.22,0.57,0.12,0.91,0.12,0.91s0,1.36-0.12,2.28c-0.12,0.93,1.16,0.57,1.39,0.24c0.22-0.35,1.39,0.45,1.73,0.78
		c0.35,0.34,1.16,0.81,1.73,0.81c0.57,0,0.57,1.37,0.57,1.37s0.8,1.02,1.16,0.91c0.35-0.1,1.03,1.14,2.55,0.46
		c1.49-0.69,1.95,0.57,4.38,1.26c0.74,0.21,1.61-1.04,2.2-1.61c0.56-0.56,1.15-0.68,1.15-0.68l2.54-0.79c0,0,1.16-0.12,3.69,0
		c2.54,0.12,1.03-0.91,1.96-1.37c0.92-0.43,1.04,0.91,2.3,0.23c1.28-0.67,0,0,1.62-0.92c0.59-0.31,0.47-0.68,1.38-1.47
		c0.94-0.8,0.58,0.23,2.09-0.34c0,0,0.69,0.22,2.3,1.02c0,0,1.15,0.12,2.19-0.22c1.05-0.35,0.7,0.1,1.16-0.35
		c0.47-0.45,0.7,0.11,1.27,0c0.58-0.12,1.03,0.56,1.85,0.45c0.81-0.1,1.38,0.23,2.54,0.91c0,0,2.99,1.15,4.28,0.58
		c0.33-0.16,0.68-0.79,0.92-1.49c0.23-0.68,1.15-0.22,1.39-0.56c0.24-0.34,1.39,0.68,1.39,0.68l1.38,0.24c0,0,0.81-0.57,1.38-1.04
		c0.58-0.46,0.58-0.57,1.72-2.04c0.3-0.38,1.62,0.34,2.66,0.22h1.51c0,0,1.15,0.12,1.96-0.45c0.81-0.56,0.91,0,1.74-0.69
		c0.8-0.68,1.15-0.46,1.73-0.79c0.58-0.35,1.61-1.37,1.61-1.37s1.85-1.26,3.58-2.63c0.46-0.35,1.03-0.91,2.42-2.28
		c1.38-1.36,0.82-0.56,1.38-1.49c0.59-0.89,0.59-0.33,0.95-1.01c0.34-0.69,1.02-0.93,1.83-1.94c0.81-1.03,1.05-0.81,2.42-1.95
		c1.38-1.14,1.38-1.03,1.97-1.94c0.58-0.9,1.73-1.35,3.46-3.42c1.73-2.05,0,0,0-0.34c0-0.34,1.85-1.15,2.2-1.37
		c0.34-0.23,1.61-2.28,1.95-2.96c0.34-0.68,0.12-0.57,0.46-1.38c0.36-0.79,1.27-1.7,1.74-2.61c0.46-0.91,1.26-1.26,1.5-1.71
		c0.23-0.45,1.05-1.03,1.05-1.03s0.91-1.13,1.02-1.59c0.14-0.45,1.63-2.04,1.97-2.62c0.36-0.56,0.7-0.8,0.93-1.24
		c0.23-0.47,0.92-0.47,1.27-0.92c0.35-0.46,2.07-2.05,2.31-2.51c0.22-0.46,0.91-1.15,1.62-2.51c0.69-1.37,0.34-1.02,0.69-2.05
		c0.35-1.03,0.69-1.37,1.04-2.04c0.35-0.69,1.15-1.83,1.27-2.74c0.1-0.92-0.35-1.26,0.22-2.63c0.35-0.82,0.58-1.32,0.67-1.76
		c0.06-0.28,0.08-0.55,0.03-0.87c-0.1-0.79,0.24-1.13,0.12-1.93c-0.12-0.78,0.58-0.68,1.03-1.26c0.48-0.55,0-1.02-0.22-1.82
		c-0.23-0.79-0.81-1.48-0.81-1.48s-0.56,0.92-1.38,0.12c-0.81-0.8,0,0-0.81-0.8c-0.81-0.8,0,0,0.1-1.71
		c0.13-1.72,0.48-0.45,1.16-1.36c0.71-0.93,0.71-0.47,1.29-1.27c0.57-0.79,1.03-0.69,2.19-1.6c1.15-0.92,1.61-0.57,2.64-1.26
		c1.05-0.69,1.85-0.46,2.44-0.69c0.58-0.22,3.11-1.14,3.11-1.14s1.73,0,2.08-0.45c0.35-0.45,2.08-1.36,2.43-1.6
		c0.34-0.22,2.07-0.8,2.07-0.8s0.81-2.28,0.69-3.19c-0.11-0.9,0.24-0.68,0.58-2.38c0.36-1.71,0.12-0.58,0.23-1.84
		c0.13-1.24,0.35-1.92,0.35-1.92s0.46-0.92,0.46-1.83c0-0.91-0.1-2.05,0-2.39c0.12-0.34-0.34-0.79-0.23-2.05
		c0.12-1.26-1.03-0.91-0.93-1.95c0.12-1.02,0-0.44,0.24-1.37c0.24-0.9-0.35-0.68-0.7-1.46c-0.34-0.8-0.57-0.91-1.03-1.71
		c-0.47-0.8-0.69-0.69-0.69-1.47c0-0.81,0.35-1.05,0.46-2.29c0.12-1.27,0-1.04,0-1.95c0-0.91-0.34-0.91-1.05-1.7
		c-0.69-0.8-0.8-0.34-1.95-1.72c-1.16-1.36,0-0.45-0.12-1.47c-0.1-1.03,0.23-0.57,0.23-1.03c0-0.45,0.1-0.8-0.34-1.58
		c-0.48-0.82-0.36-1.72-0.36-1.72c0.46-0.23,1.03,1.24,1.03,1.24s0.81,0,1.5-1.24c0.7-1.26,1.17-1.02,1.98-1.94
		c0.8-0.91,0.91,0.12,1.38-0.35c0.48-0.45,0.81-0.34,1.27-0.91c0.46-0.56,1.39-0.91,2.54-2.16c1.16-1.26,0.92-0.68,1.39-1.14
		c0.46-0.46,1.27-1.71,1.38-2.04c0.11-0.35,0.47-1.03,0.47-1.03s1.03-0.68,2.19-1.71c1.15-1.03,1.38-1.37,2.19-2.29
		c0.81-0.91,0.81-0.68,1.5-1.25c0.71-0.56,0.71-0.11,1.74-0.69c1.03-0.56,1.28-0.45,1.96-0.79c0.71-0.34,0.93-0.22,1.86-1.02
		c0.92-0.81,1.6-0.7,3.45-1.6c0.33-0.16,3-1.48,3-1.48s2.2-1.01,2.78-0.79c0.58,0.23,4.27-4.22,6.58-6.38
		c2.31-2.17,1.03-1.03,1.5-1.83c0.47-0.8,0.81-0.91,1.04-1.59c0.24-0.68,0.81-4.11,1.04-4.78c0.23-0.69,0.12-1.26,0.12-2.06
		c0-0.79-0.23-1.93-0.23-2.62c0-0.68-0.35-2.17,0.12-3.19c0.46-1.03-0.81-1.71-0.81-2.96c0-1.28,0.23-1.38,0.23-2.17
		c0-0.79-0.34-2.16-0.46-3.31c-0.11-1.13-0.23-1.36-0.33-2.28c-0.13-0.9-0.13-0.56-0.35-3.07c-0.24-2.49,0.45-1.95,0.45-2.85
		c0-0.91,0.23-1.24,0.47-1.71c0.23-0.45-0.13-5.13-0.13-5.69c0-0.28-0.3-0.81-0.63-1.33c-0.33-0.53-0.69-1.07-0.75-1.3
		c-0.11-0.46-0.68-0.68-1.03-1.15c-0.35-0.44-1.04-0.91-1.16-1.24c-0.11-0.35-0.8-1.37-0.92-1.94c-0.12-0.56-1.61-0.56-1.85-0.9
		c-0.22-0.34-0.35-1.6-0.47-2.4c-0.1-0.81-0.68-0.91-1.38-2.05c-0.69-1.14-0.45-1.37-1.15-3.08c-0.69-1.71-0.34-0.68-0.12-1.37
		c0.24-0.69,0.58-0.45,0.82-1.24c0.23-0.82,0.81-0.93,0-1.95c0,0-0.35-1.14-0.58-1.58c-0.24-0.47,0.58-1.16,0.58-1.16l1.03-1.24
		c0,0,0.46-2.04,0.46-2.39c0-0.33-0.35-0.45-1.84-2.17c-1.52-1.71-1.04-1.14-1.62-1.71c-0.58-0.58-1.04-0.92-1.27-1.71
		c-0.22-0.79-0.34-0.79-0.22-1.7c0.1-0.91,0-1.59,0-2.39c0-0.8,0-0.46,0.35-1.49c0.33-1.02,0,0,0.69-1.25
		c0.49-0.89,0.94-1.71,1.38-2.66c0.2-0.38,0.38-0.78,0.59-1.22c0.69-1.47,0.58-0.79,0.8-1.83c0.23-1.02,0.81-0.79,1.39-2.51
		c0.58-1.7,0.92-1.49,1.74-2.84c0.81-1.38,0.92-2.29,1.03-3.88c0.12-1.6,0.7-2.28,1.17-2.62c0.46-0.34,0.91-0.34,1.6-0.91
		c0.7-0.57,1.16-1.02,1.86-2.17c0.7-1.14,1.49-2.17,1.96-2.72c0.47-0.59,1.84-0.46,1.84-0.46s1.74-0.23,2.31-1.72
		c0.16-0.4,0.34-0.67,0.52-0.9c0.48-0.58,1.05-0.69,1.56-1.26c0.69-0.78,0.81-1.36,1.38-2.16c0.58-0.8,0.58-0.8,1.17-2.05
		c0.56-1.26,0.45-0.55,1.04-1.36c0.58-0.79,1.73-1.38,3-2.74c1.27-1.37,0.8-0.34,1.61-1.7c0.82-1.37,1.15-0.58,2.2-2.17
		c1.04-1.6,1.26-1.03,2.08-2.51c0.81-1.48,2.06-1.93,2.64-2.97c0.58-1.01,1.04-0.89,2.44-2.05c1.38-1.14,1.95-1.24,2.65-1.7
		c0.7-0.45,1.49-0.68,1.85-1.03c0.35-0.34,2.54-1.13,2.54-1.13l1.61-0.79c0,0,4.74-3.21,5.32-3.89c0.56-0.68,1.72-0.91,1.95-1.24
		c0.22-0.35,1.03-0.8,1.51-1.61c0.46-0.81,1.04-1.04,1.38-1.82c0.35-0.81,1.97-2.52,1.97-2.52s5.31-6.04,5.66-6.5
		c0.34-0.45,3-3.4,3.34-3.75c0.34-0.34,0.82-0.79,1.04-1.8c0.23-1.04,2.31-2.3,2.54-3.78c0.22-1.48,1.03-2.4,1.27-3.19
		c0.22-0.81,1.39-1.38,1.5-1.82c0.11-0.47,0.81-0.8,1.84-2.28c1.05-1.48,0.58-1.37,0.93-2.29c0.34-0.89,0.58-1.14,1.5-2.6
		c0.91-1.49,0,0,0.34-0.8c0.35-0.79,1.51-2.29,2.32-3.54c0.8-1.26,0.46-0.92,1.15-1.82c0.68-0.92,0,0,1.15-2.38
		c1.16-2.41,0.58-1.15,1.27-1.48c0.68-0.37,0.1-1.38,0.8-2.17c0.69-0.79,0.46-0.56,0.93-1.59c0.45-1.03,0.81-1.26,1.25-2.41
		c0.47-1.13,0-0.66,0-2.15c0-1.48,0.47-1.38,0.7-2.06c0.24-0.68,0.46-1.25,0.69-1.59c0.23-0.35,1.16-1.14,1.16-1.14
		s0.58-4.91,0.47-5.36c-0.12-0.45-0.93-3.07-1.05-4.23C556.35,229.49,556.25,229.95,555.32,229.26z"/>
</g>
</svg>
