<?xml version="1.0" encoding="utf-8"?>
<!-- Generator: Adobe Illustrator 24.1.1, SVG Export Plug-In . SVG Version: 6.00 Build 0)  -->
<svg version="1.1" id="Layer_1" xmlns="http://www.w3.org/2000/svg" xmlns:xlink="http://www.w3.org/1999/xlink" x="0px" y="0px"
	 viewBox="0 0 612 612" style="enable-background:new 0 0 612 612;" xml:space="preserve">
<style type="text/css">
	.st0{fill:#F4D835;}
</style>
<g>
	<path class="st0" d="M487.84,169.14c-0.24-0.9-0.17-1.71-0.28-2.42c0.18,0.36,0.29,0.48-0.07-0.26c-0.05-0.29-0.17-0.53-0.36-0.79
		c-0.01,0-0.03,0-0.03-0.01c-0.21-0.43-0.49-0.99-0.85-1.72c-3.17-6.23-2.64-7.27-4.03-7.09c-1.43,0.18-2.82,0.33-4.05,0.18
		c-1.22-0.18-0.89-0.87-2.12-0.87c-1.23,0-3.69,0-3.69,0s-0.35,0.69-1.76-0.51c-1.41-1.22-2.11-1.75-2.46-2.96
		c-0.37-1.21-0.71-3.28-1.94-3.98c-1.24-0.69-2.64-1.03-3.17-1.21c-0.52-0.18-1.05-1.22-2.29-1.75c-1.22-0.5-2.62-2.42-3.15-2.58
		c-0.53-0.17-1.76-1.23-2.64-1.73c-0.88-0.52-2.81-1.58-3.33-1.92c-0.53-0.35-3.35,0.34-3.7-0.35c-0.35-0.68-0.88-0.68-1.94-1.03
		c-1.05-0.35-2.1-1.04-3.69-0.51c-1.58,0.51-1.76-0.18-3.35,0.86c-1.58,1.03-1.58,0.18-3.15,0.68c-1.6,0.53-1.23-0.34-2.82-0.5
		c-1.57-0.18-2.11-2.09-3.87-1.74c-1.75,0.34-1.93-0.17-2.63-0.35c-0.7-0.16-0.35-1.39-2.29-1.9c-1.93-0.52-1.39-1.73-2.98-0.52
		c-1.58,1.21,0.36,0-1.58,1.21c-1.94,1.21-3.86,1.38-3.86,1.38c-1.76-0.18-0.53-1.38-1.76-0.18c-1.23,1.21,0.53,1.74-1.23,1.91
		c-1.75,0.18-2.12-0.52-1.06-2.25c1.06-1.73,1.15-1.71,1.06-2.43c-0.36-2.95-0.71-2.6-1.93-3.81c-1.24-1.21-1.76-0.69-2.64-1.03
		c-0.87-0.35-2.46-0.35-2.99-1.04c-0.53-0.71-1.22-0.36-1.76-1.05c-0.53-0.69-1.93-1.04-2.82-0.69c-0.86,0.34-2.27-1.05-2.98-0.86
		c-0.7,0.17-1.4-1.58-2.29-1.22c-0.86,0.34-0.86-1.55-1.92-1.21c-1.05,0.35-0.7-1.56-1.76-1.38c-1.05,0.16-1.23-0.35-2.1,0.51
		c-0.9,0.87-0.54-0.51-1.42-0.17c-0.88,0.35-1.93-0.87-2.82,0.17c-0.87,1.05-0.87-0.35-1.75,1.39c-0.88,1.73-0.99,1.98-2.1,3.46
		c-1.59,2.08-1.59,1.22-3.35,2.76c-1.74,1.57-1.05,0.2-1.74,1.57c-0.71,1.39-0.55,0.7-1.59,1.57c-1.05,0.87-0.88-0.34-1.05,0.87
		c-0.2,1.21-0.2,1.21-0.2,1.21s0.37-3.47-1.22-2.94c-1.59,0.52-3.53,0.87-3.53,0.87s-1.75-1.74-2.45-1.74c-0.7,0-0.72-0.29-1.76-1.2
		c-1.76-1.57,2.81,0.33,3.69,0.16c0.88-0.16-0.18,0,2.27-0.16c2.48-0.2,2.99,0,4.24-0.2c1.23-0.16,4.03-1.71,4.03-1.71
		s0.53-0.51,0.71-1.57c0.17-1.03,0.17-1.21,0.52-2.25c0.36-1.03,0.36-2.08,0.53-2.95c0.18-0.86,1.05-2.08-0.53-2.08
		c-1.57,0-3.67,0.35-4.55,0.18c-0.89-0.18-1.23-0.69-2.47-0.18c-1.23,0.52-1.23,0-3.7-0.51c-2.46-0.52-1.05-2.08-3.16-0.35
		c-2.11,1.73-3.16,1.91-3.16,2.59c0,0.71,0.72-0.17,0.88,1.91c0.17,2.09,0.17,3.82-0.53,3.65c-0.7-0.17-1.58-1.21-1.41-1.56
		c0.18-0.36-0.98-1.08-1.23-1.73c-1.04-2.77-1.94-2.59-1.23-3.64c0.72-1.05,0.52-0.87,1.42-2.09c0.88-1.21-0.9-0.68,1.57-1.72
		c2.47-1.04,2.47-0.87,3.69-1.73c1.23-0.88,1.76-0.88,2.3-1.91c0.51-1.04-0.36-1.4,0.51-2.62c0.88-1.21,1.41,2.43,0.7-1.9
		c0,0-0.34-2.09-0.16-2.6c0.16-0.51-0.35-1.56-0.88-1.74c-0.53-0.17-2.11-1.55-2.64-1.55c-0.52,0-1.58-1.39-2.27-1.22
		c-0.72,0.17-0.53-1.4-0.72-2.08c-0.18-0.69,0.18-1.74,0.18-2.6c0-0.86,0.53-1.74-0.71-2.95c-1.23-1.21-0.53-2.08-1.23-3.28
		c-0.71-1.23,0.7-0.7-0.71-2.96c-1.39-2.23-3.15-1.89-3.15-1.89s-0.31-0.48-0.74-1.07c-0.66-0.9-1.56-2.08-2.08-2.38
		c-0.86-0.53-3.68-3.13-4.74-3.49c-1.05-0.34-1.93-0.87-3.17-1.38c-1.23-0.51-1.39-1.89-2.97-1.56c-1.59,0.34-0.53-1.39-1.96-1.39
		c-1.39,0-0.7-1.02-1.74-0.85c-1.05,0.16-0.71-1.22-1.77-1.05c-0.13,0.03-0.28,0.03-0.45,0.03c-1-0.06-2.3-0.65-3.06-0.19
		c-0.88,0.51-0.7,0-2.1,0.51c-1.41,0.53-2.13-1.37-3.17-0.7c-1.04,0.7,0.35-0.33-1.94-0.33c-2.29,0-2.64-0.52-3.86,0
		c-1.25,0.52-0.9,1.37-1.59,1.57c-0.7,0.17-0.17-1.73-2.29-0.71c-2.11,1.04-1.76,0.35-2.82,0.87c-0.56,0.29-0.79,0.08-1.02-0.22
		c-0.2-0.26-0.37-0.62-0.74-0.82c-2.1-1.21-2.27-1.89-3.15-3.11c-0.88-1.22-4.75-3.64-4.92-3.47c-0.19,0.19-0.19-0.69-1.42-0.5
		c-1.22,0.16-2.96,0.95-3.15-0.19c-0.37-2.08-0.18-1.37-0.37-2.77c-0.17-1.38-1.05-1.73-1.56-2.59c-0.53-0.86-0.2-1.73-1.59-2.06
		c-1.41-0.36-1.76-0.54-2.29-1.41c-0.53-0.85-1.4-1.21-2.46-1.55c-0.73-0.24-1.36-0.71-1.93-1c-0.25-0.13-0.5-0.21-0.72-0.21
		c-0.7,0-0.34-1.04-1.4-1.58c-1.06-0.51-1.41-1.73-2.98-1.73c-1.58,0-2.56-0.56-3.52,0c-2.99,1.73-4.05,1.91-3.52,0.87
		c0.53-1.04,0.36-1.04,1.39-2.25c1.06-1.21,1.94-2.78,1.94-2.78c-1.94-1.9-1.58-2.77-2.64-2.77c-1.05,0-1.05-0.69-2.46-0.18
		c-1.41,0.53-1.58,0.18-1.93-0.7c-0.36-0.83,0.35-1.71-0.18-1.89c-0.53-0.16-1.58,0.87-2.64,1.56c-1.06,0.7-2.29,0.52-2.47,0
		c-0.16-0.5-0.16-2.25-0.16-2.25s-2.64,1.55-3,0.36c-0.34-1.22-0.34-1.75,0.2-2.44c0.53-0.69-3,1.21,0.53-0.69
		c1.45-0.79,2.36-1.43,2.99-1.85c-1.76-0.14-4.21-0.46-4.41-0.06c-0.35,0.69-2.81,0.88-3.69,0.69c-0.88-0.16-0.54-0.69-2.64-0.16
		c-2.1,0.51-1.57-1.57-4.23,1.02c-2.62,2.61-2.62,2.61-2.62,2.61s-3.17-0.68-4.23-0.35c-1.05,0.35-1.58-0.53-3.5-0.87
		c-1.94-0.35-0.71-1.04-2.29-1.57c-1.59-0.51-0.7-2.07-2.29-1.38c-1.59,0.69-1.22,0.69-3.16,0.69c-1.93,0,1.41-1.39-2.99,0
		c-4.4,1.39-3.33,2.79-5.62,1.39c-2.29-1.39-0.88-1.21-2.29-1.39c-0.4-0.05-0.57,0.04-0.64,0.16c-0.03-0.04-0.04-0.11-0.05-0.16
		c-0.54-1.39-1.95-2.94-1.95-2.94s0.53-2.26-1.05-2.26c-1.58,0-3.89-0.69-5.11-0.69c-1.23,0-1.76-0.87-2.62-1.04
		c-0.89-0.17-0.2-1.04-0.89-2.08c-0.7-1.04,0.69-2.77-1.05-2.95c-1.76-0.18-1.94-1.9-3.17-0.18c-1.23,1.73-2.29,3.13-2.45,4.16
		c-0.19,1.04,1.93,0.34-0.19,1.91c-2.11,1.55-3.33,1.04-5.28,1.89c-1.93,0.87-2.27,1.05-2.64,2.08c-0.35,1.06-0.35,1.06-0.17,2.43
		c0.17,1.39,3.16,1.56,3.16,3.64c0,2.08,0.7,0.69,0.53,3.63c-0.18,2.95,1.76,2.43-0.18,3.99c-1.93,1.56-2.44,0.52-3.5,0.18
		c-1.06-0.35-2.98-3.28-3.17-4.52c-0.17-1.2-2.1-0.33,0.53-3.62c2.63-3.29,0.88-8.5,0.7-9.01c-0.17-0.5-1.33-0.21-1.23-1.45
		c0-0.05-0.02-0.07,0-0.11c0.18-1.39-0.19-1.73,1.23-1.73c1.41,0,2.98,0.34,3.69-0.35c0.7-0.71,2.29-1.91,1.75-2.61
		c-0.51-0.69,0.55,0.7,0.55,0.7s0.7,0.33,1.23,0.18c0.54-0.18,0.17-0.53,0-1.4c-0.17-0.86,0.17-2.07-1.42-2.24
		c-1.58-0.18-1.56-0.18-3.5,0c-1.94,0.18-2.29,0.16-3.86,1.03c-1.59,0.88-2.64,1.9-3.01,2.76c-0.35,0.87-0.17,1.22-2.11,2.27
		c-1.92,1.03-1.39,0.68-2.99,1.9c-1.58,1.22,0.19,1.05-1.58,1.22c-1.76,0.18,0.53,0.52-1.76,0.18c-2.29-0.35-1.94-1.57-3.52-0.87
		c-1.58,0.69,1.58-2.76-1.58,0.69c-3.17,3.46-0.69,1.9-3.52,2.08c-2.82,0.18-3.7,0-4.75,0.7c-1.06,0.68-1.41,1.9-2.46,2.94
		c-1.05,1.03-0.19-0.52-0.53,2.08c-0.37,2.61,0.16,5.21-0.88,6.24c-1.06,1.05-0.88,1.05-1.94,1.05c-1.06,0-1.22-1.21-2.46,0.69
		c-1.23,1.91-1.94,3.81-3,4.51c-1.04,0.68-0.87,0.17-1.75,1.57c-0.88,1.38-0.36,1.21-0.88,2.25c-0.15,0.28-0.32,0.34-0.52,0.31
		c-0.51,1.92-1.94,3.51-4.35,3.35c0.6,1.71-0.92,2.86-2.3,3.8c0.82,0.74,1.45,1.29,1.45,1.29s-0.19,0.17-0.19,0.76
		c0,0.61,0.19,0.27,0.53,1.22c0.36,0.95,1.41,1.12,1.32,1.73c-0.1,0.6,0.88,0.68,0.43,1.73c-0.43,1.04-0.17,1.64-0.17,2.25
		c0,0.61,0.35,2.42,0.35,3.11c0,0.71-0.97,1.39-0.88,2.44c0.09,1.02,0.35,0.42,0.79,1.55c0.44,1.13,1.05,1.64,0.97,2.41
		c-0.09,0.8,0.08,1.57-0.09,2.52c-0.18,0.96,0,1.67-0.26,2.6c-0.27,0.96,0.26,3.13,0.61,3.57c0.35,0.43,0.97-0.45,0.17,0.95
		c-0.78,1.37-1.22,1.47-1.76,2.15c-0.52,0.69-0.43,0.79-0.96,1.65c-0.53,0.86-0.53,0.77-0.88,1.56c-0.35,0.76-0.26,0.86-1.06,1.31
		c-0.79,0.42-0.17-0.45-0.79,0.42c-0.62,0.87,0.72,0-0.62,0.87c-1.32,0.86-2.02,0.26-2.64,0.59c-0.61,0.36-0.44,0.09-1.14,0.36
		c-0.7,0.24-2.11,0.78-2.11,1.81c0,1.04-0.26,1.99-0.43,2.77c-0.19,0.79-0.1,0.53-0.53,0.61c-0.45,0.09-0.2,0.94-0.36,1.21
		c-0.14,0.21-0.43,0.69-0.6,1.23c-0.05,0.14-0.09,0.28-0.1,0.43c-0.09,0.68,0.61,1.31,0.53,1.81c-0.08,0.53-0.8,0.53-1.41,0.53
		c-0.61,0-1.15-0.33-1.76-0.09c-0.61,0.26-2.11,0.98-2.37,1.22c-0.26,0.25-0.26,0.43-0.71,0.69c-0.43,0.26-1.76,0-2.11,0.26
		c-0.34,0.27-0.26-0.36-0.96,0.27c-0.7,0.6-0.88,0.17-0.88,1.04c0,0.85-0.54,1.29,0.1,1.97c0.61,0.7,0.43,0.88,0.61,1.4
		c0.17,0.51,0.43,0.08,0.35,0.94c-0.1,0.87,0.34-0.17-0.88,0.96c-1.23,1.13-1.93,1.4-2.12,2c-0.16,0.6,0,0.51,0.1,1.29
		c0.1,0.79,0.16,0.79,0.1,1.57c-0.1,0.8,0,2.94-0.36,3.37c-0.37,0.43-1.15,1.21-1.68,2.17c-0.54,0.96-0.54,0.35-0.54,1.39
		c0,1.03,0.8,0.86,0.27,1.73c-0.52,0.87-1.05-0.08-0.52,0.87c0.52,0.96,2.19,1.12,1.67,1.56c-0.52,0.42-0.62,0.35-0.78,0.86
		c-0.18,0.52-0.26,0.69,0.52,1.31c0.79,0.59,1.93,0.5,1.93,1.46c0,0.97,0.81,1.48,0.81,1.48s1.23,0.6,1.57-0.08
		c0.35-0.69,0.8-1.22,1.14-1.99c0.35-0.78,1.12-2.82,1.32-2.42c0.52,1.02-0.53,4.15-0.53,4.15s0.87,0,0.25,1.31
		c-0.62,1.31-2.81,2.86-2.81,2.86s-0.04,0.01-0.1,0.03c-0.25,0.16-1.03,0.62-1.39,0.92c-0.45,0.34-1.23,0.34-2.02,1.04
		c-0.8,0.69,0.08-0.35-1.34,0.85c-1.39,1.22-2.01,1.56-2.37,2.17c-0.34,0.61-0.78,2.52-0.95,3.12c-0.19,0.6-0.73,1.38-0.81,2.16
		c-0.08,0.79-0.08-0.26,0,1.39c0.08,1.66,0.08,1.21,0.62,2.34c0.53,1.13,0.19,1.13,1.05,1.74c0.88,0.61,1.15-0.17,1.5,1.13
		c0.35,1.29,0.69,0.95,0.53,1.9c-0.18,0.95,0.53,0.7-0.44,1.39c-0.98,0.68-0.8-0.17-0.98,0.68c-0.17,0.87,0.17,0.54,0,1.31
		c-0.17,0.78,0.8,0.69,1.84,1.82c1.06,1.13,2.82,1.47,3.08,1.47c0.28,0,0.44-0.08,0.89,0.09c0.45,0.17,1.76,0.17,1.68,0.61
		c-0.1,0.44,0.96,1.29,1.39,1.81c0.45,0.51,1.68,1.04,1.68,1.73c0,0.69,0,1.12,0.26,1.65c0.26,0.52,1.14,1.73,1.14,1.99
		c0,0.27,1.31,0.88,1.31,1.74c0,0.88,1.5,3.22,1.68,3.65c0.17,0.42,0,0.42,0.51,1.12c0.53,0.69,0.82,1.12,1.06,1.73
		c0.26,0.61,0.53,0.87,0.89,1.29c0.33,0.44,0.69,0.61,0.96,0.96c0.27,0.35,0.88,0.35,1.23,0.95c0.35,0.61,1.14,0.53,1.22,1.49
		c0.09,0.95,0.63,1.73,0.8,2.85c0.17,1.13,0.53,1.3,1.15,3.39c0.62,2.07,1.48,3.63,1.84,4.58c0.35,0.97,0.35,0.43,0.7,1.21
		c0.36,0.78,1.59,2.86,2.2,3.64c0.62,0.78,1.5,0.68,1.76,1.73c0.26,1.04,0.52,1.99,0.87,2.85c0.36,0.87,1.25,1.82,1.51,2.25
		c0.26,0.44,0.62,0.17,1.31,1.74c0.7,1.57-0.08,1.47,1.15,2.86c1.23,1.39,2.11,1.22,2.2,2.33c0.09,1.12,0.7,1.99,0.86,2.69
		c0.17,0.69,0.8,0.34,0.54,1.65c-0.26,1.29-0.69,1.47-0.79,2.42c-0.08,0.96-0.28,0.7,0.09,1.47c0.33,0.79,0.52,0.79,1.32,1.57
		l3.08,2.42c0,0-0.35,1.4,0.52,2.43c0.88,1.04,1.22,0,1.58,1.04c0.35,1.04,2.64,0.68,2.81,1.22c0.18,0.51,1.41,1.2,1.41,1.89
		c0,0.7,0.87,1.25,1.41,1.57c2.11,1.2,3.17,0.68,3.87,1.55c0.71,0.89,4.75,3.99,5.81,4.17c1.05,0.16,1.58,1.04,2.64,1.37
		c1.05,0.35,1.94-0.68,2.8,0.19c0.88,0.85,2.11,1.37,2.64,1.9c0.53,0.5,1.24,0.35,1.94,0.7c0.7,0.34,1.57,0.16,2.1,0.51
		c0.53,0.34,1.93,0.52,3.17,2.24c1.23,1.75,2.1,3,2.28,3.48c1.06,2.58,2.67,3.25,3.17,3.63c2.29,1.73,0-1.21,2.29,1.73
		c0.37,0.46,0.66,0.83,0.92,1.13c1.45,1.66,1.67,1.38,1.37,1.82c-0.37,0.52-0.71,1.9-0.37,3.12c0.37,1.21,0.53,3.11,0.71,3.99
		c0.18,0.86,0.35,1.74,0.54,2.41c0.18,0.71,0.18,0.87,0,2.26c-0.18,1.39-0.35,1.56-0.35,2.79c0,1.19-0.18,1.01,0.35,2.24
		c0.51,1.21,0.51-0.53,1.05,2.07c0.53,2.6,0.7,2.95,0.18,4.17c-0.53,1.21-1.07,2.01-1.23,2.76c-0.71,3.3-0.88,2.27-0.88,4.34
		c0,2.09,1.22-1.73-0.18,2.95c-1.41,4.67-1.41,3.28-1.41,4.67c0.35,3.81,0.32,4.23,0.35,4.85c0.18,3.64-0.51,12.65-1.39,14.21
		c-0.88,1.55-1.57,1.9-1.57,3.46c0,1.55,1.22,1.9,0.51,3.63c-0.7,1.73-0.17,1.39-0.7,3.48c-0.52,2.07,0-0.35-0.52,2.07
		c-0.54,2.42-0.19,2.42-0.73,4.16c-0.53,1.73,0.37-1.38-0.53,1.73c-0.86,3.1-0.52,0.87-1.05,3.99c-0.53,3.12,0.7,1.04-0.53,3.12
		c-0.28,0.49-0.42,0.56-0.49,0.49c-0.02,0.05-0.02,0.11-0.03,0.19c-0.7,3.82-0.53,3.82,0,5.55c0.52,1.74,1.58,0.87,0.88,2.95
		c-0.71,2.08-1.03,2.53-1.41,3.47c-1.06,2.59-1.06,2.59-1.06,2.59c0.18,4.85-1.06,6.75-0.7,8.32c0.34,1.55,0,3.28,0,4.83
		c0,1.55,0.7,1.74,0.7,3.3c0,1.55,0.53,1.91,0.18,3.28c-0.35,1.39-0.53,1.39-1.05,2.95c-0.54,1.56-0.89,2.44-1.42,3.3
		c-0.51,0.87,0.53-0.35,0,1.56c-0.51,1.91-1.21,2.08-2.1,3.81c-0.89,1.74-1.05,0.87-1.05,2.61c0,1.72,1.05,1.03,0.7,3.28
		c-0.36,2.25-0.88,1.56-1.76,3.46c-0.88,1.93-1.76,3.47-2.46,4.52c-0.7,1.04,0,1.73-0.7,3.81c-0.72,2.07,0,2.07-0.9,3.46
		c-0.87,1.39-1.22,0.34-1.76,1.89c-0.51,1.57-0.76,1.66-1.74,2.79c-3.17,3.64-2.29,3.64-2.29,6.06c0,2.43-0.18,0.7,0.35,3.47
		c0.53,2.77-0.88,0.85,0.53,2.77c1.41,1.91,1.23,2.95,1.41,3.63c0.17,0.69,0.35,3.65,0.35,3.65s0.51,1.21,0.35,1.72
		c-0.18,0.53,0.16,0.18-0.88,1.73c-1.06,1.57-0.7,0.18-1.06,1.57c-0.34,1.37-0.34,1.37-0.34,1.37s0.53,1.91-0.35,3.64
		c-0.88,1.74-0.53,1.39-1.59,2.95c-1.05,1.57-1.05,0.18-1.05,1.57c0,1.38,0,2.42,0.53,3.29c0.52,0.87,0.88,1.21,1.58,1.9
		c0.69,0.7,1.25,0.77,1.94,1.05c2.11,0.86,2.27,0.86,3.16,0.35c0.87-0.53,0.87-1.23,2.28-0.53c1.41,0.7,2.45,0.53,1.59,1.74
		c-0.88,1.21-2.53,0.12-1.94,1.57c0.7,1.73,1.41,0.86,1.06,2.59c-0.36,1.75,0.35,0.7-0.36,1.75c-0.7,1.03-0.16,1.21,0,2.07
		c0.18,0.86-1.39,0.86-1.39,1.73c0,0.86,0,1.21-0.19,2.43c-0.18,1.2,0.35,0.34-0.18,1.2c-0.53,0.87-0.16-3.11-0.53,0.87
		c-0.34,3.97,0,3.27-0.34,3.97c-0.36,0.69-0.36,1.91-0.36,2.6c0,0.7-0.17,0.17,0,1.39c0.19,1.22,1.04,1.36,1.59,1.91
		c1.76,1.73,0.88,2.6,0.35,3.28c0,0-2.42-0.5-2.64,1.24c-0.53,3.97-1.23,3.97-0.53,3.97c0.69,0,2.82,2.95,1.93,2.95
		c-0.87,0-1.05-2.26-2.45-0.88c-1.4,1.39-1.58,1.74-1.58,2.44c0,0.68,0.88,1.39,0.69,2.58c-0.16,1.22-1.57,2.77-1.57,2.77
		c-1.94,2.79-1.94,2.79-1.94,2.79s-1.93,1.55-1.57,0.51c0.35-1.04,0.83-2.22-0.17-2.44c-2.47-0.5-3.7-1.71-2.47-2.06
		c0,0-1.74-2.43-2.45-1.91c-2.47,1.74-3.17,2.41-3.01,3.11c0.19,0.69,1.06,0.53,0.7,1.57c-0.33,1.05-0.33,0.69-1.74,1.56
		c-1.41,0.86-4.74,0.52-3.86,1.9c0.88,1.39,3.16,2.59,3.69,2.26c0.52-0.35,2.65-2.61,2.65-2.61s1.92,0,1.74,0.88
		c-0.17,0.85-0.7,1.04,0.18,1.55c0.88,0.5,3.87-2.95,3.7-1.73c-0.18,1.22,0.52,0,0.17,1.91c-0.35,1.91,0,0-0.35,1.91
		c-0.36,1.91-2.82,0.52-3.17,1.91c-0.35,1.39-0.17,1.21,0.88,2.59c1.06,1.38,3.52-0.69,3.52,0.35c0,1.03-1.76,2.77-0.17,1.89
		c1.57-0.86,1.22-1.73,2.28-0.68c1.05,1.04,3.6,2.01,2.82,2.43c-2.29,1.21-4.58,0.87-4.58,0.87s-1.74-1.04-2.28,0.34
		c-0.53,1.39-0.71,1.9-0.18,2.43l-2.99,3.63c0,0,2.45,0.17,2.64,1.56c0.17,1.39,3.15,2.77,2.11,4.16c-1.04,1.38-1.58,3.81-1.58,3.81
		s1.05,0.35,0.69,1.22c-0.36,0.87-1.06-0.2-1.76,1.21c-0.7,1.39-0.52,2.43-0.16,2.94c0.33,0.54,3.16,1.74,2.8,2.44
		c-0.35,0.69-0.08,0.97-1.41,1.89c-2.46,1.75-2.64,0.35-3.69,1.39c-1.06,1.04-1.41,0.17,0.17,1.57c1.59,1.38,2.46,1.72,4.05,1.72
		c1.58,0,1.23-2.08,2.29-0.34c1.06,1.73,2.29,2.24,2.29,3.83c0,1.55-0.36,1.2-0.18,2.58c0.18,1.39,1.05,1.91,1.58,1.73
		c0.53-0.16,1.57,1.04,1.94-0.69c0.35-1.73,0.35-2.94,0.69-2.6c0.35,0.34,1.58,0,2.11,0.34c0.53,0.35,1.41,1.4,1.94,1.06
		c0.53-0.36,1.58-1.91,1.39-0.86c-0.17,1.03-0.35,2.23-0.35,3.45c0,1.22-1.92,0.34-2.45,1.4c-0.53,1.03,0.7,0.33,0.53,1.71
		c-0.18,1.39,1.58-1.03,0.88,1.39c-0.72,2.41,2.27-2.25,3.34-0.52c1.06,1.74,2.45,1.37,3.34,2.08c0.88,0.7,2.28-0.18,2.47,1.4
		c0.17,1.56,0.53,2.06,0.7,2.59c0.18,0.51,2.12,2.08,0.71,2.43c-1.41,0.34-2.64-1.57-3.87-0.35c-1.24,1.21-1.58,0.18-1.93,1.91
		c-0.35,1.73,0,0.5,0.35,2.07c0.34,1.57-1.24,2.1,0.88,2.6c2.11,0.51,4.39,0.51,5.1,0.87c0.7,0.34,2.65-1.55,2.65-2.6
		c0-1.03,0-2.08-0.37-3.29c-0.34-1.21,1.59-3.3,1.59-3.3l1.65-1.05l1.87-1.19c0,0-1.24-1.04,0.86-1.55
		c2.11-0.53,3.35,0.32,3.52,0.32c0.2,0,0.2,0,0.2,0s1.92,1.05-1.08,2.1c-2.97,1.04-5.79,3.81-4.93,4.32c0.89,0.52,3.7,0.52,4.23,0.7
		c0.53,0.18,2.47-0.35,2.27,0.5c-0.16,0.87-1.22,2.09-1.22,2.09s-2.28-1.73-2.46,0.35c-0.17,2.09,0.18,2.09,0.18,3.46
		c0,1.4,3.16,1.73,3.16,2.6c0,0.86,1.93,1.04,0.18,1.55c-1.76,0.52-3.16-0.16-3.16-0.16s-4.93-0.86-5.46-0.17
		c-0.52,0.68-1.74,0.51-2.8,1.37c-1.06,0.88-1.59,2.79-0.36,2.43c1.23-0.34,4.4,1.57,4.93,1.05c0.52-0.53,2.48-0.18,3.34-0.35
		c0.88-0.18,3.34-0.34,3.34-0.34s0.18,0.87,1.23,1.73c1.04,0.85,2.8,1.04,3.33,0.69c0.53-0.36-1.76-0.87,1.58,0
		c0.32,0.08,0.6,0.13,0.87,0.19c2.51,0.49,2.74-0.32,3.55,0.16c0.87,0.51,3.59-0.72,4.22-0.35c2.29,1.38,2.99,0.68,3.87,1.22
		c0.88,0.5,1.75-0.53,2.64-0.18c0.87,0.34,2.98-0.17,2.98-0.17s2.62-0.7,2.13,0c-0.53,0.7,2.27,0.86,3.15,0.35
		c0.88-0.53,3.87-1.91,3.87-1.91l-0.72-0.88c0,0,1.25-1.9-0.53-1.71c-1.74,0.16-3.68-1.05-5.44-0.88c-1.76,0.18-3.87-0.69-3.87-0.69
		s-1.23-1.72-2.47-2.59c-1.23-0.86-1.4-0.35-1.75-1.55c-0.35-1.22-0.18-3.3-1.23-2.77c-1.06,0.51-2.11-0.53-3-0.86
		c-0.88-0.36-2.45-3.48-2.99-3.99c-0.51-0.53-1.06-0.53-0.7-2.09c0.35-1.56,1.06-2.61,0.18-2.78c-0.88-0.16-1.06-2.59-2.64-1.72
		c-1.58,0.87-1.76,0.87-2.64,0.87c-0.05,0-0.06-0.02-0.09-0.02c-0.81-0.13-1.02-1.72-2.73-2.24c-1.74-0.52-2.47-0.69-2.47-1.73
		c0-0.46,0.01-0.78,0.09-1.07c0.1-0.37,0.31-0.63,0.81-0.83c0.88-0.35,1.93-0.17,3.51,0.69c1.58,0.86,2.81,1.4,4.03,1.21
		c1.25-0.18,1.94-1.21,0.88-1.91c-1.04-0.7-2.27-3.46-3.15-4.67c-0.88-1.22-1.76-3.12-1.94-3.65c-0.19-0.52,0.35-2.94,0.18-3.98
		c-0.18-1.04-1.06-2.95,0-2.77c1.06,0.16,0.35-1.22,2.29-3.3c1.93-2.08,2.46-3.29,3.87-2.94c1.39,0.34,2.99,0.17,3.15-0.35
		c0.18-0.51-0.53-3.47-0.16-4.16c0.34-0.69,2.81-5.87,3.51-7.1c0.7-1.21,1.93-1.04,3.17-1.91c1.22-0.86,2.98-0.86,4.91-2.76
		c1.93-1.91,4.05-2.78,4.22-3.63c0.18-0.87,0.89-1.74,0.53-2.43c-0.35-0.69,0.18-1.04-1.76-1.38c-1.93-0.35-0.7-2.09,0.36-2.77
		c1.05-0.7,1.58-0.17,1.05-2.09c-0.53-1.9-0.35-3.12-1.23-3.12c-0.88,0-1.58-0.51-2.47-0.33c-0.86,0.16-2.62,0.16-3.52,0
		c-0.86-0.19-2.98-0.36-3.33-1.57c-0.35-1.21-1.76-1.55-1.93-3.46c-0.18-1.9,0.52-3.47,1.23-4.34c0.7-0.86,1.41-3.11,1.58-3.79
		c0.17-0.71,0-1.04,0.71-1.57c0.7-0.52,2.81-1.73,2.81-1.73s-0.7,1.04,1.93-0.35c2.65-1.38,5.11-3.98,5.46-3.48
		c0.35,0.54,1.58,3.31,2.82-0.33c1.23-3.64,1.58-6.42,1.58-6.42l-1.06-1.73l1.25-2.08c0,0,0.82-4.08,1.58-4.32
		c2.64-0.87,3.33-2.09,3.33-2.09s-2.8-2.77-2.64-3.47c0.19-0.69,0.54-1.38,1.42-1.2c0.88,0.17,1.11-0.79,1.94,0.17
		c1.92,2.24,0.87,3.63,2.1,3.46c1.23-0.17,1.23,4.33,2.64-0.69c1.4-5.03,2.64-6.24,0.7-6.24c-1.93,0-2.8-2.06-4.05-0.68
		c-1.23,1.37-2.11,3.12-2.11,3.12c-2.11-0.53-3.45-1.22-3.5-1.91c-0.18-1.92-1.05-1.74-0.9-2.96c0.18-1.21,0.7-2.42,0.9-3.28
		c0.17-0.87,0-1.22,0.34-2.43c0.37-1.21-2.11-2.24-1.24-3.45c0.9-1.21,0-1.04,2.82-0.35c2.82,0.69,5.28,0,4.93,1.21
		c-0.35,1.21,0.34,2.77,2.1,2.77c1.76,0,2.98-0.52,3.86-0.35c0.88,0.16,2.48,0,3-0.18c0.5-0.16,2.28-0.69,2.81-1.39
		c0.51-0.69,4.93-1.21,2.1-2.25c-2.82-1.04-3.17-1.38-2.82-2.25c0.35-0.85,2.12-2.42,2.12-2.42c0.87-3.28,1.57-3.64,1.57-4.69
		c0-1.04,1.24-0.86,0.19-2.94c-1.06-2.08-2.43-3.12-1.59-3.46c3.52-1.38,3.17-0.52,4.91-0.36c1.77,0.18-0.7,0.18,1.77,0.18
		c2.45,0,3.5-0.18,3.5-0.18s0.89,0.53,3.7,0c2.83-0.5,12.13-2.93,12.85-2.93c0.71,0,2.64-0.34,2.64-0.34s1.4-1.06,1.75-0.53
		c0.35,0.53,1.4-1.55,1.94-1.21c0.52,0.35,1.93-0.86,2.46-1.38c0.52-0.52,0.52-1.04,1.23-1.39c0.71-0.34,1.75-1.38,1.75-1.38
		c1.42-1.74,2.28-3.81,2.28-3.81s0.53-1.22,1.42-1.74c0.88-0.52,0.88-1.04,1.05-1.74c0.17-0.68-0.34,0.35,0-2.07
		c0.36-2.44,0.72-1.05,0.36-3.13c-0.36-2.08,0.37-2.08-1.22-2.59c-1.6-0.51-1.76-1.38-2.11-2.25c-0.35-0.87,0,1.39-0.35-0.87
		c-0.36-2.25,0.72-2.79,0.52-3.64c-0.35-1.57,0.35-3.46-0.35-3.63c-0.7-0.18-0.17-2.6-1.76-2.26c-1.58,0.35-5.45-1.72-6.33-2.08
		c-0.87-0.33-1.23-0.85-1.75-1.56c-0.53-0.69-0.71-1.2-0.53-2.61c0.18-1.38,1.23,0.54,0.88-2.4c-0.35-2.95,1.06-3.82,0.7-4.34
		c-0.35-0.53-0.88-0.87-0.35-2.09c0.53-1.21-0.53-1.03,0.53-1.9c1.05-0.87,1.41-0.87,1.05-2.6c-0.31-1.57-0.05-2.84-0.02-3.08
		c0.02-0.02,0.02-0.05,0.02-0.05s0.88,3.12,0.69,4.85c-0.16,1.74-0.51,1.91-0.51,3.1c0,1.23,0.04,4.71-0.18,5.21
		c-1.05,2.43-1.76,2.95-1.22,3.47c0.53,0.51,1.76,2.95,2.98,2.59c1.24-0.34,0.74-0.94,1.94-0.34c2.1,1.03,3.69-0.19,3.86,1.03
		c0.18,1.22,1.59,1.9,2.64,2.43c1.05,0.52,2.85,0.43,3.52,0.68c1.78,0.7,1.58,0.7,2.47,0.54c0.86-0.18,1.93,0.16,2.81-0.18
		c0.88-0.36,0.52-1.05,1.93-0.71c1.41,0.35,2.52,0.04,3.17,0.35c2.45,1.22,6.16-0.35,6.16-0.35s1.58-2.08,2.1-2.24
		c0.53-0.17,1.06,0,2.29-1.74c1.22-1.72,2.1-3.97,2.64-4.33c0.51-0.33,1.04-0.69,1.94-2.25c0.87-1.57,1.75-2.43,2.62-3.3
		c0.89-0.89,3.01-2.43,3.01-2.43s1.23-1.89,1.04-2.94c-0.16-1.03,0.53-2.43,0.88-3.3c0.35-0.84,0.35-1.37,1.05-1.9
		c0.64-0.46,1.56,1.59,1.33-0.55c1.14-0.27,3.94-2.22,3.94-2.22s0.71-1.55,2.13-2.24c1.4-0.71,2.45-1.91,2.98-2.08
		c0.54-0.18,1.23-1.05,1.93-1.75c0.71-0.69,2.29-1.91,2.12-3.47c-0.17-1.54,0.18-2.41,0.71-2.92c0.53-0.53,0.7,0.34,1.39-2.26
		c0.71-2.6,0-2.6,1.42-4.17c1.4-1.55,1.22-2.99,4.57-5.2c0,0,2.99-4.84,3.69-6.06c0.71-1.21,1.06-1.03,1.41-1.9
		c0.37-0.87,1.07-2.77,1.07-3.64c0-0.88,1.05-3.81,0.53-4.51c-0.53-0.68,0.17-3.12,0.17-3.12s-0.51-1.54-1.23-2.42
		c-0.69-0.85,0-1.03-0.69-2.25c-0.7-1.21-1.94-1.56-0.7-2.42c1.23-0.88,2.27,0.33,1.58-1.74c-0.71-2.07-2.47-2.95-1.05-3.29
		c1.41-0.33,3.17,0.18,4.04,0c0.88-0.16,0.7-0.16,1.75-0.69c0.05-0.02,0.08-0.04,0.11-0.05c0.04-0.15,0.42-0.63,1.85-2.03
		c3.33-3.3,6.14-4.5,6.14-4.5c1.92-1.75,1.23-2.44,1.92-2.61c0.73-0.16,1.42-0.69,2.3-0.69c0.88,0,1.93-0.52,2.81-0.87
		c0,0,1.24,0.51,1.94,1.21c0.7,0.69,0.35,0,1.58-0.17c1.23-0.18,3.35-0.53,3.35-0.53s-3.88-0.87-1.93-2.25
		c1.93-1.39,1.93,0,3.68-1.21c1.76-1.2,2.47-0.51,3-2.26c0.53-1.73-0.18-2.95,0.53-1.73c0.7,1.22,0.87,0.7,2.1,0.86
		c1.24,0.18,3-0.68,3.88-0.5c0.86,0.17,1.76-0.87,2.1-0.35c0.36,0.52,1.24-0.51,1.77,0.18c0.51,0.68,1.41,1.04,2.63,0.34
		c1.23-0.69,1.94-1.91,2.47-1.21c0.53,0.69,1.58,0.18,1.92,0.52c0.37,0.35,1.76,0,2.13-1.21c0.34-1.22,0.98-2.51,1.58-2.95
		c2.11-1.56,0,0.87,3.17-2.07c3.17-2.96,3.52-3.14,3.52-4.17c0-1.04-0.71-3.3,0.34-4.33c1.05-1.05,2.64-1.92,2.98-3.3
		c0.37-1.39,0.53-1.21,2.64-4.16c2.11-2.94,1.05-3.11,2.11-3.97c1.06-0.88,1.06,3.81,1.41-2.09c0.35-5.88,0.88-5.37,0.53-6.75
		c-0.37-1.4-0.53-1.4-0.19-2.26c0.35-0.86-0.35-1.73,1.24-2.24c1.59-0.53,2.1-1.24,2.29-1.75c0.19-0.51,1.06-2.41,1.06-3.1
		c0-0.71,1.05-3.32,0.34-4.5c-0.7-1.22-0.19-2.65,0-3.14c1.06-2.76,1.23-2.59,1.06-3.98c-0.18-1.39-1.59-3.29-1.41-4.85
		c0.17-1.55,1.22-3.99,0.87-5.02c-0.34-1.05,0.53-1.73,0.18-3.47c-0.35-1.73,0-2.94-0.18-3.64c-0.18-0.69,0.35-0.17-0.18-2.26
		c-0.53-2.07-2.46-2.59-0.7-3.12c1.75-0.52-0.35,0,1.75-0.52c2.11-0.51,3.34,0,1.4-0.68c-1.93-0.69-2.81-1.05-2.81-1.05
		s-0.34-0.68,1.58-0.68c1.94,0,1.23-0.52,2.64-0.17c1.41,0.35-0.17,1.39,1.41,0.35c1.58-1.06,2.98-1.39,3.17-2.79
		c0.17-1.38,1.39-2.77,1.76-3.28c0.35-0.51,0.88-1.55,0.88-1.55s0.17-1.23,0.35-1.75c0.16-0.52,0.16-2.24,0.7-2.42
		c0.53-0.18,0.88,0.18,2.29-1.74c1.41-1.9,6.5-6.06,7.91-7.44c1.41-1.4,1.94-0.7,2.82-2.27c0.88-1.54,1.04-1.54,2.09-3.1
		c1.06-1.57,1.59-1.57,1.94-2.27c0.37-0.67,0.53-1.9,1.05-2.76c0.53-0.88,1.4-2.25,1.23-3.12c-0.18-0.87,0.17-2.77,0-3.28
		c-0.18-0.53-0.18-0.88-0.36-2.09c-0.17-1.21-0.87-2.77-0.17-3.65C487.84,171.56,488.19,170.54,487.84,169.14z M362.98,360.4
		c-0.71,3.98,0,3.98-1.94,5.36c-1.93,1.39,0.36-2.59-1.93,1.39c-2.3,3.99-0.19,1.93-2.3,3.99c-0.9,0.9-1.6,1.42-2.04,1.73
		c-0.03-0.16-0.04-0.34-0.07-0.52c-0.54-3.47,0.7-4.34,0.7-4.34s0.88-0.51,1.58-1.03c0.71-0.52,1.24-0.7,1.94-2.61
		c0.71-1.9,1.05-2.77,1.94-3.28C361.75,360.57,363.7,356.41,362.98,360.4z"/>
	<path class="st0" d="M280.66,38.86c1.77-0.1,2.19,0.81,2.41-1.75c0.2-2.59-0.33-4.64-2.19-3.61c-1.36,0.74-1.89,2.59-2.52,3.61
		c-0.63,1.03-1.77,1.95-0.42,1.95C279.29,39.06,278.87,38.95,280.66,38.86z"/>
</g>
</svg>
