<?xml version="1.0" encoding="utf-8"?>
<!-- Generator: Adobe Illustrator 24.1.1, SVG Export Plug-In . SVG Version: 6.00 Build 0)  -->
<svg version="1.1" id="Layer_1" xmlns="http://www.w3.org/2000/svg" xmlns:xlink="http://www.w3.org/1999/xlink" x="0px" y="0px"
	 viewBox="0 0 612 612" style="enable-background:new 0 0 612 612;" xml:space="preserve">
<style type="text/css">
	.st0{fill:#D66F54;}
</style>
<g>
	<path class="st0" d="M426.43,346.05c-0.51-0.65-1.18-2.97-1.18-2.97s0-0.98-0.67-1.98c-0.67-1-0.17-2.82-0.67-2.82
		c-0.51,0-1.02-1.15-1.33-1.65c-0.35-0.49-0.68-1.97-1.19-2.46c-0.5-0.51-0.66-1.5-0.5-2c0.17-0.49,0.5-1.82,0.5-2.48
		c0-0.66,0.65-3.14,0.65-3.79c0-0.66,0.99-2.81,0.66-3.46c-0.34-0.68-0.15-1.82-0.34-2.81c-0.17-1-0.17-2-0.35-2.49
		c-0.16-0.5-0.81-1.15,0.18-2.33c0.98-1.14,1.83,0.84,1.65-2.8c-0.16-3.63-0.35-5.46-0.84-4.96c-0.51,0.5-2.14,4.46-2.14,4.46
		c-1.66,1.49-2.51,0.68-2.51,0.68s-0.33-0.51-0.98-1.33c-0.67-0.83-2.36-2.3-2.68-2.82c-0.33-0.48-1.02-4.96-2.34-4.77
		c-1.34,0.16-4.35-2.64-4.35-2.64s0.5-1.65-0.31-1.65c-0.84,0-3.33-1.63-3.33-1.63s-1.99-0.5-2.34-1c-0.34-0.49-0.17-2.81-1.01-2.64
		c-0.82,0.18-1.64-0.49-1.83-1.47c-0.16-0.99-0.02-3.98-0.35-4.48c-0.33-0.49,0.52-0.15-0.33-2.12c-0.82-2-1.52-2.5-1.52-2.5
		s0,1.01-0.98,1.01c-1.01,0-2.33-0.17-2.5-0.66c-0.19-0.49,0-0.99-0.5-1.33c-0.49-0.31,0.5-1.15-1-1.15
		c-1.5,0.01-1.65-1.43-2.17-0.64c-1.32,1.98-1.28,4.27-1.99,3.62c-1.5-1.3-1.18-3.44-1.67-4.45c-0.49-0.97-1.16-1.32-1.16-2.81
		c0-1.48,0.83-2.32-0.35-3.79c-1.16-1.48-0.18-1.82-1.68-2.8c-1.5-1.02-0.65-2.17-1.83-2.63c-1.16-0.51-0.51-0.67-1.18-1.34
		c-0.67-0.64-1.83-1.3-1.83-1.3s-0.68-0.99,0-1.99c0.66-0.98,2.67-1.82,0.99-2.14c-1.67-0.33-0.84,0.34-2.83-0.82
		c-2-1.15-4.17-0.97-4.17-0.97s3.32-0.84,1.67-1.66c-1.67-0.83-4.99-0.65-5.16-1.32c-0.18-0.65-1-0.65-1.32-1.65
		c-0.35-0.98-0.69-2.15-1.69-2.27c-0.99-0.18-0.51-1.19-1.83-1.19c-1.32,0-0.51-0.31-2.33-0.14c-1.83,0.18-2.67-0.16-3.66-1.15
		c-1.01-1-0.86-1.38-1.51-2.15c-2.17-2.63-2.17-3.64-2.17-4.62c0-0.99,0.66-1.98-0.33-2.14c-1.03-0.17-1.52-0.99-2.01-2.16
		c-0.51-1.15-0.67-3.3-0.51-4.28c0.16-1-0.16-2.64-0.16-2.64s2.48,0.98-0.69-2.64c-3.17-3.64-2.5-2.98-2.5-2.98
		s-0.83-1.13-1.33-1.82c-0.51-0.64,0.14-1.14-1.02-1.47c-1.16-0.32-0.83-0.19-1.18-1.98c-0.31-1.82,0.18-3.63-0.16-4.46
		c-0.34-0.84-0.2-2.66-0.35-3.65c-0.18-0.98-0.18-0.82-0.36-3.8c-0.15-2.98,0.85-1.82-0.15-2.98c-1.01-1.14-1.5-1.65-2.17-1.65
		c-0.67,0-0.33-0.33-1.68-1.14c-1.33-0.84-1-1.5-2.01-2.5c-1-0.97,0-1.15-1-0.97c-1.99,0.83-3.31,1.33-3.31,1.33
		c-1.65,1.18-1.23,0.72-2.5,0.33c-2.15-0.63-1.31-1.16-2.32-2.14c-1.03-0.98-0.51-1.65-1.03-2.16c-0.49-0.46-0.33-1.66-0.67-2.31
		c-0.31-0.65,0.18-0.99-0.49-2.64c-0.67-1.65-0.35-3.28-0.69-4.11c-0.33-0.84,0.35-1.49-0.33-2.48c-0.67-1,0-2.32-0.67-2.99
		c-0.67-0.65,0.18-1.16-1.16-2.15c-1.33-0.98-1.18-1.33-1.52-2.13c-0.33-0.84-0.16-1.49-0.49-2.47c-0.35-0.99,0.81-0.68-1.02-2.49
		c-1.84-1.83-1.32-0.65-1.84-1.83c-0.5-1.13,0.18-1.8-0.17-2.8c-0.33-0.98-0.5-0.83-1-2.3c-0.49-1.49,0.51-1.49-0.49-1.49
		c-1.01,0,0.31-0.67-1.01,0c-1.34,0.65-2.17,0.67-2.49,1.51c-0.34,0.81-0.34,0.5-0.5,2.15c-0.15,1.65,0.01,2.64-0.32,3.79
		c-0.32,1.15,0.68,0.33-0.8,2.33c-1.52,1.98-1.68,2.31-1.68,3.3c0.02,0.98-0.65,0.83-1.31,2.15c-0.67,1.33-0.99-0.15-0.67,1.33
		c0.35,1.5,0.51,1.5,1.02,2.15c0.49,0.65,1.41,1.06,0.82,1.66c-1.83,1.8-1,0.15-1.83,1.8c-0.82,2.82,0.67,2.48,0.02,3.97
		c-0.39,0.86-0.27,0.95-0.26,1.02c-0.32,0.33-0.87,0.94-0.41,0.47c-1.65,1.82-1.48,1.31-0.99,2.98c0.52,1.65,0.66,1.14,0.66,2.46
		c0,1.35-0.16,2.42-0.31,3.16c-0.49,2.31-0.9,2.72-0.82,3.46c0.18,1.66,0.91,1.51,1.17,2.15c0.83,2.16,1.43,2.97,0.83,3.62
		c-1.16,1.34-0.17-0.65-1.16,1.34c-0.49,0.97-0.76,1.3-0.92,1.49c-0.01-0.56-0.06-1.08-0.06,0.08c-0.09,0.1-0.07,0.15,0,0.41
		c0,2.81,0.34,0.68,0,2.81c-0.34,2.15-1.17,2.64-1.17,2.64s0.51,0.16,0.18,1.66c-0.33,1.49,0,0-0.33,1.49
		c-0.33,1.48-0.16-0.16-0.33,1.48c-0.16,1.67,1.17,0.84-0.16,1.67c-1.33,0.83-3.14,1.98-3.14,2.99c0,0.98-0.33,1.17-0.51,1.63
		c-0.64,1.83-2.48,3.32-2.48,3.32c-1.65,0.98-1.34-1.01-2.51,0.18c-1.15,1.14-1.5-0.16-2.32,0.65c-0.81,0.83-0.49-0.81-2.32-0.16
		c-1.83,0.67-1.83,0.67-1.83,0.67s-0.18-1.82-0.83-1.8c-0.67,0-1.34-0.83-2.16-0.83c-0.83,0-0.68-1.16-1.52-1.32
		c-0.83-0.18-2.31-0.49-2.31-0.49s0.32-1.49-0.18-1.84c-0.5-0.33-1.17-1.63-1.17-1.63s-0.83-0.67-1.66-0.34
		c-0.84,0.34-1.67-1.31-2.18-0.64c-0.5,0.64-0.99-1.18-2.33-0.67c-1.32,0.51-1.16-0.33-1.83-0.82c-0.66-0.49-1.48-0.67-2.16-1.15
		c-1.66-1.15-0.66,0-1.66-1.15c-2.16-1.8-2.43-2.16-2.99-2.63c-1.68-1.31-0.84-2.99-2.18-2.99c-1.32,0-0.16,0.18-1.32,0
		c-1.17-0.16-1.34,0.67-2.16,0.85c-0.82,0.16-1.5-0.49-2.34-0.49c-0.83,0-0.66-1.32-1.65-1.49c-1.01-0.14-0.86-0.64-1.34-1.3
		c-0.49-0.67-0.33-1-1-1.82c-0.68-0.84-1.42-1.54-1.83-1.82c-1.85-1.15-3.33-1.65-4.01-2.14l-1.83-2.31l0.99-1.82
		c1.65-1.66,2.14-2.49,2.65-2.81c0.49-0.34,0.99-1.32,0.99-1.32s1.16-1.5,1.15-2.33c0-0.81,1.38-1.55,0.66-1.98
		c-1.33-0.83,1.83-1.17,1.83-1.17c-2.01-0.65-3.54-0.12-3.49-0.65c0.16-1.8,0.1-3.1,0.99-2.99c3.33,0.5,2.99,0.83,3.99,0.65
		c1-0.16,1,1,1.66-0.32c0.67-1.32,1.17-0.83,0.51-1.98c-0.66-1.15-0.84-1.32-0.17-2.49c0.65-1.15,0.15,1.49,1.32-1.82
		c1.15-3.32,1.99-2.64,1.99-2.64c-1.34-2.16-2.24-3-2.68-3.31c-1.65-1.14-1.16-3.94-2-2.13c-0.81,1.8-0.99,1.49-1.3,2.97
		c-0.35,1.49,1.33,1.15-0.35,1.49c-1.66,0.33-1.5-0.64-2.15-0.99c-1.83-0.97-0.67-0.16-1.83-0.97c-0.68-3.31-0.02-3.97-0.68-3.31
		c-0.66,0.67-0.99,1.31-1.81,1.99c-0.84,0.65-1.83,0.65-2.32,1.16c-0.5,0.5-1.4,1.1-2.01,0.66c-1.83-1.3-1.95-1.74-2.66-1.8
		c-1.67-0.19-1.32-0.83-2.51-0.34c-1.15,0.51-0.67-1.14-1.83-0.65c-1.16,0.5-0.21,2.08-0.65,1.82c-2.16-1.3-3.56-2.05-4.18-2.3
		c-2.34-0.99-2.16-1.96-2.99-1.46c-0.83,0.47-0.84-0.68-2.5-0.35c-1.65,0.35-1.31-0.32-1.99-0.48c-0.67-0.16-0.85-1.32-1.68-1.3
		c-0.82,0,0.31-2.49-0.84-1.99c-1.15,0.5-1.81,0.85-2.49,0.67c-0.66-0.16-1.15-1.47-1.66-1.82c-0.52-0.33,0-1.49-1.16-1.29
		c-1.18,0.15-1.18-1.33-2.51-0.16c-1.32,1.15-1.83-0.51-2.65,1.15c-0.83,1.65-1.17,1.18-0.83,1.65c0.33,0.5,0.85,1.66,2.16,1.81
		c1.34,0.17,2.17-0.32,2.82,0.33c0.67,0.66,1.85,0.34,1.85,1.16c0,0.82,0.83,1.96,0.33,2.8c-0.48,0.84-1.32,1.83-1.32,1.83
		l-1.67,0.33c0,0-1.16-0.83-1.83-0.48c-0.67,0.31-0.99-0.17-1.5,0.98c-0.48,1.15-1.81,1.99-1.81,1.99c-1.83-0.49-3.01-2.82-3.51-2.8
		c0,0-2.99,0.83-3.82,1.82c-0.82,1-0.65,2.49-1.16,2.49c-0.5,0-2.66,0.16-3.31,0.67c0,0-1.02,0.17-1.17,0.99c-0.18,0.83-1.17,0-2,1
		c-0.81,0.98-0.83-0.35-0.81,0.98c0,1.32,0.16,2.67,0.65,2.67c0,0-1.64,2.62-1.64,3.94c0,1.34-1.66,0.03-2.99,1.34
		c-1.34,1.34-2.25,1.93-2.32,2.98c-0.32,4.3-0.32,2.65-0.32,4.3c0,1.65,0,1.98,0.99,2.99c1.02,0.97,1.35,3.3,1.35,3.3
		c-2.66,1-3.66,1-4.33,0.02c0,0-2.68-2.97-3.66-1.97c-1,0.98-3.99,0.98-3.99,0.98c-2.98,4.64-4.32,4.31-4.32,4.31v-2.64
		c0.33-2.97-1.01-4.94-1.01-4.94c-3.01-2.97-2.67-4.63-4.99-4.63c-2.35,0,0.31,2-2.35,0c-2.65-1.97-4.32-2.95-4.32-2.95
		s-2.33,0.98-2.66,1.99c0,0-2.86-0.74-3.64,1.32c-1,2.66-3.66,4.32-3.66,4.32c-2.99,0-3.66-0.99-4.65-0.33
		c-2.98,2-3.33,3.32-3.33,3.32l-0.32,4.64c0,0-3.66,0.34-4.33,1.98c0,0-0.98,1.99-0.96,3.32c0,0,1.31,1.98,1.67,3.64l-4.01,0.64
		l-4.34-2.29l-0.97,4.29c0,0,3,0.99,3.33,2.64l-3.64,4.63l-0.99,3.33l-2.01-6.28l-3.17-3.14c0,0-1.17-0.97-1.5-0.48
		c-0.35,0.48-1.15,0.65-2.32,2.81c-1.16,2.16-4.15,4.47-4.46,4.98c-0.35,0.49-0.19,0.97,0,1.63c0.15,0.67,0.98,0.84,0.98,2
		c0.02,1.15-0.78,2.94-0.47,3.61c1,2.32,0.15,2.34-0.67,3.01c-0.82,0.65-3.14,2.13-3.14,2.13s1.33,0.18,0.16,1.81
		c-1.15,1.66-2.99,3.83-3.47,4.49c-0.5,0.65-0.99,0.81-1.67,1.65c-0.66,0.83-1.99,1.82-1.99,1.82c-2.34,1.32-4.82,2.83-4.82,2.83
		s-0.83,0-3.33,0.34c-2.49,0.33-2.66,0.17-3.66,0.82c-0.99,0.67-0.83,0.32-1.82,1.17c-1,0.82-2.49,1.66-2.49,1.66
		s-1.34-0.99-1.83-0.33c-0.49,0.67-0.66-1.49-1.65-1.3c-1.01,0.16-2.17,0.33-3,0.98c-0.83,0.68-0.83,0.33-1.83,1.16
		c-1,0.83-3.48,1.66-3.48,1.66s-1.5,0.65-2.17,1.16c0,0-2.15,1.15-2.82,1.51c-0.67,0.31-1.52-0.18-1.52-0.18s-4.99-0.59-5.8-0.31
		c-2,0.67-3,0.34-3.49,1c-0.49,0.66-1.55,0.27-2.17,0.83c-2.32,2.13-2.14,0.67-2.97,2.47c-0.85,1.84-0.51,0.68-1.67,1.84
		c-1.15,1.14-4.32,2.48-4.32,2.48s-1.32,0.66-1.65,1.17c-0.35,0.48-0.49,1.15-1.33,1.64c-0.84,0.51-3.33-0.15-3.33-0.15
		s-1.15,0.84-0.66,1.64c0.49,0.84-3.82,3.17-3.66,3.66c0.18,0.51-0.35,1.66-0.81,2.49c-0.84,1.47-2.68-0.65-2.68-0.65
		s-1.16-0.83-0.5-1.51c0.68-0.65,0.68-1.3,0.81-1.98c0.18-0.66-0.16-1.97-0.16-1.97s-0.51-0.51-1.5,0.65
		c-0.99,1.15-0.8,2.98-1.32,4.46c-0.49,1.49-0.49,1.49-1,2.66c-0.5,1.14-0.15,1.14-0.15,2.16c0,0.97,0.67,3.14,0.51,3.63
		c-0.16,0.5-0.16,0.5-0.51,2.14c-0.31,1.65,0.19,1.65-0.65,2.64c-0.83,0.99-0.65,0.99-1.32,2.48c-0.67,1.48-0.82,2.31-1.15,3.31
		c-0.33,1-0.66,0.83-0.15,2.83c0.5,1.98,0.99,3.13,1.34,3.79c0.32,0.65,0.66-1.82,1.66,0.98c0.99,2.81,2.68,5.28,2.85,5.95
		c0.16,0.64,1.5,1.8,1.5,2.29c0,0.51-0.82,1.34-0.82,2c0,0.65,1.17-0.19,0.99,1.82c-0.15,1.98-1.3,2.65-1.3,2.65
		s-0.85-3.48-2.01-3.31c-1.17,0.17-0.33-1.81-2.01-2.15c-1.67-0.29-2.5-1.95-2.32-0.82c0.18,1.16,2.82,2.32,3.01,3.47
		c0.16,1.16,0.47,1.99,1.16,2.81c0.66,0.82,0.33-1.16,0.66,0.82c0.35,1.99-0.32,2.15-0.81,1.99c-0.49-0.17-0.17-1.82-2.18-1.97
		c-1.99-0.17-2.49-0.84-2.82-1.32c-0.33-0.5-0.17-1.97-1-2.81c-0.54-0.51-0.87-0.97-1.16-1.45c-0.16-0.28-0.33-0.55-0.51-0.85
		c-0.51-0.82-1.34-1.8-1.34-1.8s0.17,4.62,1.34,4.62c1.17-0.03,1.51,0.81,1.51,1.79c0,1,1.16,2.17,1.49,2.63
		c0.34,0.51,0.83,0.19,1.68,0.99c0.82,0.83,1.33,0.5,2.32,1c1.01,0.5,0.51,3.14,1.16,3.61c0.69,0.52,0.85,0,1.34,1.49
		c0.51,1.5,1.52,1.17,1.67,2.16c0.18,1,0.02,3.8,0.02,4.8c0,0.99,0.85,3.96,0.85,3.96c1.32,1.49,2.5,3.14,2.66,3.79
		c0.17,0.66-0.65-1.15,0.51,1.99c1.16,3.14,2.84,3.13,3.01,4.11c0.17,1,1.5,4.62,1.18,5.12c-0.33,0.51-0.5,2.8-0.5,2.8
		s0.83,0.84,0.17,1.66c-0.66,0.84,0.16,1.32,0,2.8c-0.16,1.51,0.68,1.16,0.83,2.64c0.18,1.49-0.23,1.82,0.84,2.99
		c1.67,1.79,2.68,3.44,3.35,3.95c0.65,0.5,1.83,1.82,1.99,2.31c0.67,2.14,1.19,2.8,0.69,4.46c-0.5,1.65-0.18-0.82-0.5,1.65
		c-0.34,2.49,0.83,4.94,0.83,4.94s-0.66,2.17-0.99,3c-0.32,0.83-0.33-0.83-0.32,0.83c0,1.64,0.17,2.14,0.17,3.3
		c0,1.15,0.49,0.82-0.15,2.66c-0.68,1.82,0.64,0.97-0.68,1.82c-1.33,0.82-2.32,0.65-3.14,1.33c-0.86,0.67-1.69,0.17-1.84,1.49
		c-0.16,1.31,0.34,1.98,0.17,3.13c-0.16,1.18-0.66-0.17-0.16,1.18c0.48,1.3,1.32,0.98,2.17,1.15c0.82,0.15,1.81,0,2.66,0.65
		c0.82,0.68,2.16,0.33,2.16,0.99c0,0.65,1.5,0.83,1.5,1.65c0,0.82,0.83,1.83,1.18,2.63c0.31,0.84,2.82,2.16,2.82,2.16
		s2.67,0.15,2.81,0.81c0.19,0.66,2.68,0.49,2.68,0.49l4.33-0.52c0,0,2.5-0.31,3.99,0.51c1.5,0.82,5.84-0.85,5.84-0.85l2.63-1.16
		l2-1.82l1.83-1.99l3.49-1.02l4.48-2.13l1.5-1.85l1.16-1.32c0,0,3.82-1.02,4.81-0.68c1.02,0.33,2.85,0.14,3.02,0.49
		c0.15,0.33,3.47-1.51,3.47-1.51s1.83,0.16,2.33,0c0.51-0.17,2.5-0.17,2.5-0.17s0.99-0.5,1.5,0c0.5,0.49,1.32-0.34,1.83,0.49
		c0.5,0.82,3.99,0.65,3.99,0.65l3.52-0.33l2.32-0.18c0,0,1.32-0.67,1.81-0.33c0.49,0.33,1.99-0.17,1.99-0.17s1.83-0.51,2.35-0.67
		c0.49-0.16,2.66-2.32,2.66-2.32s1.81-1.31,1.97-1.82c0.18-0.5-0.49,0,1.67-2.66c2.15-2.64,3.99-3.3,4.65-3.47
		c0.65-0.15,3.33-1.15,3.82-1.33c0.49-0.18,3.31-1.82,3.31-1.82l2.66-2.32c0,0,1.68-1.49,1.83-1c0.18,0.5,2.84,0.18,2.84,0.18
		l7.97-0.03c0,0,2.35,0,3.15-0.17c0.84-0.17,4.5-1.34,4.5-1.34l2.66-0.33l1.99-1.51c0,0,1.65-0.65,2.5-1.49
		c0.8-0.83,1.17-1.32,1.99-1.51c0.83-0.17,1.66-0.49,2.49-0.51c0.84,0,3.16,0,3.16,0s1.83-0.31,2.66,0.17
		c0.83,0.5,3.33-0.99,3.82-0.67c0.49,0.33,0.68-0.48,3.33,0c2.66,0.49,4.48-0.99,5.16-0.34c0.66,0.65,2.82-0.18,2.82-0.18
		s2.83-1,3.66-0.5c0.82,0.49,3.16,1.48,3.16,1.48s1.67,1.64,2.66,2.13c1.01,0.49,0.02,2.31,0.67,2.47c0.68,0.18,2.35,0.65,2.35,0.65
		h2.81c0,0,2.51-0.66,3-1.16c0.5-0.47,1.83,0.49,1.83,0.49c0.85,1.66,2.33,2.16,2.33,2.16c2.18-0.68,1.85-0.99,2.83-0.68
		c1.01,0.33,1.48,0.45,2.01,1.15c1.34,1.82,1.99,1.99,2.5,2.13c0.51,0.18,1.83-0.16,1.99,1.16c0.17,1.32,1.34-0.49,0.17,1.32
		c-1.17,1.83-2.3,1.34-1.83,2c1.83,2.65,3.17,2.65,3.35,3.46c0.17,0.82,3.16,1.31,3.16,1.31c0.68,1.5,0.62,1.84,0.83,2.31
		c0.83,1.82,1.5,2.15,1.52,2.64c0,0.5,1.83,0.83,1.5,1.65c-0.33,0.84-0.18,0.98,0,1.65c0.18,0.65,0.47,1.52,0.66,1.98
		c0.86,1.99,0.57,2.37,0.86,2.96c0.99,2.17,2.5,3.65,2.5,3.65s2.32,0.31,2.5,0.8c0.17,0.5,1.5,0,1.5,0s1.34-1.66,0.83-1.66
		c-0.52,0-0.17-1.32,0.16-1.97c0.33-0.66,1.49-2.17,1.49-2.17l2.64-2.47l2.16-1.99c0,0,2.17-1.15,1.85-1.31
		c-0.34-0.18,1.32-1.67,1.32-1.67s1.16-0.49,1.65-0.84c0.52-0.32,1.51-1.49,1.51-1.49c1.65-1.33,1.81-2.31,1.98-2.8
		c0.16-0.48,1-1.67,1-1.67l0.99-1.32c0,0-0.34-1.16,0.16-2.16c0.49-0.99,2.5,2.64,2,2.64c-0.49,0-0.31,1.83-0.82,2.16
		c-0.5,0.34-0.17,0.98-0.5,1.82c-0.33,0.81,0.51,1.67,0,2.16c-0.49,0.49-1.33,1.65-1.5,2.15c-0.14,0.49-0.65,2.14-0.8,2.63
		c-0.18,0.49,0.33,1.16-0.33,2.33c-0.67,1.15-0.67,0.99-0.49,1.8c0.14,0.83,1.32,0.67,0.49,2.64c-0.82,2,0,1.33-0.82,2
		c-0.82,0.65-1.16,0.8-2.32,0.98c-1.17,0.17-0.17-1.48-1.17,0.17c-1.01,1.65-1.17,2.48-1.17,2.48l1.5,1.5l1.34-2.33l1.97-0.17
		c0,0,0.85-0.34,1.52-0.17c0.66,0.16,1.65-0.34,1.83-0.82c0.16-0.51,0.82-1.82,0.98-2.81c0.16-1,0.65-2.64,0.65-2.64
		c2.34,0.31,5.16,1.63,4.67,1.97c-0.5,0.31,0.66,0.83,0.49,1.49c-0.16,0.64,0.35,1.97-0.14,3.14c-0.5,1.14-0.67,1.82-0.84,2.31
		c-0.17,0.48,0.16,0.48-0.33,1.47c-0.49,0.98-0.43,1.01,0.33,1.33c2.01,0.83,4.32-0.18,4.32-0.18s3.66-0.83,3.5,0.16
		c-0.17,0.97,1.17,0.82,0.99,1.47c-0.15,0.67-0.66,2.64-0.66,2.64s1.83,1.44,2.18,1.82c1.34,1.48,1.87,1.61,1.83,2.14
		c-0.15,2.15,0.36,3.14,0.36,3.14s0,0.83-0.18,1.49c-0.16,0.66,1.01,1,0.51,1.64c-0.49,0.68,0.07,0.36,0.33,1.34
		c0.67,2.46,0.92,2.58,1.03,3.63c0.15,1.82,0.44,1.84,0.81,2.3c1.51,1.83,2.34,2.48,2.67,2.97c1.16,1.67,1.49,2.16,2.01,2.97
		c0.49,0.83,2.51,0.32,2.68,0.83c0,0,2.81-0.34,2.81,0.16c0,0,4,1.8,3.84,2.29c0,0,2.15,0.84,2.66,0.84c0.51,0,0.83-0.51,1.66-0.16
		c0.84,0.32,0.82-0.34,2,0.16c1.17,0.49,3.64,0.8,3.64,0.8s2.84-0.5,2.68,0.33c-0.16,0.82,1.68,1.14,1.68,1.14l1.65,0.51
		c0,0,1.31,0.34,1.5,0.98c0.17,0.66,2,1.31,2,1.31s1.48-0.5,1.66-0.17c0.18,0.34,0.18,0.34,0.18,0.34l2.98-1.66l2.49-1.67l1.17-1.49
		l1.83-1.16l0.82,0.66l1.34-0.83c0-1.32,0.99-2.49,0.99-2.49l1.66-1.15c0,0,2.16,0.81,1.49,1.31c-0.64,0.5-0.49,1.99-0.98,2.33
		l1.5,0.97l2.65-1.8c0,0,2.17,1.65,1.01,2.3c-1.16,0.66-2,0.33-2.14,0.82c-0.18,0.5,0.66,0.5,1.33,0.83
		c0.64,0.34,2.49,0.65,2.49,0.65h2.32l1.5,1.32c0,0,1.02,1,1.02,1.48c0,0.5,1.66,1.49,1.66,1.49s0.49,0.99,0.82,1.66
		c0,0,1.16-1.32,1.16-1.83c0-0.5,1.49-2.31,1.49-2.31l1.66-0.34c1.5-0.33,1.5-0.33,1.5-0.33c1.99-2.66,3.82-3.64,4.15-4.3
		c0.33-0.66,2.16-2.17,2.16-2.17s0-0.49,1.66-1.64c1.65-1.18,2.98-2.64,3-1.99c0,0.65,1.83-0.19,1.83,0.33c0,0,3.64-2.18,3.98-1.34
		c0.31,0.82,2.68,1.15,2.68,1.15s1.65-0.49,2.15-0.34c0.5,0.15,2.5-0.34,2.5-0.34s1.67-0.49,2.15-0.33
		c0.49,0.18,1.84-0.32,1.84-0.32c0.82-1.83,1.34-3.13,1.34-3.13c0.81-2,1.81-3.67,1.81-3.67s0.55-1.07,0.16-1.65
		c-1.01-1.47-0.51-4.11-0.51-4.11s0.82-1.17,0.82-2c0-0.83,0.33-0.83,0.49-1.66c0.18-0.82,0-1.3,0-1.98c0-0.64,0.17-2.46,0.17-2.46
		c1.33-1.66,1.33-1.83,1.65-2.83c0.33-1,1.16-2.63,1.16-2.63l2.65-3.16c0,0,0.66-1.65,0.83-2.17c0.17-0.49,0.17-1.47,0.33-1.97
		c0.16-0.49,0.49-1.48,0.64-2.31c0.18-0.83,0-1.82,0.5-2.15c0.51-0.32,1-1.99,1-1.99s0.83-1.66,0.99-2.15
		c0.15-0.49,1.99-2.81,1.99-2.81s0.33-0.17,0.49-1.34c0.17-1.15,0.17-1.97,0.17-1.97s0.32-0.99,1.32-1.82
		c0.99-0.83,1.65-1.99,2.17-2.33c0.5-0.32,0.5,0,1.82-1.33c1.31-1.3,1.67-1.65,2.5-2.5c0.82-0.81,0.16-0.32,1.48-1.8
		c1.33-1.5,2.67-3,2.67-3s0.49-2.47,0-2.47c-0.52,0-0.19-1.32-0.19-1.32s1.32-1.32,1.32-2.15c0-0.84,0.35-1.99,0.35-1.99
		s0.98-1.32,0.98-1.99c0-0.66,0.85-2.31,0.85-2.81c-0.03-0.5,0.62-3.13,0.62-3.13s0.99-2.16,0.85-2.83
		c-0.18-0.65,0.63-1.81,0.47-2.81c-0.16-0.99,0.16-1.82,0-2.65c-0.16-0.81-0.16-1.31,0-2.15c0.16-0.81,0.99-1.82,1.32-2.64
		c0.32-0.82,1.32-1.98,1.32-2.47c0-0.5,0.34-1.49,0.66-2.14c0.33-0.67,0.82-0.99,0.82-2.33c0-1.3-0.16-2.16-0.16-2.16
		S426.93,346.71,426.43,346.05z"/>
	<path class="st0" d="M373.29,484.53c-1.77-0.67-3.58-1.99-4.67-1.32c-1.11,0.65-5.54,1.54-6.65,2.67c-1.11,1.1-3.99,1.54-4.67,1.33
		c-0.65-0.23-1.09-1.32-2.87-0.43c-1.77,0.88-1.79-1.54-4.21-1.31c-2.44,0.21-3.34-1.32-5.56-2.42c-2.22-1.08-3.1-2.18-3.77-1.52
		c-0.66,0.65-1.54,0.86-1.54,1.53c0,1.48-3.1,0.67-1.98,3.97c1.09,3.3,1.09,1.98,3.56,4.63c2.43,2.63,1.77,3.74,2.45,6.17
		c0.67,2.41,0,1.53,0.68,3.95c0.66,2.42-2.68,1.32,0,4.42c2.68,3.06,2.24,3.73,4.66,5.27c2.45,1.53,1.79,1.3,3.56,2.4
		c1.78,1.1,0.89,1.54,3.11,1.76c2.22,0.22,2.43-0.66,3.77,0.44c1.33,1.08,0.65-3.74,2.43-3.54c1.78,0.23,1.78,0.66,2.66,0.44
		c0.89-0.22-0.45-3.97,0.43-4.64c0.89-0.65,2.22-1.55,2.9,0.44c0.66,1.98,1.55,2.86,3.11,2.41c1.54-0.43-0.25-4.4-0.02-5.51
		c0.22-1.11-0.66-2.85,0.43-4.18c1.11-1.33,1.34-0.23,1.99-2.2c0.67-2,0.66-3.97,0.66-6.18c-0.02-2.2-0.02-4.19-0.25-6.39
		C373.29,484.53,375.07,485.15,373.29,484.53z"/>
	<path class="st0" d="M372.37,472.83c-0.45-0.65-2.67-2.19-3.78-1.29c-1.43,1.12,0.66,1.29,2,2.62c1.33,1.3,0.02,4.83,2.01,4.18
		c3.54-1.1,3.54-1.55,2.2-3.08C373.46,473.71,372.81,473.48,372.37,472.83z"/>
	<path class="st0" d="M265.35,424.18c-1.34,0.45-5.76,1.79-5.76,1.79c-0.67,0.65-3.1,1.1-1.77,2.2c1.32,1.12,2.66,1.74,4.2,0.86
		c1.54-0.87,0.9-1.1,3.78-0.89c2.87,0.22,3.54,0.44,4.42-1.1c0.88-1.56,1.34-1.78-0.43-2.21
		C268.01,424.39,266.69,423.75,265.35,424.18z"/>
	<path class="st0" d="M331.1,470.5c-1.78-0.98-3.33,1.12-1.99,2.88c1.34,1.77,0.02,3.52,2.24,2.64c2.22-0.9,1.09-2.21,1.33-3.54
		C332.89,471.17,332.66,471.37,331.1,470.5z"/>
	<path class="st0" d="M347.48,107.12c-3.18-3.62-7.5-5.1-7.5-5.1c-0.67-1.66-3-3.3-4-3.79c-1.01-0.5-4.49-1.98-5.16-2.31
		c-0.67-0.32-2.84-1.49-4.18-1.97c-1.31-0.48-2.48-0.98-5.65-2.12c-3.17-1.14-4.33-0.66-5.33-0.98c-1-0.32-5.99-2.79-6.99-3.28
		c-1-0.49-2.34-1.66-3.82-2.13c-0.84-0.29-2.13-0.28-3.11-0.23v-2.28c-0.67,0.04-1.13,0.09-1.13,0.09s-1.34,0.49-2.68-0.33
		c-1.31-0.83-0.16-2.01-1.99-2.01c-1.83,0-2.83-0.65-4.99-0.65c-2.16,0-3.48-1.15-5.17-1.82c-1.64-0.65-1.97-3.31-3.47-2.97
		c-1.48,0.33-2.82-0.17-4.16-0.17c-1.34,0-1.66-1.32-2.82-1.65c-1.16-0.31-2.5-0.31-3.17-0.5c-0.67-0.16-0.98-1.65-1.66-1.5
		c-0.66,0.17-0.99-0.5-1.82,0c-0.85,0.51-2.5,0.84-3.32,1.99c-0.83,1.17-2.17,0.84-2.35,1.48c-0.16,0.67-0.16,1.16-0.16,1.65
		c0,0.5-0.3,1.02-0.82,1.49c-1.83,1.66-2,1.49-2.66,1.82c-0.67,0.33-1-0.82-1.68-0.49c-0.67,0.33-2.32,0.65-2.32,0.65
		c-1.17,2.83-2.5,2.99-3.66,4.15c-1.17,1.14-1.67,0.96-2.51,2.63c-0.83,1.65-1.48,1.84-2.32,2.48c-0.83,0.68-0.83,0.17-2.5,0.51
		c-1.67,0.33-3.83-0.18-4.32-0.68c-0.49-0.46-0.33-0.65-0.67-1.82c-0.33-1.14-1.66-2.16-2.16-3.12c-0.49-1.01-1-2.15-1.66-2.65
		c-0.66-0.5,0.22-2.97-1.21-1.66c0.21-1.1,0-1.97-0.66-3.75c-0.15-0.39-0.28-0.5-0.38-0.55c0.17-0.04,0.51-0.26,1.26-1.43
		c1.99-3.09,0,0,0-3.53c0-3.52-0.44-2.42-0.44-4.62c0-2.22-3.33-0.46-3.99-0.67c-0.66-0.22-3.33,0.22-3.33,0.22
		s-2.22-1.54-3.54-3.08c-1.34-1.55-1.11-0.45-2.22-0.67c-1.11-0.22-4.22,0-5.76-0.43c-1.56-0.45-2.88,1.98-3.76,2.64
		c-0.9,0.65-1.34,0.21-2.46,0.21c-1.09,0-3.1,1.99-3.1,1.99s-0.88,2.67-2.22,1.54c-1.33-1.11,0,0-1.55-2.21
		c-1.54-2.2-2.22-0.65-4.64-0.22c-2.45,0.44-1.13,0.67,0.88,3.09c0.44,0.54,2.88,1.75,2.88,1.75s1.1,1.54,2.22,2.23
		c1.09,0.64,0,0,2.22,0c2.22,0,2.22,0.41,3.1,0.41c0,0,1.34,0.68,2.43,0.91c1.13,0.19,0.88,1.98,0.68,3.07
		c-0.21,1.11,0.9,1.77,1.33,2.87c0.44,1.08,1.34,0.65,2,0.43c0.66-0.23,2.88-0.23,4.21-0.66c1.33-0.44,0,0,1.56,0.87
		c1.56,0.89,1.11,0.66,2.43,0.23c1.32-0.44,1.99,0.21,3.56-0.88c1.55-1.1,1.99,0.43,2.66,0.65c0.53,0.18,1.15,0.41,2,0.42
		c-0.69,0.03-1.36,0.04-1.79,0.47c-0.99,0.98,0.17,1.15-1.99,0.98c-2.17-0.16-1.68-1.16-2.84-0.66c-1.17,0.5-2.48,0.33-2.48,0.33
		s-1.68,0.83-2,1.98c-0.33,1.16-0.33,1.49-2.18,1.49c-1.81,0-0.65-1.64-1.99-1.64c-1.32,0-1.44-1.53-1.99-0.35
		c-1,2.15-2.16,1.99-1,2.83c1.16,0.81,1.33,1.32,2.34,1.65c0.98,0.32,0.98,0.32,2.14,1.3c1.17,1.01,0.68,1.01,1.34,2
		c0.66,0.99,0.49,1.99,0.66,3.14c0.16,1.15,0.33,1.15,0.5,1.99c0.17,0.8,0.17,1.15,1.99,1.47c1.84,0.34,1.84,0.34,2.5,0.34
		c0.67,0,1.09-0.09,1.5-0.66c1.16-1.66,0.84-2.82,1-3.31c0.16-0.5,0.33-1.16,0.66-2.13c0.34-1.01-0.04-1.89,0.49-2.15
		c2.32-1.15,2.66-3.31,2.32-1.15c-0.34,2.12-1.03,1.97-1.16,2.8c-0.33,2.13,0,2.31,0.49,2.96c0.51,0.65,0.83,1.16,2.16,0.98
		c1.34-0.17,1.34-0.48,2.01,0.68c0.64,1.15,0.82,0.5,1.81,0.65c1,0.18,3.35-0.99,3.16-0.32c-0.16,0.64,0.67,1.3,0.52,1.99
		c-0.17,0.64,0,1.13,0.49,1.47c0.49,0.33,1.66,1.16,1.66,1.16l2.66,0.14c0,0,0.67,0.35,1.67,0.52c1,0.16,2.82,1.15,4.49,0.98
		c1.66-0.16,1.99-0.33,3.33,1.01c1.32,1.32,2.66,1.14,3.82,1.8c1.18,0.66,2.84,0.66,3.51,0.82c0.65,0.16,1.65,0.34,2.48,0.67
		c0.82,0.32,2.84,0.5,3.17,0.98c0.33,0.5,3.48,1.15,3.31,2.16c-0.17,0.99,1.33,2.31,1.51,3.3c0.16,0.99,0.41,1.74,1.01,2.3
		c2.66,2.64,2.81,3.17,2.98,4c0.18,0.83,1.68,1.96,1.68,2.45c0,0.5-0.35,0.17,2,2.16c2.32,1.98,2.81,2.31,1.81,3.3
		c-1.01,0.99-2.84-0.14-2.84-0.14s-0.32-0.84-0.65,0.97c-0.09,0.41-0.07,0.66,0,0.84c0.58,0.04,1.01,0.15,1.01,0.15
		s-0.81,0.46-1.01-0.15c-0.95-0.09-2.34-0.07-3.17,0.65c-1.32,1.16-2.66,0.83-3.49,2.15c-0.84,1.32-0.33-0.18-1.34,2.64
		c-0.98,2.82-1.65,1.81-1.65,3.8c0,1.97-0.16,1.48,1.01,1.48c1.15,0,2.65-0.33,4.33-0.16c1.65,0.16,3.99,0.34,4.96,0.16
		c1.03-0.16,2.34,0.5,2.84-0.66c0.51-1.16,1.5-1.8,1-2.31c-0.49-0.5-0.67-1.5-0.67-1.5s0.83,1.82,1.83,2c1.01,0.15,0-1.18,1.01,0.15
		c1,1.32,1.99,1.32,2.65,1.14c0.67-0.16-0.17-0.16,2.16-0.98c2.33-0.82,2.17-2.48,2.33-0.82c0.18,1.64,0.49,2.14,1.5,3.28
		c1,1.16,1.66,1.5,2.32,2.17c0.68,0.65,2.82,2.14,3,2.97c0.18,0.82,0.51,0,1.34,1.33c0.35,0.55,1,0.97,1.7,1.28l0.01,2.33
		c0.9,0.37,1.89,0.54,2.53,0.46c1.17-0.18,3.98-0.52,3.98-0.52l2.5,0.17c0,0,2.17-0.17,2.66-0.02c2.01,0.66,3.51,1.14,4.34,0.64
		c0.83-0.48,1.64-0.83,2.5-1.15c0.82-0.35,2.32-1,2.81-1c0.5-0.02,1.5-0.02,1.83-0.67c0.32-0.66,1.18-1.01,0.83-1.82
		c-1.18-2.64-1-3.14-2.01-2.97c-1.01,0.16-3-0.17-3-0.17s-3.64-0.82-4.15-1.15c-3.17-1.95-3.17-1.95-3.17-1.95s2.83,0.65,4.82,1.3
		c1.99,0.65,2.84,0.98,3.82,1.14c1,0.16,2.5-0.33,3-0.33c0,0,1.83,0.16,1.52-1.66c-0.35-1.8-2.68-2.13-0.35-1.8
		c2.32,0.31,3.83-0.36,3.83-0.36l1.14-2.13l0.83,0.17l2.16-0.51c0.33-1.66-0.82-1.98,0.33-1.66c1.16,0.34,3.72-0.34,3.99,0.33
		c0.66,1.66,1.35,0.85,2.18,1.33c2.01,1.14,2.65,0.3,3.17,0.82c0.49,0.47,1.81-0.02,1.99,0.46c0.16,0.51,1.85-0.79,2.82,0
		c2.01,1.65,4.66,4.13,4.66,5.29c0.02,1.15,0.02,1.48,1.18,2.14c1.18,0.66,2.62,1.32,2.65,1.81c0.17,1.98,1.18,2.48,1.51,2.97
		c0.33,0.49,0.33,1.34,0.83,1.82c0.51,0.5,2.01,0.65,2.16,1.3c0.18,0.69,0.02,1,0.18,1.65c0.17,0.68,2.16,0.34,2.66,0.98
		c0.51,0.68,0.84,1.34,1.49,1.82c0.67,0.5,1.52,0.5,1.84,1.14c0.35,0.68,2.33,0.34,2.84,0.5c0.49,0.18,1.65,0.5,2.32,0.5
		c0.67,0,1.32-1.01,1.82-0.33c0.51,0.66,3.18,0.33,4.01,0.82c0.82,0.5,3.49,1.14,4.81,1.46c1.33,0.34,1.5,0.34,3.16,0.17
		c1.67-0.17,0.33-0.98,1.67-0.17c1.32,0.82,1.99,0.99,2.51,1.97c0.49,0.99,0.64,0.51,1.5,1.33c0.82,0.81,1.66,1.15,2.32,0.81
		c0.66-0.34,1.65-0.17,1.83-1.5c0.16-1.31-0.99,0,0.16-1.31c1.19-1.32-1.32,1.49,0.34-0.66c1.65-2.17,1.5-2.66,0.31-2.49
		c-1.16,0.19-2.64,0.01-2.64,0.01l-2.34-0.81c0,0-1.67,0-2.16-0.5c-0.5-0.48-1.51-1.66-1.34-2.15c0,0-1.99-2.3-2.51-2.16
		c-0.49,0.19-2.65,0.02-3.15-0.48c-0.51-0.49-0.68-1.16-0.68-1.81c0-0.67,0-1.66-0.49-2.16c-0.5-0.47-0.85-2.62-2-1.81
		c-1.17,0.82,0.5,0.17-1.17,0.82c-1.65,0.67-2.32,0.36-2.32-0.32c0-0.64,0-1.32-0.85-2.63c-0.82-1.33-0.49-3.46-2.18-3.63
		c-1.66-0.15-2.48-0.67-2.14-1.82c0.31-1.16-0.67-1.98-1.34-2.13c-0.68-0.18-2.84-1.17-3.33-1.66c-0.51-0.5-2.5-1.48-2.84-2.47
		c-0.35-1-0.35-1.98-1.01-2.32c-0.65-0.33-1.81-0.49-2.16-2.15c-0.32-1.64-1.32-1.49-0.32-2.31c0.98-0.81-2.17-1.47,1.99-1.29
		c4.15,0.13,3.82,0.13,4.82-0.7c0.99-0.82,1.32-0.83,1.32-1.48c0-0.68,0.16-1.14-0.51-1.82c-0.67-0.68-0.67-0.99-1.83-1.48
		c-1.17-0.5-0.33-1.32-1.83-1.82c-1.5-0.5-3.17-1.47-5.18-2.13c-1.97-0.65-4.81-0.49-5.31-0.98c-0.49-0.49,0-0.83-0.68-1.79
		c-0.66-1.01-0.33-1.33-1.64-1.66c-1.34-0.32-1.83-0.5-2.51-1.15C348.33,109.94,350.64,110.75,347.48,107.12z"/>
	<path class="st0" d="M204.41,58.5c-2.22-1.55-2.66-1.78-6.65-1.78c-3.98,0-5.32,2.64-3.33,2.87c1.99,0.23,5.77,2.23,8.65,1.99
		C205.75,61.37,206.63,60.05,204.41,58.5z"/>
	<path class="st0" d="M253.87,69.07c1.55-2.4,1.11-2.4-1.11-3.74c-2.22-1.32-3.77-1.11-5.99-0.67c-2.32,0.49,0.89,3.54,3.56,4.22
		C252.98,69.52,252.32,71.5,253.87,69.07z"/>
	<g>
		<path class="st0" d="M541.5,412.78c-4.01-0.87-13.31-6.56-12.44-5.24c0.92,1.32,2.23,1.74,3.57,6.57c1.36,4.84,1.78,3.51,4,5.26
			c2.21,1.74,5.32,6.13,6.2,7.45c0,0,3.54,1.31,4.86-2.2c1.32-3.52,1.32-2.63-0.45-6.16C545.46,414.97,545.46,413.64,541.5,412.78z"
			/>
		<path class="st0" d="M544.16,430.79c0.02,3.92,2.25,8.32,4,3.94c1.76-4.39,2.64-6.15,1.3-7.04
			C548.12,426.83,544.16,429.03,544.16,430.79z"/>
		<path class="st0" d="M584.45,441.25c-4.44-1.77-4.4,2.62-7.08,5.28c-2.63,2.63-4.86-2.19-10.62-3.06
			c-5.74-0.87-3.11-2.63-4.88-6.58c-1.77-3.95-1.77-3.95-3.98-5.7c-2.21-1.74-0.88,3.53-0.88,3.53s-1.95,1.01-3.98-0.44
			c-3.11-2.18-1.32,4.84-3.07,7.92c-1.76,3.07,0,4.83-0.88,8.37c-0.86,3.51-1.31,4.83-3.95,7.02c-2.65,2.21-3.53,2.21-3.97,5.28
			c-0.43,3.08,3.11,1.76,7.54,3.49c4.42,1.76,2.21,2.64,4.42,6.15c2.22,3.5-0.42,4.38-1.74,8.35c-1.31,3.97-0.44,3.51,3.57,5.26
			c3.97,1.74,3.52,1.31,5.71-3.08c2.21-4.39,3.53-2.65,7.52-7.06c3.96-4.41,3.96-3.07,4.84-6.6c0.87-3.51,0-4.4-0.04-8.36
			c0-3.94,2.68-1.31,5.3-1.32c2.67,0,2.67,1.31,2.21-2.2c-0.45-3.51,1.34-2.65,3.1-4.84c1.75-2.19,2.62-1.32,3.96-5.27
			C588.88,443.42,588.88,442.96,584.45,441.25z"/>
		<path class="st0" d="M535.91,483.09c-1.34,1.33-3.11-0.41-3.11-0.41c0-3.52-1.33-3.99-3.54-4.85c-2.21-0.87-1.78-4.38-3.99-1.3
			c-2.22,3.09-1.76,1.31-2.63,5.29c-0.89,3.95-1.45,3.44-3.1,6.15c-4.84,7.93-6.6,7.48-7.05,10.58c-0.42,3.06-1.3,3.06-4.39,5.71
			c-3.11,2.65-5.3,2.21-10.61,7.06c-5.3,4.85-5.75,1.35-10.6,6.19c-4.85,4.83-5.3,3.96-8.37,8.8c-3.1,4.85-1.35-4.39-5.28,7.04
			c0,0-10.6,3.54-5.29,7.04c5.31,3.5,7.09,2.17,9.73,3.04c2.66,0.88,1.78,2.63,4.42,3.08c2.68,0.42-1.75,0,2.68,0.42
			c4.4,0.43,4.86-0.45,8.39-0.03c3.55,0.45,6.19-0.44,7.51-1.77c1.32-1.32-1.32-0.42,4.4-5.73c5.74-5.28,5.74-6.6,7.49-10.56
			c1.76-3.96,0.86-7.03,3.08-8.8c2.21-1.76-0.44-0.88,4.43-2.63c4.84-1.77,0.87-1.75,7.05-3.1c6.18-1.34,3.97-1.34,6.18-1.34
			c2.23,0-6.63-1.3-3.54-4.8c3.09-3.54,7.51-6.61,9.27-9.72c1.75-3.07,0.42-6.58,2.63-7.91c2.21-1.31,6.64-7.13,3.51-7.91
			C538.1,480.88,537.23,481.76,535.91,483.09z"/>
		<path class="st0" d="M481.69,550c-2.21,0.02-6.2,2.22-3.52,3.98c2.64,1.72,2.64,1.72,4.85-0.02
			C485.22,552.19,483.02,550,481.69,550z"/>
	</g>
</g>
</svg>
